<?xml version="1.0" standalone="no"?>
<!DOCTYPE svg PUBLIC "-//W3C//DTD SVG 20010904//EN"
 "http://www.w3.org/TR/2001/REC-SVG-20010904/DTD/svg10.dtd">
<svg version="1.0" xmlns="http://www.w3.org/2000/svg"
 width="733.000000pt" height="450.000000pt" viewBox="0 0 733.000000 450.000000"
 preserveAspectRatio="xMidYMid meet">

<g transform="translate(0.000000,450.000000) scale(0.100000,-0.100000)"
fill="#000000" stroke="none">
<path d="M2550 4490 c0 -5 6 -10 14 -10 8 0 18 5 21 10 3 6 -3 10 -14 10 -12
0 -21 -4 -21 -10z"/>
<path d="M2606 4488 c-18 -10 -18 -11 5 -29 21 -16 22 -18 6 -24 -9 -4 -17
-12 -17 -19 0 -7 -18 -17 -40 -23 -38 -10 -41 -9 -46 13 -3 13 -9 24 -11 24
-9 0 -73 -71 -73 -81 0 -12 4 -12 47 6 28 12 39 13 47 4 8 -9 6 -10 -7 -6 -19
7 -67 -31 -67 -53 0 -14 33 -13 48 2 15 15 15 8 2 -28 -6 -14 -22 -35 -36 -46
-18 -15 -23 -26 -18 -41 6 -19 5 -20 -8 -10 -19 16 -28 7 -28 -27 0 -14 -7
-35 -15 -46 -8 -10 -15 -33 -15 -51 0 -41 -9 -63 -25 -63 -7 0 -23 -8 -36 -18
-13 -10 -46 -23 -72 -30 -41 -10 -52 -10 -75 3 -25 15 -30 15 -64 0 -43 -17
-51 -45 -14 -45 14 0 28 5 32 11 4 8 9 8 17 0 6 -6 21 -11 34 -11 13 0 23 -6
23 -13 0 -16 -25 -52 -37 -52 -21 -1 -54 -28 -49 -40 3 -9 -5 -16 -24 -20 -17
-4 -32 -11 -35 -16 -4 -5 -14 -9 -25 -9 -11 0 -20 -10 -24 -25 -4 -14 -11 -25
-16 -25 -5 0 -24 -16 -41 -35 -18 -19 -36 -32 -40 -29 -5 3 -9 -4 -9 -14 0
-15 -5 -19 -20 -15 -23 6 -28 -15 -5 -23 17 -7 21 -24 5 -24 -5 0 -26 -11 -47
-25 -37 -26 -57 -75 -31 -75 19 -1 -21 -23 -62 -36 -23 -7 -35 -16 -34 -27 2
-19 -11 -23 -21 -6 -4 6 0 16 8 22 9 7 17 21 19 32 3 18 -2 20 -55 17 -100 -4
-200 -69 -134 -86 14 -3 38 -2 53 3 49 16 99 22 89 12 -6 -5 -26 -11 -45 -13
-26 -2 -34 -7 -32 -20 2 -12 -8 -18 -40 -23 -24 -4 -48 -12 -55 -17 -7 -5 -17
-7 -22 -4 -13 8 -51 -15 -51 -31 0 -6 6 -14 13 -17 6 -3 -12 -4 -40 -2 -29 1
-53 -1 -53 -5 0 -5 -9 -9 -20 -9 -11 0 -20 -4 -20 -10 0 -5 -14 -10 -30 -10
-38 0 -93 -27 -84 -41 3 -6 -3 -13 -15 -16 -24 -6 -27 -18 -9 -29 9 -6 5 -10
-12 -14 -16 -4 -25 -13 -25 -25 0 -15 -8 -19 -45 -19 -38 -1 -45 -4 -45 -21 0
-13 6 -19 15 -17 11 3 12 1 4 -8 -7 -7 -32 -13 -55 -15 -24 -2 -57 -10 -74
-19 -16 -9 -38 -13 -48 -10 -15 5 -18 2 -13 -13 4 -13 -2 -30 -15 -47 -19 -25
-23 -26 -38 -12 -25 23 -51 20 -51 -4 0 -13 10 -24 25 -30 27 -10 34 -30 10
-30 -8 0 -15 5 -15 10 0 6 -10 10 -21 10 -17 0 -20 -5 -17 -25 4 -19 1 -25
-11 -25 -26 0 -42 -20 -28 -35 7 -6 19 -14 27 -18 11 -4 9 -7 -8 -13 -22 -6
-26 -29 -4 -29 5 0 14 -3 18 -7 4 -5 15 -8 25 -8 12 0 16 -7 15 -25 0 -16 -7
-25 -18 -25 -23 0 -31 -16 -18 -39 7 -14 7 -22 0 -26 -7 -5 -8 -11 -1 -19 7
-9 3 -12 -17 -11 -20 0 -28 -5 -30 -21 -4 -31 28 -41 49 -16 9 12 21 17 28 12
9 -5 7 -9 -8 -13 -16 -4 -21 -13 -21 -39 0 -19 5 -39 12 -46 9 -9 9 -12 0 -12
-7 0 -17 11 -22 25 -5 14 -16 25 -25 25 -20 0 -19 -5 8 -34 38 -42 52 -60 50
-67 -1 -4 7 -15 17 -24 28 -25 25 -36 -6 -25 -35 14 -47 3 -24 -20 11 -11 20
-25 20 -31 0 -6 -8 -1 -19 12 l-18 23 -5 -38 c-3 -25 1 -43 10 -53 18 -17 38
-11 34 10 -2 11 2 15 13 11 8 -3 15 -10 15 -16 0 -5 7 -17 16 -25 13 -13 20
-14 35 -5 10 7 19 8 19 3 0 -5 8 -12 18 -14 14 -4 14 -5 -3 -6 -11 0 -30 -8
-42 -16 -19 -13 -21 -13 -26 5 -3 11 -10 20 -16 20 -19 0 -26 -32 -10 -44 18
-14 13 -47 -6 -40 -17 7 -40 -32 -25 -41 6 -4 8 -14 6 -23 -3 -10 -2 -23 3
-31 13 -20 33 -3 25 21 -5 17 -3 19 15 13 14 -4 21 -2 21 6 0 7 3 9 6 6 4 -4
-7 -21 -25 -39 -29 -29 -31 -37 -31 -100 0 -53 3 -68 14 -68 8 0 18 5 21 10 5
8 11 8 20 0 9 -8 15 -8 20 0 8 13 -3 30 -21 30 -8 0 -14 5 -14 10 0 7 6 8 17
2 11 -7 32 -5 62 4 60 18 72 18 64 -2 -3 -9 0 -20 8 -25 11 -7 9 -13 -11 -29
-20 -15 -23 -21 -12 -31 6 -7 12 -16 12 -19 0 -10 -32 -5 -57 8 -32 18 -46 15
-40 -8 3 -12 1 -35 -4 -52 -12 -43 22 -103 68 -120 18 -7 33 -16 33 -21 0 -9
89 -50 133 -61 24 -6 27 -9 17 -21 -22 -27 -4 -48 35 -42 21 4 40 1 47 -6 16
-15 124 -13 188 3 25 6 58 13 73 15 16 2 38 12 50 22 12 11 40 31 62 45 22 14
59 43 83 64 23 21 63 57 87 79 25 21 45 45 45 52 0 7 7 13 15 13 8 0 24 9 35
20 24 24 30 25 30 5 0 -19 34 -19 50 0 7 8 20 14 29 13 10 -2 23 12 36 38 11
23 25 39 33 37 23 -8 17 65 -6 85 -14 10 -14 12 -2 9 8 -2 23 0 33 5 16 8 18
7 9 -9 -8 -14 -4 -29 16 -65 15 -27 34 -48 42 -48 13 0 13 -1 0 -10 -12 -7
-12 -12 -3 -21 10 -10 14 -9 19 4 9 24 23 21 17 -3 -4 -14 0 -20 13 -20 9 0
14 -3 11 -7 -4 -3 -2 -12 4 -19 12 -15 20 -64 22 -144 2 -43 6 -55 20 -58 9
-2 17 -10 17 -18 0 -8 7 -14 17 -14 14 0 14 -2 -3 -21 -18 -20 -18 -21 -1 -34
10 -7 18 -16 18 -19 -4 -31 1 -38 22 -34 20 4 22 1 21 -39 -1 -30 2 -43 12
-43 19 0 34 -33 34 -74 0 -30 4 -36 20 -36 11 0 23 -8 26 -17 12 -39 39 -93
47 -93 4 0 7 -7 7 -15 0 -8 11 -22 24 -31 14 -8 34 -31 45 -50 13 -21 28 -34
41 -34 15 0 20 -7 20 -25 0 -21 -5 -25 -28 -25 -42 0 -46 -10 -15 -42 28 -30
22 -35 -23 -18 -37 14 -40 7 -15 -36 19 -32 20 -36 4 -29 -49 19 -81 17 -122
-9 -43 -28 -46 -32 -32 -55 8 -13 -7 -41 -22 -41 -10 0 -15 40 -6 46 20 12 6
21 -35 22 -25 0 -54 3 -65 7 -12 4 -21 2 -21 -4 0 -6 11 -13 25 -17 31 -8 31
-15 2 -42 -15 -14 -36 -22 -59 -22 -42 0 -60 -26 -27 -39 24 -8 54 -68 37 -73
-7 -3 -5 -16 6 -36 11 -22 24 -32 40 -32 13 0 38 -3 55 -6 25 -5 29 -9 20 -20
-9 -11 -5 -16 17 -25 26 -11 27 -13 9 -17 -11 -2 -28 -13 -38 -23 -14 -15 -22
-17 -37 -9 -10 6 -22 15 -25 20 -7 12 -75 14 -76 3 0 -5 -2 -21 -4 -36 -3 -20
1 -30 13 -33 9 -3 32 -13 50 -21 21 -11 53 -16 87 -14 34 1 55 -2 55 -8 0 -6
7 -11 15 -11 9 0 15 9 15 23 0 34 66 97 101 97 33 0 38 15 10 30 -27 14 -58
13 -64 -2 -2 -7 -6 2 -9 20 -4 25 -1 35 11 39 69 21 79 43 31 68 -19 10 -27
20 -24 30 8 20 42 29 59 15 11 -9 18 -10 28 -1 12 9 12 20 0 67 -22 86 -2 113
36 49 11 -19 20 -38 20 -41 0 -3 8 -12 18 -19 17 -12 17 -14 1 -32 -11 -12
-15 -27 -11 -41 4 -15 1 -22 -7 -20 -7 2 -14 -2 -17 -8 -6 -17 130 -28 174
-13 22 7 57 9 91 5 48 -6 58 -4 79 15 28 27 28 37 3 69 -27 35 -25 51 13 88
29 28 38 31 67 26 32 -7 33 -6 26 20 l-7 27 83 -1 c46 -1 95 1 109 3 22 3 25
1 21 -15 -2 -10 1 -18 7 -18 6 0 11 8 12 18 0 10 3 12 6 5 2 -7 9 -13 14 -13
14 0 58 52 59 69 0 27 45 110 61 114 12 3 20 20 24 51 4 25 6 48 4 50 -2 2 5
13 15 25 15 17 17 24 8 33 -14 14 -16 58 -3 58 5 0 15 14 24 32 11 24 13 37 5
51 -7 14 -6 26 3 43 10 20 10 27 -6 44 -18 19 -18 20 3 20 25 0 36 15 25 33
-9 15 -5 47 9 64 5 7 7 21 3 33 -4 12 -2 20 5 20 8 0 10 10 8 25 -3 14 -1 25
3 25 15 0 10 22 -8 35 -14 11 -11 13 21 19 20 4 40 14 43 22 3 7 15 14 27 14
11 0 37 14 56 30 25 22 45 30 73 30 23 0 40 5 43 14 3 8 13 12 24 9 22 -6 37
16 19 28 -10 6 -8 9 9 9 26 0 29 -18 5 -36 -10 -7 -14 -16 -10 -21 5 -4 14 0
21 10 7 9 18 17 24 17 23 0 24 42 3 71 -24 32 -21 36 10 17 17 -11 22 -10 30
5 8 14 14 16 24 7 8 -7 19 -9 24 -5 14 8 -9 45 -27 45 -10 0 -12 6 -7 18 4 9
8 24 9 32 2 24 45 60 71 60 20 0 23 5 23 35 0 25 -5 36 -20 40 -20 7 -41 47
-40 77 1 21 -14 33 -23 18 -8 -13 -52 -13 -60 0 -3 5 0 7 9 4 11 -4 14 2 14
25 -1 17 -4 31 -8 31 -4 0 -10 9 -13 20 -7 26 -27 26 -27 0 0 -11 -4 -20 -9
-20 -16 0 -71 51 -71 66 0 21 -57 18 -69 -3 -10 -17 -12 -15 -15 17 0 8 -10
16 -21 18 -56 8 -67 13 -57 25 7 8 5 23 -6 47 -18 40 -23 141 -7 153 6 5 4 12
-7 20 -10 8 -15 24 -14 44 3 38 34 85 42 66 9 -21 44 -15 44 7 0 11 -7 20 -15
20 -8 0 -16 9 -16 20 -1 11 -2 26 -3 33 -1 6 4 21 11 32 7 11 13 27 13 37 0 9
9 26 20 36 20 18 20 18 -9 40 -16 11 -31 32 -33 46 -6 29 3 33 22 11 17 -20
50 -19 50 1 0 10 6 14 15 10 16 -6 65 34 65 53 0 6 4 11 9 11 6 0 16 12 23 28
8 15 23 28 36 30 28 4 55 43 46 66 -8 21 19 48 63 64 22 7 35 7 39 1 8 -13 74
58 74 78 0 11 7 13 25 9 21 -5 25 -3 25 16 l0 23 18 -22 c18 -24 30 -21 48 12
6 11 20 24 32 30 12 5 22 13 22 17 0 4 7 5 15 2 22 -9 73 15 80 37 4 12 16 19
30 19 28 0 79 60 89 105 5 22 26 44 81 85 56 42 71 57 61 65 -7 6 -11 15 -9
21 2 7 -9 18 -26 25 -24 11 -29 18 -26 41 2 18 -2 31 -12 36 -12 7 -13 13 -4
31 7 11 15 21 19 21 4 0 20 11 36 25 20 17 29 35 29 55 0 16 6 31 14 34 21 9
15 26 -14 38 -27 11 -26 12 27 18 64 6 81 15 73 35 -3 10 1 15 12 15 12 0 15
-5 10 -20 -7 -22 20 -29 28 -7 4 10 6 10 6 0 1 -7 8 -13 16 -13 18 0 18 5 5
30 -9 16 -8 18 7 13 12 -5 15 -2 11 9 -9 23 -21 108 -15 108 10 0 55 -26 71
-42 9 -10 23 -15 31 -12 8 4 15 1 15 -5 0 -6 5 -11 10 -11 6 0 10 7 10 16 0
11 6 13 19 9 11 -3 26 1 35 10 10 10 24 14 36 10 11 -3 20 -3 20 2 0 4 16 8
35 9 34 0 47 -10 23 -18 -6 -2 -8 -10 -4 -17 6 -9 13 -8 28 6 15 13 37 18 94
18 49 1 74 -3 74 -10 0 -18 38 -48 53 -42 7 3 38 -7 67 -22 l55 -26 -2 -54
c-2 -30 -7 -59 -13 -65 -16 -16 -12 -30 12 -41 29 -13 38 -39 10 -31 -27 9
-38 -11 -18 -33 25 -27 19 -37 -7 -13 l-23 22 -59 -19 c-61 -20 -94 -50 -120
-108 -8 -18 -18 -33 -24 -33 -11 0 -161 -151 -161 -163 0 -4 -9 -5 -20 -2 -16
5 -21 1 -26 -22 -5 -21 -18 -34 -55 -51 -27 -13 -49 -29 -49 -35 -1 -18 -29
-52 -37 -44 -3 4 2 14 13 21 15 11 16 17 7 27 -9 9 -20 4 -47 -21 -19 -18 -37
-43 -40 -56 -4 -15 -11 -21 -21 -18 -14 6 -45 -16 -45 -31 0 -4 10 -15 23 -26
l22 -19 -28 4 c-16 3 -35 11 -44 17 -20 17 -36 -7 -21 -34 10 -20 1 -39 -10
-20 -4 7 -28 11 -57 10 -43 -2 -51 1 -60 21 -11 25 -33 29 -41 7 -4 -8 -12
-15 -20 -15 -19 0 -18 -25 2 -44 18 -18 30 -20 39 -6 3 6 12 10 20 10 16 0 29
-31 17 -39 -5 -3 -12 -19 -16 -34 -4 -15 -14 -31 -23 -34 -20 -8 -54 -40 -51
-51 0 -4 -2 -15 -7 -26 -5 -11 -3 -21 4 -25 7 -5 10 -18 6 -33 -5 -20 0 -33
24 -57 36 -37 35 -33 16 -90 -15 -42 -15 -44 10 -68 14 -14 25 -32 25 -40 0
-8 7 -27 15 -43 13 -25 13 -29 -1 -34 -11 -4 -13 -10 -7 -19 8 -11 9 -41 5
-101 -1 -12 -7 -16 -17 -12 -18 7 -21 -20 -2 -28 9 -3 7 -8 -5 -15 -23 -15
-32 -65 -17 -93 7 -13 14 -38 14 -56 1 -25 -1 -30 -7 -18 -15 27 -29 18 -26
-16 2 -27 7 -33 28 -34 14 -1 28 3 33 10 5 8 10 7 17 -4 9 -13 13 -11 30 10
l20 25 0 -37 c0 -34 23 -78 41 -78 15 0 18 34 5 55 l-14 22 34 -16 34 -15 -22
-23 c-20 -22 -20 -23 -2 -30 10 -4 25 -13 32 -20 7 -7 20 -13 28 -13 8 0 14
-4 14 -10 0 -5 -4 -10 -10 -10 -5 0 -10 -9 -10 -20 0 -17 7 -20 44 -20 27 0
48 6 56 15 11 13 15 13 22 3 7 -9 11 -9 14 -2 3 6 16 9 30 6 19 -3 22 -7 13
-18 -6 -7 -8 -17 -5 -22 3 -6 -5 -13 -19 -16 -37 -9 -30 -26 10 -26 25 0 41 7
57 25 17 19 31 25 64 25 23 0 70 7 104 16 45 11 65 13 73 5 17 -17 32 -13 60
14 18 18 38 27 69 29 48 4 78 14 78 27 0 5 34 8 74 8 77 -1 101 5 90 22 -3 6
4 7 20 3 19 -5 26 -2 26 9 0 10 13 16 41 19 22 2 42 1 45 -3 2 -4 19 0 37 9
17 9 43 18 57 20 13 2 30 8 36 13 8 6 26 5 53 -5 23 -7 44 -10 46 -5 3 4 12 6
20 2 8 -3 23 -2 33 3 9 4 38 8 63 9 30 1 58 10 84 28 l39 26 11 -22 c6 -12 10
-24 7 -27 -3 -3 -7 1 -9 8 -5 12 -33 17 -33 6 0 -4 9 -21 20 -39 l21 -33 -21
5 c-31 8 -24 -14 10 -32 36 -19 40 -19 40 0 0 22 12 18 50 -16 34 -31 35 -31
112 -25 82 7 80 8 126 -48 7 -9 22 -16 32 -16 11 0 20 -7 20 -15 0 -18 -4 -18
-50 -4 -19 5 -70 16 -112 23 -66 11 -81 11 -98 -1 -11 -8 -20 -21 -20 -29 0
-27 -44 -38 -78 -20 -28 14 -32 14 -46 0 -9 -8 -16 -24 -16 -35 0 -25 -18 -24
-39 3 -12 14 -24 19 -36 15 -14 -6 -16 -15 -11 -51 9 -56 -11 -79 -58 -70 -18
3 -71 6 -118 7 -64 2 -91 6 -104 18 -12 11 -47 20 -92 24 -39 4 -74 11 -77 16
-3 4 -19 6 -34 3 -16 -4 -32 -1 -35 5 -11 17 -26 13 -26 -6 0 -14 -2 -14 -20
2 -21 19 -18 22 -35 -31 -4 -11 -11 -13 -27 -8 -13 4 -40 6 -60 5 -20 -1 -39
3 -43 9 -5 8 -14 5 -26 -9 -13 -13 -32 -21 -53 -21 -19 0 -46 -7 -62 -14 -15
-8 -32 -13 -36 -9 -5 3 -12 -4 -15 -16 -4 -15 -13 -21 -34 -21 -17 0 -46 -7
-65 -15 -28 -12 -35 -19 -31 -35 7 -25 -14 -42 -49 -38 -21 2 -29 -2 -32 -16
-3 -16 1 -18 35 -15 l39 4 -2 -37 c-1 -21 1 -38 5 -38 3 0 6 -14 7 -30 1 -18
9 -37 20 -45 10 -7 19 -17 20 -22 2 -24 18 -42 42 -48 15 -4 34 -13 43 -21 20
-18 69 -3 69 21 0 17 18 19 39 6 9 -6 10 -11 2 -15 -6 -4 -11 -20 -11 -36 0
-16 -10 -45 -21 -65 -17 -29 -20 -44 -14 -78 3 -23 7 -73 8 -111 l2 -69 -45
-33 c-62 -45 -99 -51 -153 -26 -35 17 -46 28 -57 62 -8 24 -25 49 -39 58 -65
41 -101 76 -101 99 0 29 -15 29 -88 -1 -31 -13 -73 -26 -92 -30 -53 -9 -110
-88 -110 -151 0 -41 -3 -48 -39 -73 -39 -27 -39 -27 -51 -125 -9 -74 -10 -108
-1 -140 6 -23 12 -80 14 -127 2 -82 1 -87 -32 -139 -51 -80 -100 -111 -173
-111 l-58 0 0 -35 c0 -50 -21 -86 -70 -120 -34 -24 -54 -29 -118 -33 -68 -3
-80 -1 -99 17 -13 12 -23 29 -23 37 0 8 -7 26 -16 40 l-17 25 29 -13 c16 -7
34 -19 40 -27 12 -16 27 -1 16 16 -14 23 -104 53 -155 53 -78 0 -206 -27 -260
-55 -27 -14 -59 -25 -71 -25 -23 0 -95 -48 -96 -63 0 -17 -30 -37 -54 -37 -14
0 -76 -14 -138 -31 -62 -17 -126 -35 -143 -39 -16 -4 -51 -16 -77 -26 -45 -17
-47 -17 -73 2 -15 10 -36 24 -45 29 -10 6 -25 17 -34 24 -10 9 -28 11 -51 7
-43 -8 -55 -2 -48 25 5 18 11 20 39 16 41 -7 52 6 25 29 -16 14 -17 20 -8 36
14 22 -4 39 -33 31 -11 -3 -19 2 -23 16 -7 27 -47 17 -47 -11 0 -16 -3 -18
-13 -9 -16 13 -27 5 -27 -20 0 -12 5 -16 15 -13 9 4 15 0 15 -8 0 -22 -12 -29
-27 -16 -8 7 -24 13 -36 14 -94 9 -90 10 -141 -39 -31 -31 -57 -47 -74 -48
-59 -2 -75 -7 -93 -30 -10 -13 -19 -20 -19 -15 0 4 -11 1 -24 -8 -18 -11 -27
-12 -32 -5 -4 7 -23 9 -50 5 -55 -7 -63 6 -19 30 26 14 35 25 35 45 0 29 23
55 40 44 23 -14 8 26 -16 41 -24 16 -26 16 -42 -1 -14 -14 -14 -18 -3 -23 8
-3 -3 -10 -27 -18 -36 -13 -45 -12 -87 6 -26 11 -51 18 -55 15 -5 -3 -11 -1
-15 5 -3 5 -15 10 -26 10 -16 0 -18 5 -13 25 8 30 -18 74 -42 71 -9 0 -19 5
-21 11 -3 9 4 11 26 7 24 -5 32 -2 38 11 9 26 -43 66 -81 63 -16 -2 -31 2 -33
10 -3 6 2 12 11 12 23 0 29 18 16 51 -9 21 -10 33 -2 41 7 7 16 -3 31 -35 14
-30 28 -47 45 -51 16 -4 23 -11 20 -20 -4 -10 9 -16 48 -22 70 -10 89 -7 111
18 19 22 18 77 -2 101 -6 8 -8 16 -5 20 7 7 -14 47 -25 47 -5 0 -11 -9 -14
-20 -5 -20 -6 -20 -31 5 l-25 25 -52 -20 c-29 -10 -55 -17 -60 -15 -13 9 2 41
24 50 14 6 22 18 21 33 0 17 4 21 16 17 25 -8 42 19 40 62 -3 56 -3 56 29 34
37 -26 41 -26 42 2 0 12 3 16 6 10 8 -20 26 -14 49 15 34 43 38 78 12 96 -12
9 -31 13 -45 10 -50 -13 -68 1 -81 64 -11 52 -10 62 7 95 11 21 24 44 30 50
15 19 17 93 1 112 -11 13 -10 20 8 45 36 49 22 55 -36 15 -20 -14 -51 -25 -68
-25 -33 0 -72 -35 -110 -99 -23 -39 -49 -48 -154 -56 l-85 -6 -43 -51 c-23
-27 -42 -56 -42 -63 0 -8 15 -25 32 -39 31 -24 32 -26 10 -26 -16 0 -26 7 -29
20 -7 28 -22 25 -34 -7 -11 -30 -11 -206 1 -258 5 -20 2 -44 -6 -64 -12 -28
-11 -32 9 -46 12 -8 26 -15 32 -15 6 0 15 -10 20 -22 11 -25 32 -26 27 -2 -2
8 4 14 13 14 10 0 15 -10 15 -29 0 -16 2 -35 3 -43 2 -7 2 -10 0 -5 -11 19
-33 3 -57 -43 -32 -62 -32 -70 -1 -70 25 0 35 15 14 22 -7 2 -9 13 -4 27 4 12
9 20 12 17 4 -3 12 -1 20 5 10 9 13 7 14 -7 5 -86 7 -95 32 -120 29 -28 34
-44 16 -44 -6 0 -9 -6 -6 -14 4 -9 -3 -16 -18 -20 -44 -11 -43 -62 1 -53 19 3
23 1 19 -12 -6 -20 9 -46 23 -37 6 3 13 2 17 -4 3 -5 -3 -10 -14 -10 -25 0
-28 -22 -6 -40 22 -18 3 -35 -23 -21 -11 6 -27 11 -35 11 -17 0 -37 -41 -37
-75 0 -22 -3 -24 -30 -18 -21 4 -30 2 -30 -7 0 -9 -7 -7 -20 5 -11 10 -20 23
-20 30 0 12 -204 14 -217 2 -3 -4 -1 -7 6 -7 8 0 5 -10 -8 -26 -27 -34 -27
-48 -1 -34 11 6 18 15 15 19 -10 18 22 29 103 35 74 7 85 5 97 -11 8 -10 12
-26 9 -35 -6 -19 11 -25 21 -8 5 8 11 7 21 -1 19 -16 30 -4 14 16 -8 9 -8 15
-2 15 6 0 14 -4 17 -10 6 -10 55 -14 55 -5 0 3 -5 14 -12 24 -8 14 -9 26 -2
42 10 21 18 23 90 25 l79 2 34 -44 c32 -43 66 -61 93 -51 7 2 -4 11 -25 20
-20 9 -37 21 -37 27 0 23 -59 67 -98 74 -40 6 -68 26 -38 26 24 0 20 41 -4 47
-22 6 -26 18 -10 28 6 3 10 12 10 20 0 10 -10 12 -37 8 -46 -7 -36 8 15 22 20
6 38 17 39 25 2 8 -15 35 -37 59 -22 25 -39 50 -37 55 5 13 86 9 102 -4 7 -6
39 -9 73 -8 34 1 67 -4 75 -10 8 -7 17 -9 21 -5 4 4 11 1 16 -7 15 -23 12 -57
-5 -64 -31 -12 -16 -28 21 -22 30 6 35 5 34 -11 -4 -33 0 -36 20 -18 20 18 22
18 70 -5 39 -18 53 -21 62 -12 7 7 22 12 35 12 38 0 29 -36 -17 -65 -22 -14
-40 -30 -40 -35 0 -19 38 -30 66 -20 20 8 31 7 43 -3 35 -30 58 -27 87 13 25
33 36 39 81 45 28 3 57 13 64 21 6 8 18 14 26 14 8 0 28 8 46 17 18 9 45 16
61 15 15 -2 34 3 42 9 11 9 16 5 25 -15 7 -14 20 -28 30 -31 9 -3 28 -17 41
-30 17 -17 28 -21 38 -14 25 15 50 10 50 -10 0 -11 5 -23 10 -26 6 -4 8 -15 5
-26 -5 -14 2 -24 27 -39 18 -11 41 -20 50 -20 13 0 20 -11 24 -40 4 -22 11
-40 16 -40 6 0 8 14 4 35 -8 39 -1 43 32 19 28 -20 37 -13 36 25 -2 49 -3 51
-19 51 -8 0 -15 4 -15 9 0 10 50 27 180 61 47 12 95 26 108 31 13 5 42 9 65 9
39 0 47 5 85 49 32 37 51 50 80 55 20 3 58 16 84 30 80 41 302 71 304 41 0 -5
8 -26 16 -45 9 -19 19 -43 22 -53 10 -31 71 -49 140 -42 34 4 69 11 78 16 11
6 159 3 380 -7 263 -12 367 -13 380 -5 13 8 29 4 75 -20 78 -41 82 -45 82 -87
1 -49 33 -164 48 -169 8 -3 7 7 -2 34 -19 57 -28 106 -18 100 4 -3 38 -2 73 3
36 4 69 4 74 -1 15 -14 49 -11 73 6 12 8 32 14 45 13 19 -3 24 2 26 26 3 25 7
27 30 23 18 -4 34 1 47 12 11 10 32 21 48 25 22 5 27 3 27 -13 0 -33 62 -37
74 -5 8 20 -15 54 -36 54 -15 0 -15 3 -2 30 9 16 19 32 24 35 5 3 7 19 4 34
-8 41 19 77 63 86 27 5 38 13 46 35 10 26 14 28 54 24 32 -3 43 0 43 10 0 7
10 20 22 28 27 18 16 38 -23 38 -33 0 -36 12 -14 54 8 15 15 34 15 42 0 8 6
11 15 8 8 -3 25 5 38 20 24 25 28 26 101 20 67 -5 76 -4 76 11 0 22 75 95 97
95 9 0 24 -7 34 -16 15 -13 24 -14 48 -6 24 9 34 8 46 -4 8 -9 15 -19 15 -24
0 -16 33 -20 50 -5 20 18 33 19 76 3 29 -10 32 -15 27 -42 -6 -43 23 -62 64
-42 70 35 84 38 134 34 42 -4 57 -11 74 -32 11 -14 26 -26 33 -26 7 0 12 -4
12 -10 0 -5 8 -10 19 -10 14 0 18 -7 17 -30 -1 -16 -4 -30 -7 -30 -18 0 -17
-33 1 -52 23 -25 26 -50 8 -70 -14 -14 -38 -55 -38 -62 0 -2 20 -17 44 -32 39
-25 44 -32 39 -56 -4 -21 -2 -28 10 -28 8 0 22 -18 31 -39 15 -40 35 -57 91
-77 32 -11 45 -45 26 -68 -17 -21 13 -40 50 -32 39 7 101 -17 93 -37 -7 -19
33 -57 60 -57 17 0 15 4 -12 20 -29 18 -32 23 -21 36 10 13 10 17 -2 25 -25
16 -93 32 -127 30 -31 -2 -33 -1 -23 18 20 37 13 58 -26 76 -76 33 -83 39 -93
71 -6 18 -17 38 -25 44 -9 7 -13 21 -9 35 4 18 -1 26 -33 42 -47 25 -51 43
-19 78 26 28 25 42 -6 86 -14 21 -15 29 -5 37 6 6 12 27 12 48 0 31 -4 39 -22
44 -21 5 -36 15 -85 57 -9 8 -44 17 -78 19 -49 4 -66 2 -81 -12 -11 -9 -19
-14 -19 -9 0 4 -12 0 -26 -10 -32 -21 -60 -5 -44 25 16 30 12 36 -36 55 -43
16 -49 16 -79 2 -33 -15 -34 -15 -50 9 -14 22 -22 25 -63 22 -45 -3 -47 -2
-45 22 2 34 -18 130 -28 130 -9 0 -39 58 -39 76 0 16 -37 37 -49 29 -9 -5 4
45 20 77 19 37 10 66 -26 88 -19 12 -35 28 -35 35 0 8 -9 16 -19 20 -13 4 -18
12 -14 22 10 25 49 63 66 63 24 0 32 21 14 35 -10 7 -17 22 -17 34 0 12 -10
35 -22 51 -18 25 -20 34 -10 54 9 20 8 36 -3 73 -23 74 -20 98 16 124 18 12
42 46 56 76 14 29 31 53 39 53 23 0 45 26 38 44 -3 9 -11 16 -16 16 -6 0 -8
10 -5 22 3 12 1 30 -4 40 -6 11 -8 27 -4 36 6 15 8 15 23 -4 34 -42 72 -35 72
13 0 27 0 26 37 12 46 -17 89 -3 102 32 11 31 11 31 67 24 54 -6 140 -26 176
-40 11 -4 20 1 28 15 16 30 5 50 -27 50 -21 0 -33 8 -45 30 -17 29 -17 29
-109 29 -90 0 -92 0 -120 30 -15 17 -34 31 -42 31 -8 0 -20 7 -27 15 -11 13
-10 14 5 9 15 -6 17 -3 13 21 -3 16 -1 39 5 52 5 13 8 26 4 29 -9 9 -79 -18
-110 -43 -17 -14 -42 -23 -60 -23 l-32 1 60 55 c33 30 72 62 87 70 15 7 40 26
55 40 15 14 44 34 63 45 38 20 74 52 286 258 77 75 161 155 187 178 42 39 87
104 87 126 0 5 9 22 20 38 l21 28 -41 44 c-22 24 -40 49 -40 55 0 6 -15 19
-32 28 -18 9 -46 27 -61 40 -16 13 -34 24 -41 24 -13 0 -130 83 -141 100 -3 5
2 14 13 18 11 4 40 30 66 59 43 48 46 54 38 88 -7 37 -15 43 -102 86 -8 4 -14
13 -12 19 1 7 -3 19 -10 28 -9 11 -10 16 -2 19 6 2 19 9 28 16 16 11 16 15 1
45 -13 26 -22 32 -48 32 -38 0 -50 7 -66 37 -18 35 -13 50 20 62 41 14 38 53
-5 61 -26 4 -27 6 -13 19 10 7 17 28 17 46 0 18 7 38 15 45 12 10 13 16 4 26
-12 14 -8 16 46 18 48 3 15 113 -74 245 -19 28 -38 51 -43 51 -12 0 8 -36 46
-84 28 -36 61 -109 73 -162 4 -18 -2 -23 -41 -33 -45 -11 -57 -23 -36 -36 7
-4 7 -12 0 -25 -5 -10 -10 -31 -10 -46 0 -15 -8 -36 -17 -46 -15 -17 -15 -20
-3 -28 8 -6 23 -10 32 -10 11 0 15 -5 12 -15 -4 -8 -12 -15 -19 -15 -27 0 -37
-27 -25 -65 13 -40 43 -65 80 -65 14 0 31 -9 38 -20 11 -18 9 -21 -13 -30 -29
-11 -29 -12 -11 -65 10 -28 22 -42 43 -50 47 -16 72 -40 78 -71 5 -25 0 -35
-38 -71 -24 -23 -56 -47 -71 -53 -19 -7 -25 -14 -19 -24 14 -24 116 -102 163
-125 76 -37 120 -65 120 -78 0 -7 18 -30 39 -51 l40 -39 -37 -73 c-26 -51 -53
-86 -91 -119 -30 -25 -114 -106 -186 -178 -72 -73 -135 -133 -141 -133 -5 0
-27 -21 -48 -45 -22 -25 -62 -58 -90 -74 -28 -16 -60 -38 -70 -50 -11 -11 -23
-21 -28 -21 -5 0 -43 -29 -85 -65 -42 -36 -80 -65 -86 -65 -5 0 -15 -7 -21
-15 -13 -18 -88 -24 -94 -7 -5 17 -49 15 -77 -4 -13 -9 -29 -13 -34 -10 -5 4
-12 2 -16 -4 -3 -5 -17 -10 -31 -10 -22 0 -23 2 -12 20 8 13 20 19 31 16 13
-3 17 0 15 12 -8 41 -77 6 -78 -40 0 -14 -8 -16 -46 -14 -31 2 -48 -2 -51 -11
-3 -7 -11 -13 -19 -13 -8 0 -14 -4 -14 -9 0 -6 -20 -8 -45 -4 -34 4 -45 2 -43
-8 2 -8 -9 -13 -30 -15 -17 -1 -39 -7 -47 -14 -8 -7 -21 -10 -30 -7 -8 4 -17
2 -20 -3 -3 -5 -12 -7 -19 -4 -8 3 -17 1 -21 -5 -3 -6 -14 -11 -23 -11 -10 0
-23 -9 -30 -21 -10 -16 -16 -18 -27 -9 -10 8 -34 6 -96 -8 -79 -19 -115 -20
-104 -2 3 5 0 12 -6 16 -6 4 -16 -1 -21 -10 -7 -12 -14 -14 -28 -6 -10 5 -27
10 -38 10 -10 0 -27 9 -38 21 -15 17 -16 23 -5 41 20 31 -1 44 -37 23 -36 -21
-72 -14 -52 10 17 21 6 29 -37 28 -20 -1 -46 5 -58 13 -12 8 -25 11 -28 8 -4
-4 -9 1 -13 10 -3 9 -12 16 -20 16 -8 0 -14 7 -14 16 0 11 -6 14 -22 8 -13 -4
-26 -12 -30 -17 -10 -16 -48 21 -41 39 3 8 2 22 -2 32 -14 33 -12 91 3 97 8 3
12 11 9 19 -3 7 0 19 6 25 7 7 12 26 13 44 3 69 4 77 18 77 11 0 9 10 -9 43
-14 23 -25 49 -25 58 0 9 -11 28 -25 43 -28 30 -31 52 -11 78 19 25 8 74 -21
93 -21 14 -24 22 -19 50 5 23 2 35 -6 37 -10 4 -10 9 2 23 8 10 14 20 13 21
-6 9 10 33 17 29 14 -9 49 36 43 53 -5 12 -1 14 20 8 33 -8 42 6 17 29 -27 25
-25 30 15 42 28 9 35 8 35 -2 0 -19 30 -27 36 -10 4 8 17 15 30 15 13 0 24 5
24 10 0 6 6 10 14 10 21 0 30 19 17 34 -9 11 -8 18 4 29 8 9 15 19 15 22 0 4
10 20 21 37 18 25 23 28 31 15 12 -23 32 -12 62 33 18 27 37 42 68 51 36 12
42 18 40 37 -3 20 0 22 22 16 22 -5 26 -3 26 15 0 13 15 31 39 49 22 15 42 36
46 47 3 11 25 34 48 50 23 17 43 40 45 50 2 11 24 39 49 61 51 47 106 63 133
39 9 -8 24 -15 33 -15 23 0 22 36 0 49 -16 9 -14 10 7 8 20 -2 24 2 22 18 -2
11 -12 28 -23 37 -15 13 -18 22 -11 35 5 10 12 38 16 62 7 45 -11 81 -39 81
-7 0 -18 7 -25 15 -7 8 -29 18 -49 21 -55 9 -75 27 -61 54 15 28 5 38 -18 17
-10 -10 -32 -16 -50 -14 -28 2 -34 7 -49 47 -22 59 -36 80 -65 94 -17 8 -24
22 -26 49 -4 44 -22 50 -22 7 0 -22 12 -42 43 -73 23 -24 47 -60 53 -80 11
-35 10 -38 -13 -43 -14 -4 -34 -3 -46 2 -36 15 -147 6 -147 -11 0 -18 -1 -18
-36 -5 -15 6 -34 20 -41 30 -19 27 -47 27 -40 0 6 -24 -10 -26 -33 -5 -28 25
-47 9 -54 -46 -4 -27 -10 -49 -14 -49 -4 0 -27 11 -51 25 -50 29 -51 29 -51
12 0 -7 17 -22 38 -32 l37 -19 -27 -4 c-29 -3 -36 -16 -17 -28 19 -12 -17 -25
-52 -19 -18 3 -37 0 -46 -7 -9 -7 -23 -13 -31 -13 -8 0 -17 -6 -19 -12 -3 -7
2 -13 9 -13 17 0 58 -41 58 -57 0 -13 -58 -73 -70 -73 -5 0 -12 -9 -15 -21 -4
-12 -12 -18 -21 -15 -19 7 -30 -15 -13 -28 8 -6 13 -18 11 -27 -1 -9 8 -23 22
-32 60 -40 82 -82 49 -94 -10 -4 -23 -12 -29 -17 -6 -6 -27 -24 -47 -40 -21
-17 -39 -41 -43 -60 -10 -46 -42 -86 -68 -86 -12 0 -36 -13 -52 -30 -16 -16
-40 -30 -53 -30 -33 0 -91 -40 -91 -62 0 -23 -5 -23 -30 2 -24 24 -40 26 -40
3 0 -9 -3 -13 -6 -10 -12 11 -44 -13 -44 -33 0 -11 -5 -20 -10 -20 -6 0 -16
-11 -22 -25 -9 -20 -14 -23 -25 -13 -28 23 -52 15 -88 -28 -20 -23 -47 -45
-61 -48 -26 -7 -33 -26 -10 -26 7 0 19 -6 25 -14 16 -19 -5 -32 -24 -16 -12
10 -16 9 -21 -4 -5 -12 -10 -13 -25 -5 -10 5 -19 7 -19 4 0 -3 -11 7 -24 22
-13 15 -27 25 -31 21 -6 -6 -4 -12 29 -75 10 -19 13 -33 7 -33 -6 0 -11 -11
-11 -25 0 -16 -7 -28 -17 -31 -10 -3 -27 -10 -37 -16 -15 -8 -22 -6 -33 8 -11
15 -17 16 -31 8 -22 -15 -17 -64 9 -85 23 -17 19 -54 -8 -98 -10 -15 -13 -37
-10 -62 4 -32 2 -39 -12 -39 -23 0 -62 -71 -44 -77 10 -3 10 -10 2 -24 -7 -13
-7 -25 -1 -32 5 -7 9 -45 8 -84 -2 -40 1 -73 5 -73 13 0 28 -57 17 -68 -15
-15 36 -45 62 -37 16 5 20 2 20 -15 0 -27 29 -39 42 -17 9 18 38 23 38 8 0
-17 72 -81 92 -81 14 0 18 -5 14 -16 -9 -23 10 -42 53 -54 27 -8 40 -19 53
-46 15 -34 15 -36 -2 -52 -11 -8 -17 -19 -14 -24 8 -13 -15 -36 -72 -73 -32
-21 -60 -32 -72 -28 -12 3 -22 -2 -26 -12 -7 -19 9 -45 28 -45 6 0 19 -11 28
-24 17 -23 17 -24 -27 -40 -25 -10 -47 -26 -50 -37 -4 -10 -15 -19 -26 -19
-16 0 -19 5 -14 20 7 22 -13 49 -33 42 -6 -2 -12 -19 -12 -37 0 -25 -7 -37
-27 -51 -16 -10 -34 -24 -42 -31 -7 -8 -20 -12 -29 -8 -9 3 -21 -3 -30 -16
-14 -20 -20 -21 -103 -15 -56 4 -89 3 -89 -3 0 -17 22 -24 65 -23 29 2 50 -4
66 -17 23 -18 23 -18 2 -25 -11 -4 -32 -2 -46 3 -17 7 -28 7 -32 1 -4 -6 6
-15 20 -20 14 -5 24 -14 21 -18 -3 -5 4 -16 15 -25 24 -21 26 -49 3 -40 -13 5
-15 2 -10 -15 4 -11 2 -23 -4 -27 -6 -3 -8 -10 -5 -15 3 -4 -5 -6 -17 -2 -17
4 -20 2 -15 -11 3 -9 -1 -18 -10 -22 -13 -5 -11 -11 15 -33 31 -26 32 -28 18
-54 -13 -25 -13 -29 2 -37 14 -8 13 -14 -12 -52 -26 -38 -28 -46 -17 -73 7
-20 8 -32 1 -34 -5 -2 -10 -14 -10 -26 0 -33 -21 -88 -40 -106 -9 -8 -25 -35
-34 -60 -31 -81 -41 -95 -62 -92 -30 5 -257 1 -266 -4 -4 -3 -5 -17 -2 -32 5
-22 4 -25 -7 -15 -20 20 -33 16 -72 -24 -41 -41 -46 -66 -19 -113 17 -30 16
-32 -5 -49 -19 -16 -28 -17 -61 -8 -31 8 -51 7 -94 -6 -66 -21 -115 -14 -130
19 -8 18 -7 26 6 39 20 20 20 29 1 45 -8 7 -15 19 -15 26 0 8 -4 14 -9 14 -7
0 -67 85 -79 113 -2 4 8 5 23 1 42 -10 50 14 17 49 l-27 28 29 -3 c38 -4 54
20 38 56 -7 15 -20 26 -32 26 -11 0 -26 12 -35 29 -8 17 -23 36 -33 43 -25 18
-57 74 -77 136 -17 54 -23 60 -43 40 -8 -8 -10 -3 -6 23 4 26 1 39 -16 57 -12
13 -19 26 -16 29 3 3 -1 11 -10 17 -13 10 -13 15 0 41 23 48 29 107 13 129
-14 19 -15 20 -43 1 -24 -15 -27 -15 -15 -2 14 18 9 47 -9 47 -5 0 -10 -6 -10
-13 0 -9 -10 -12 -30 -9 -23 3 -28 7 -20 17 5 6 8 14 6 16 -3 2 -7 35 -10 71
-3 37 -11 77 -18 88 -9 15 -10 22 -1 31 18 18 43 3 49 -31 6 -25 11 -30 35
-30 33 0 42 16 60 102 9 39 8 58 -5 95 l-16 47 26 21 c21 17 26 28 22 48 -5
24 -2 27 22 27 31 0 103 49 120 81 7 11 9 32 6 45 -4 15 0 34 10 49 18 28 10
64 -24 113 -22 31 -47 101 -39 109 3 2 24 5 46 6 37 2 42 6 65 50 15 26 26 56
26 66 0 23 -74 91 -98 91 -10 0 -29 11 -42 25 l-23 25 18 98 18 98 -23 44
c-28 54 -37 182 -15 200 12 10 10 21 -12 64 l-25 52 25 38 c14 20 24 43 21 51
-3 8 20 46 51 86 85 106 137 124 274 95 35 -8 69 -12 76 -10 7 3 21 22 32 42
16 29 19 47 14 86 -6 50 -10 55 -68 76 -18 7 -33 18 -33 24 1 6 34 51 75 100
41 49 75 96 75 106 0 9 8 27 19 38 13 15 20 44 24 97 3 42 11 83 18 91 9 12 9
26 0 70 -7 31 -11 58 -8 61 3 2 29 8 59 12 29 5 74 18 101 29 41 19 47 25 47
52 0 16 -5 30 -11 30 -5 0 -9 -10 -7 -22 4 -31 -66 -66 -150 -74 -69 -8 -68
-7 -50 -83 9 -39 9 -57 -1 -77 -7 -15 -15 -57 -18 -93 -4 -41 -13 -75 -25 -90
-10 -13 -18 -31 -18 -39 0 -9 -36 -59 -80 -113 -44 -54 -80 -100 -80 -103 0
-9 77 -46 95 -46 9 0 15 -9 15 -24 0 -13 2 -36 5 -52 4 -21 -1 -37 -17 -56
l-23 -28 -86 16 c-126 24 -154 14 -252 -89 -63 -67 -76 -86 -72 -105 4 -17 -2
-35 -21 -59 l-27 -36 26 -52 c21 -43 23 -56 13 -64 -22 -19 -13 -148 14 -203
l24 -47 -19 -102 -19 -101 35 -29 c19 -16 41 -29 50 -29 18 0 79 -60 79 -78 0
-6 -9 -29 -20 -50 -19 -35 -26 -40 -66 -45 -25 -2 -48 -7 -51 -11 -10 -10 17
-89 48 -135 33 -51 35 -67 13 -99 -9 -13 -13 -31 -9 -42 4 -11 4 -28 1 -38 -9
-29 -67 -66 -111 -72 -39 -5 -40 -6 -37 -43 3 -32 0 -38 -22 -47 -31 -11 -31
-12 -10 -74 14 -41 15 -56 4 -105 -19 -88 -38 -103 -59 -45 -8 21 -22 39 -37
44 -13 5 -24 15 -24 21 0 8 -4 8 -13 1 -25 -21 -90 7 -80 34 3 9 -1 14 -12 14
-13 0 -16 6 -12 23 6 21 -3 73 -19 111 -6 16 -4 18 9 13 11 -4 20 0 26 11 14
26 -2 44 -35 40 -25 -3 -29 -8 -32 -36 -2 -21 3 -41 12 -51 12 -13 13 -20 4
-29 -9 -9 -14 -5 -22 21 -8 21 -18 33 -33 35 -26 4 -31 -13 -8 -22 17 -6 21
-36 5 -36 -15 0 -12 -14 8 -36 25 -26 34 -64 16 -64 -7 0 -16 -10 -19 -22 -6
-22 -73 -78 -93 -78 -5 0 -12 7 -16 15 -3 8 -12 15 -21 15 -8 0 -15 5 -15 10
0 6 -9 10 -20 10 -23 0 -27 -15 -5 -24 27 -10 16 -34 -22 -46 -49 -16 -62 -28
-43 -40 12 -8 12 -10 -2 -15 -9 -4 -24 -5 -33 -3 -24 4 -31 -19 -8 -25 14 -3
10 -7 -14 -17 -18 -6 -33 -18 -33 -25 0 -12 -103 -95 -119 -95 -4 0 -17 -9
-30 -21 -13 -12 -29 -18 -38 -15 -9 4 -23 0 -32 -7 -16 -14 -45 -23 -108 -34
-18 -3 -44 1 -61 10 -18 8 -35 11 -43 6 -9 -5 -22 0 -37 14 -22 20 -24 21 -33
4 -6 -9 -18 -17 -27 -17 -15 1 -15 2 2 15 10 8 16 20 13 28 -3 8 0 20 6 26 8
8 5 11 -10 11 -12 0 -23 -5 -25 -12 -6 -17 -117 26 -135 52 -7 10 -26 21 -41
25 -42 9 -66 55 -53 101 6 21 8 41 5 46 -3 4 0 8 5 8 6 0 11 -7 11 -16 0 -12
7 -14 28 -9 20 4 33 1 42 -10 17 -20 27 -19 33 4 3 14 20 23 61 32 31 7 60 17
63 22 9 14 -83 1 -119 -17 -15 -8 -26 -10 -23 -5 4 5 -1 12 -9 15 -20 8 -21
24 -1 24 8 0 15 6 15 14 0 8 17 24 38 36 36 22 36 23 14 31 -12 5 -30 6 -40 2
-9 -3 -2 8 17 26 19 17 41 31 48 31 7 0 13 5 13 10 0 6 -7 10 -15 10 -8 0 -15
7 -15 15 0 24 -17 17 -24 -9 -7 -29 -47 -39 -76 -19 -18 13 -21 12 -29 -9 -6
-15 -5 -28 3 -37 9 -12 6 -13 -21 -8 -25 5 -33 3 -33 -8 0 -8 -4 -15 -10 -15
-5 0 -10 9 -10 19 0 14 -5 18 -20 14 -26 -7 -37 21 -20 52 13 24 43 24 33 -1
-3 -8 1 -14 11 -14 8 0 18 11 22 25 7 27 20 33 26 13 4 -10 11 -10 33 0 23 11
26 15 14 23 -10 6 -7 9 12 9 15 0 37 9 50 21 l24 21 -25 -7 c-73 -19 -126 13
-60 36 17 6 30 18 30 26 0 8 14 20 30 26 17 6 30 18 30 25 0 8 -6 12 -15 8
-18 -7 -19 3 -2 24 16 21 77 63 82 58 3 -2 -1 -18 -7 -36 -7 -17 -9 -34 -6
-38 11 -10 28 6 28 26 0 32 47 70 85 70 19 0 35 5 35 10 0 6 -7 10 -15 10 -9
0 -12 6 -9 15 9 22 -20 19 -41 -5 -11 -12 -25 -18 -36 -15 -10 3 -26 2 -36 -4
-10 -5 -35 -17 -55 -25 -20 -9 -40 -25 -43 -36 -4 -11 -11 -17 -17 -14 -5 3
-22 -9 -37 -27 l-28 -33 -14 47 c-7 26 -16 47 -20 47 -4 0 -12 -13 -19 -29
-16 -40 -32 -44 -57 -15 -18 20 -19 27 -9 36 7 7 11 21 8 33 -5 19 -5 19 21 2
31 -20 58 -22 75 -5 16 16 16 95 0 101 -20 6 -48 -4 -48 -18 0 -6 -12 -17 -27
-24 -28 -13 -45 -5 -49 24 -3 20 13 19 24 -2 12 -20 44 -10 36 12 -3 8 -10 15
-15 15 -4 0 -6 7 -3 15 4 8 12 15 20 15 8 0 14 7 14 16 0 11 -6 14 -22 8 -13
-4 -26 -11 -29 -16 -8 -12 -49 -1 -49 13 0 5 5 9 10 9 6 0 10 7 10 15 0 8 -8
15 -17 15 -15 0 -15 2 -4 9 9 6 23 5 36 -1 16 -7 42 -6 93 6 95 21 134 21 151
-3 14 -19 15 -19 46 5 32 24 85 33 85 14 0 -5 7 -10 15 -10 8 0 15 -7 15 -16
0 -16 27 -43 43 -44 12 0 8 21 -8 36 -28 29 -12 40 46 35 9 -1 19 5 22 14 4 8
16 15 27 15 11 0 20 5 20 11 0 7 -11 9 -26 6 -35 -6 -42 17 -15 53 27 38 12
46 -23 13 -19 -18 -26 -32 -22 -47 8 -31 -36 -50 -83 -35 -20 7 -42 13 -49 15
-10 3 -9 10 4 29 9 14 14 28 10 32 -8 8 -53 -41 -61 -67 -6 -19 -43 -28 -58
-14 -16 17 -147 3 -174 -18 -14 -11 -53 11 -53 29 0 7 -12 13 -27 13 -20 0
-24 3 -16 11 6 6 23 12 37 12 15 0 29 3 32 8 3 5 22 9 42 9 31 1 34 3 21 13
-9 7 -14 18 -12 25 4 11 -16 16 -55 15 -10 -1 -10 2 -1 13 20 25 3 44 -41 44
-22 0 -40 5 -40 11 0 5 10 9 22 7 13 -2 23 2 23 9 0 6 12 21 27 32 32 25 78
28 78 5 0 -12 7 -14 30 -9 17 4 30 2 30 -3 0 -14 150 -8 160 7 5 8 16 11 30 6
16 -5 21 -4 18 6 -6 18 -45 24 -62 10 -14 -12 -118 -3 -127 10 -3 5 -39 10
-81 11 -42 2 -74 6 -71 11 2 4 12 7 22 7 10 0 24 7 31 15 11 13 10 18 -4 28
-14 10 -8 12 34 14 39 1 50 -2 50 -14 0 -9 6 -13 15 -9 8 3 15 1 15 -4 0 -6
21 -10 46 -10 27 0 43 4 39 10 -3 6 -17 10 -29 10 -13 0 -34 8 -47 19 -19 15
-21 21 -11 34 7 8 25 18 39 22 22 5 31 0 54 -26 32 -37 50 -33 25 5 -20 31
-21 47 -1 40 8 -4 15 -1 15 5 0 6 14 11 30 11 19 0 30 -5 30 -14 0 -7 7 -19
15 -26 11 -9 14 -22 9 -46 -6 -31 -4 -34 19 -34 14 0 29 5 32 10 3 6 -1 10 -9
10 -9 0 -16 9 -16 20 0 18 5 20 45 16 25 -2 45 0 45 5 0 12 -39 31 -50 24 -11
-7 -60 4 -58 14 2 21 -6 31 -40 47 -20 10 -55 21 -77 25 l-40 6 41 2 c22 0 45
6 52 13 8 8 15 8 27 -2 12 -10 18 -10 29 0 12 9 17 7 28 -9 15 -25 25 -27 30
-6 3 13 8 12 40 -4 30 -17 41 -18 67 -8 42 16 39 31 -5 24 -35 -6 -36 -6 -19
13 21 24 99 37 119 21 9 -8 16 -8 20 -2 4 5 -3 16 -15 24 -18 13 -28 13 -81 1
-45 -11 -63 -11 -68 -3 -5 7 -23 8 -54 4 -31 -5 -46 -4 -46 4 0 6 11 11 25 11
34 0 32 18 -2 22 -36 4 -35 19 1 37 25 12 31 11 58 -9 27 -20 31 -20 52 -6 15
9 27 11 33 5 6 -6 19 -6 36 0 28 11 39 3 51 -36 4 -13 15 -23 25 -23 10 0 24
-7 31 -15 14 -17 50 -20 50 -5 0 5 -18 19 -40 30 -22 11 -40 27 -40 35 0 9
-14 24 -31 34 -17 10 -26 22 -21 25 12 7 72 -44 72 -61 0 -12 5 -14 43 -17 6
-1 11 6 9 15 -1 10 7 20 20 24 22 7 22 7 3 12 -11 3 -24 9 -30 14 -5 5 -20 9
-33 9 -20 0 -21 2 -10 14 8 8 26 11 46 8 19 -2 32 0 32 6 0 6 16 14 35 18 19
3 35 11 35 16 0 6 -14 8 -34 4 -23 -4 -37 -2 -45 8 -10 12 -8 15 11 18 15 2
22 9 20 19 -2 12 5 17 20 16 13 0 30 2 38 4 9 2 16 -4 18 -18 4 -27 11 -28 38
-8 12 9 14 14 6 15 -24 0 -1 20 23 20 13 0 27 5 30 10 3 6 1 10 -6 10 -7 0 -5
8 6 20 25 27 53 25 65 -4 5 -13 15 -26 22 -29 10 -3 11 -8 1 -26 -7 -11 -13
-22 -13 -23 0 -2 22 -3 50 -3 52 0 68 15 28 26 -43 12 5 21 82 15 40 -2 79 -2
86 1 19 7 18 23 -1 23 -8 0 -15 5 -15 10 0 6 5 10 11 10 6 0 9 6 6 14 -7 17
12 36 36 36 10 0 31 6 45 14 15 8 35 17 44 20 39 12 -3 45 -46 37 -5 -1 -4 5
3 13 7 8 22 16 33 18 29 4 34 25 8 33 -11 3 -18 11 -15 16 4 5 -1 9 -9 9 -8 0
-20 -9 -26 -20 -6 -11 -17 -20 -24 -20 -7 0 -25 -9 -39 -20 -14 -11 -32 -20
-40 -20 -17 0 -32 -18 -23 -27 3 -3 19 0 36 7 17 7 33 10 36 7 9 -8 -15 -47
-29 -47 -7 0 -33 -11 -59 -25 -46 -25 -138 -59 -141 -53 -1 2 -8 14 -15 27
-12 20 -12 25 0 32 7 5 16 9 19 9 4 0 10 7 13 16 4 12 0 15 -22 13 -15 -1 -36
-1 -47 0 -17 1 -17 3 7 15 14 8 42 19 62 26 40 13 46 25 16 33 -23 6 -27 27
-5 27 9 0 19 8 22 18 9 22 78 92 92 92 6 0 11 5 11 10 0 7 6 7 19 0 27 -14 31
-13 31 10 0 11 5 20 10 20 6 0 14 9 18 21 8 20 8 19 22 -5 7 -14 22 -26 32
-26 10 0 18 -7 18 -15 0 -19 5 -19 35 1 14 9 25 22 25 30 0 7 11 16 25 20 30
7 31 15 6 31 -15 9 -21 9 -23 1 -5 -14 -28 -1 -28 15 0 13 45 37 67 37 7 0 13
9 13 20 0 23 34 43 72 42 32 -1 37 14 8 23 -11 3 -40 -3 -66 -15 -26 -11 -49
-18 -52 -15 -3 2 4 8 14 11 10 4 27 15 36 25 13 13 25 15 45 10 36 -9 137 31
180 72 32 30 36 62 5 34 -18 -16 -82 -12 -82 4 0 5 11 7 25 3 28 -7 35 10 9
20 -12 5 -13 10 -6 19 16 19 3 57 -19 57 -24 0 -33 18 -18 36 10 13 14 12 31
-6 19 -20 48 -27 48 -12 0 5 -9 17 -20 27 -20 18 -28 41 -11 30 5 -3 13 0 17
6 3 6 1 15 -7 19 -10 7 -10 11 1 25 15 18 54 13 81 -11 22 -19 29 -18 29 7 0
13 -8 23 -21 26 -16 5 -19 11 -14 30 5 23 4 24 -27 19 l-33 -5 35 10 c19 6 50
17 68 25 46 20 74 18 70 -3 -2 -14 3 -17 27 -15 17 1 37 5 45 8 13 4 13 6 0
14 -12 8 -11 10 5 10 25 0 82 44 68 53 -5 3 -21 0 -36 -8 -14 -7 -35 -11 -45
-8 -11 2 -23 0 -26 -6 -5 -7 -16 -4 -35 10 -21 15 -33 18 -52 11 -13 -5 -33
-6 -44 -1 -17 6 -17 8 -2 8 9 1 17 6 17 11 0 13 -10 12 -34 -2z m91 -44 c-3
-3 -12 -4 -19 -1 -8 3 -5 6 6 6 11 1 17 -2 13 -5z m-202 -64 c-3 -5 -11 -10
-16 -10 -6 0 -7 5 -4 10 3 6 11 10 16 10 6 0 7 -4 4 -10z m4 -61 c-22 -14 -33
-10 -19 6 7 8 17 12 22 9 6 -4 5 -10 -3 -15z m2387 -76 c-9 -9 -36 18 -36 35
0 12 5 11 21 -7 12 -12 18 -25 15 -28z m-2389 -99 c-3 -3 -12 -4 -19 -1 -8 3
-5 6 6 6 11 1 17 -2 13 -5z m-44 -41 c-9 -7 -20 -13 -25 -13 -15 0 -8 29 9 39
24 13 38 -10 16 -26z m-46 -35 c-3 -8 -6 -5 -6 6 -1 11 2 17 5 13 3 -3 4 -12
1 -19z m2193 2 c0 -5 -4 -10 -10 -10 -5 0 -10 5 -10 10 0 6 5 10 10 10 6 0 10
-4 10 -10z m-2136 -62 c7 -5 5 -8 -6 -8 -22 0 -32 17 -22 38 6 15 8 15 12 -3
2 -11 9 -23 16 -27z m46 32 c-20 -13 -33 -13 -25 0 3 6 14 10 23 10 15 0 15
-2 2 -10z m-94 -30 c0 -11 -6 -20 -13 -20 -15 0 -15 2 -7 24 9 22 20 20 20 -4z
m-236 -84 c0 -3 -4 -8 -10 -11 -5 -3 -10 -1 -10 4 0 6 5 11 10 11 6 0 10 -2
10 -4z m77 -56 c-48 -26 -61 -26 -22 0 17 11 37 20 45 20 8 0 -2 -9 -23 -20z
m-52 -287 c-11 -3 -30 -14 -41 -25 -15 -13 -24 -16 -29 -8 -4 6 -5 12 -4 14
17 11 58 25 74 24 l20 0 -20 -5z m-5 -73 c-14 -11 -36 -20 -49 -20 -23 0 -24
1 -6 20 11 12 31 20 49 20 l31 0 -25 -20z m-95 -40 c-3 -5 -13 -10 -21 -10
-21 0 -28 -25 -14 -50 11 -21 10 -21 -65 -18 -66 3 -79 0 -91 -16 -14 -20 -14
-20 -14 0 0 16 11 24 43 33 43 13 82 31 127 56 29 17 44 19 35 5z m-255 -10
c0 -5 -7 -7 -15 -4 -8 4 -15 8 -15 10 0 2 7 4 15 4 8 0 15 -4 15 -10z m-190
-20 c0 -5 8 -10 17 -10 32 0 6 -9 -71 -25 -43 -9 -80 -14 -83 -11 -10 10 9 26
30 26 12 0 31 7 41 15 22 17 66 20 66 5z m97 -36 c-3 -3 -12 -4 -19 -1 -8 3
-5 6 6 6 11 1 17 -2 13 -5z m-201 -107 c4 -4 -2 -7 -14 -7 -11 0 -23 4 -26 8
-6 10 30 9 40 -1z m-86 -7 c0 -5 -7 -10 -16 -10 -8 0 -12 5 -9 10 3 6 10 10
16 10 5 0 9 -4 9 -10z m-140 -70 c0 -5 -2 -10 -4 -10 -3 0 -8 5 -11 10 -3 6
-1 10 4 10 6 0 11 -4 11 -10z m80 0 c0 -5 -5 -10 -11 -10 -5 0 -7 5 -4 10 3 6
8 10 11 10 2 0 4 -4 4 -10z m-116 -116 c4 -9 5 -18 4 -20 -2 -1 -27 2 -55 8
-62 12 -61 28 2 28 30 0 45 -5 49 -16z m-329 -124 c-5 -8 -11 -8 -17 -2 -6 6
-7 16 -3 22 5 8 11 8 17 2 6 -6 7 -16 3 -22z m46 12 c-7 -2 -18 1 -23 6 -8 8
-4 9 13 5 13 -4 18 -8 10 -11z m-96 -42 c3 -5 -1 -10 -9 -10 -8 0 -18 5 -21
10 -3 6 1 10 9 10 8 0 18 -4 21 -10z m42 -6 c-3 -3 -12 -4 -19 -1 -8 3 -5 6 6
6 11 1 17 -2 13 -5z m-162 -24 c3 -5 1 -10 -4 -10 -6 0 -11 5 -11 10 0 6 2 10
4 10 3 0 8 -4 11 -10z m-45 -110 c12 -8 11 -10 -7 -10 -13 0 -23 5 -23 10 0
13 11 13 30 0z m90 -159 c-8 -5 -32 -11 -52 -14 -29 -4 -36 -3 -31 9 3 9 20
14 52 14 30 -1 41 -4 31 -9z m-110 -101 c0 -5 -2 -10 -4 -10 -3 0 -8 5 -11 10
-3 6 -1 10 4 10 6 0 11 -4 11 -10z m100 -20 c8 -5 11 -10 5 -10 -5 0 -17 5
-25 10 -8 5 -10 10 -5 10 6 0 17 -5 25 -10z m65 -167 c-9 -39 -21 -49 -40 -33
-14 12 -13 16 12 36 36 30 37 29 28 -3z m150 -83 c-3 -5 -11 -10 -16 -10 -6 0
-7 5 -4 10 3 6 11 10 16 10 6 0 7 -4 4 -10z m3750 -40 c19 -8 19 -9 -2 -9 -12
-1 -25 4 -28 9 -7 12 2 12 30 0z m-3822 -64 c-10 -14 -21 -26 -24 -26 -11 0 3
55 20 74 16 18 16 18 19 -3 2 -11 -5 -32 -15 -45z m3897 38 c0 -21 -20 -38
-47 -42 -19 -3 -23 2 -23 22 0 24 12 32 53 35 9 0 17 -6 17 -15z m-3986 -59
c-7 -17 -20 -20 -28 -6 -7 10 3 21 20 21 8 0 11 -6 8 -15z m32 -21 c-20 -19
-20 -28 -2 -44 20 -16 9 -40 -19 -40 -26 0 -52 25 -36 34 6 4 8 13 4 21 -3 10
1 15 11 15 9 0 19 7 22 15 4 8 13 15 21 15 12 0 12 -2 -1 -16z m-66 -30 c0 -8
-6 -14 -14 -14 -16 0 -29 27 -20 41 8 13 34 -9 34 -27z m1190 -1 c0 -5 -5 -15
-10 -23 -8 -12 -10 -11 -10 8 0 12 5 22 10 22 6 0 10 -3 10 -7z m-1245 -13 c3
-5 1 -10 -4 -10 -6 0 -11 5 -11 10 0 6 2 10 4 10 3 0 8 -4 11 -10z m4747 -84
c18 12 112 8 153 -6 19 -6 39 -9 45 -5 6 4 25 -3 43 -14 27 -16 56 -21 172
-25 77 -3 142 -6 145 -6 3 0 -9 -7 -27 -15 -24 -10 -35 -24 -44 -55 -11 -37
-62 -100 -80 -100 -17 0 -20 -63 -5 -114 11 -38 13 -62 7 -79 -7 -18 -5 -32 8
-53 9 -16 22 -46 28 -67 11 -36 10 -39 -13 -47 -13 -5 -24 -16 -24 -25 0 -8
-5 -15 -10 -15 -6 0 -15 -11 -20 -25 -11 -29 -39 -33 -75 -9 -23 15 -28 15
-59 0 -19 -9 -43 -16 -54 -16 -23 0 -110 69 -111 88 -1 6 -9 12 -19 12 -10 0
-27 7 -39 15 -12 9 -26 14 -30 13 -4 -1 -26 9 -48 23 -42 28 -63 30 -111 12
-16 -6 -49 -17 -74 -24 -25 -7 -51 -17 -57 -22 -18 -13 -17 5 2 29 8 10 15 34
15 52 0 17 5 32 10 32 21 0 9 41 -15 52 -22 10 -28 8 -49 -15 -29 -31 -34 -32
-60 -12 -11 8 -28 15 -38 15 -11 0 -20 10 -24 28 -4 15 -16 33 -26 40 -10 7
-18 22 -18 33 0 15 7 19 35 19 26 0 33 3 29 15 -4 8 -18 15 -33 15 -15 0 -31
8 -38 19 -11 17 -9 20 10 23 32 4 29 34 -3 30 -15 -2 -20 0 -14 5 7 4 14 19
15 32 4 26 35 40 97 43 19 1 32 7 32 15 0 7 5 13 10 13 6 0 20 8 31 19 15 14
30 17 69 13 36 -3 51 -1 55 9 4 10 21 13 58 11 78 -3 120 6 113 25 -5 13 -4
14 8 4 9 -7 21 -9 28 -5z m-1686 -42 c-9 -9 -20 -14 -23 -10 -4 3 2 13 13 20
25 18 31 12 10 -10z m29 -24 c3 -5 1 -10 -4 -10 -6 0 -11 5 -11 10 0 6 2 10 4
10 3 0 8 -4 11 -10z m-3075 -46 c0 -8 -4 -14 -10 -14 -5 0 -10 9 -10 21 0 11
5 17 10 14 6 -3 10 -13 10 -21z m1500 -354 c0 -16 -7 -20 -35 -20 -42 0 -44 5
-7 24 36 20 42 20 42 -4z m-35 -60 c3 -5 1 -10 -4 -10 -6 0 -11 5 -11 10 0 6
2 10 4 10 3 0 8 -4 11 -10z m3140 -7 c11 -14 16 -15 28 -5 13 11 19 11 36 0
12 -7 21 -16 21 -20 0 -5 9 -8 19 -8 11 0 23 -4 26 -10 3 -5 15 -10 26 -10 11
0 38 -20 62 -44 23 -24 53 -49 66 -56 24 -12 86 -6 107 11 7 6 25 3 47 -6 20
-8 50 -15 67 -15 20 0 30 -5 30 -15 0 -8 18 -25 40 -37 44 -26 47 -33 23 -60
-9 -10 -17 -30 -18 -46 -2 -15 -6 -38 -10 -51 -8 -22 -6 -23 25 -16 30 7 32 6
27 -14 -3 -14 0 -24 9 -28 8 -3 14 -11 14 -18 0 -8 6 -20 14 -28 14 -13 36
-78 36 -104 0 -7 -15 -19 -33 -26 -18 -8 -51 -35 -74 -61 l-40 -46 -64 5 c-57
5 -65 3 -89 -20 -17 -16 -39 -26 -61 -27 -37 -1 -79 16 -79 32 0 6 -29 31 -65
57 -36 26 -65 50 -65 55 0 4 -15 8 -32 8 -80 0 -105 11 -128 52 -19 35 -25 39
-49 33 -14 -4 -35 -15 -46 -25 -15 -14 -34 -18 -75 -16 -30 1 -60 5 -66 9 -19
12 -186 18 -199 7 -8 -7 -18 -4 -30 10 -13 15 -22 17 -36 10 -11 -6 -48 -7
-96 -2 -66 8 -88 6 -138 -11 -88 -28 -142 -54 -148 -71 -4 -9 -10 -16 -15 -16
-16 0 -35 58 -27 82 3 13 9 52 11 88 2 36 9 67 15 68 5 2 22 15 38 28 22 18
30 36 35 75 9 66 58 139 93 139 13 0 50 11 83 25 71 30 76 30 83 6 2 -11 33
-40 68 -66 46 -34 66 -56 72 -78 10 -38 34 -67 56 -67 9 0 24 -7 34 -14 34
-26 138 14 190 72 16 18 17 28 9 94 -6 40 -13 83 -17 96 -5 16 -3 22 8 22 8 0
17 5 19 10 2 6 30 18 63 26 33 9 64 20 70 25 13 12 16 12 30 -8z m-3412 -123
c-3 -11 -2 -28 3 -37 12 -27 13 -86 2 -100 -24 -29 -48 -90 -48 -119 0 -26 -5
-33 -31 -40 -47 -14 -40 -29 11 -26 44 3 44 3 23 -13 -13 -9 -23 -25 -23 -36
0 -26 16 -24 23 2 4 14 10 18 19 13 7 -5 38 -11 68 -14 51 -5 55 -7 58 -32 3
-27 -32 -63 -50 -52 -5 3 -16 0 -24 -7 -13 -11 -15 -10 -12 6 5 26 -15 29 -45
5 -23 -18 -27 -29 -27 -71 0 -45 -2 -49 -24 -49 -31 0 -56 -10 -56 -21 0 -5 7
-9 16 -9 31 0 6 -25 -27 -27 -19 -1 -38 -2 -43 -2 -5 -1 -1 -10 9 -21 17 -19
17 -20 -9 -29 -25 -10 -36 -31 -17 -31 5 0 7 -8 4 -19 -3 -10 0 -22 6 -25 16
-10 13 -36 -3 -36 -17 0 -21 -5 -30 -44 -6 -25 -5 -28 12 -24 22 6 52 -8 52
-24 0 -5 -7 -8 -15 -4 -8 3 -30 -4 -48 -14 -32 -19 -36 -19 -67 -4 -18 9 -50
17 -71 18 l-38 1 0 67 c0 88 -6 105 -41 113 -15 3 -31 13 -34 22 -4 10 -14 13
-30 9 -24 -6 -24 -5 -13 32 11 35 16 43 45 60 17 11 -11 79 -34 84 -15 3 -17
14 -15 78 1 41 4 76 5 77 7 7 82 -21 92 -35 17 -23 44 -8 44 25 0 28 34 73 56
73 22 0 27 -21 9 -40 -20 -23 -11 -47 11 -29 11 9 19 8 34 -6 11 -10 20 -14
21 -9 3 24 -4 60 -13 65 -6 4 -12 21 -14 38 -4 37 23 56 67 47 15 -3 31 -1 34
4 3 6 17 10 30 10 13 0 27 5 30 10 12 20 -29 23 -94 7 -39 -9 -70 -12 -77 -7
-21 18 -112 -21 -145 -62 -30 -39 -31 -40 -12 -60 l18 -21 -27 17 c-46 30 -46
46 3 103 27 32 71 44 152 43 49 -1 99 23 119 58 31 52 74 92 99 92 13 0 38 9
54 19 17 11 31 20 32 20 0 1 -1 -8 -4 -19z m-292 -221 c-2 -8 -4 -21 -3 -30 0
-11 -10 -15 -34 -16 -29 -1 -33 1 -23 13 6 7 9 20 6 28 -4 10 2 16 16 19 31 6
43 2 38 -14z m-81 -43 c0 -18 -27 -39 -40 -31 -7 4 -7 12 0 26 12 22 40 26 40
5z m-25 -104 c-11 -11 -27 17 -20 35 6 16 8 16 16 -6 5 -13 7 -26 4 -29z
m3173 -52 c52 -7 80 -6 95 1 16 9 23 8 33 -6 10 -13 20 -16 41 -10 15 5 32 7
36 6 5 -1 40 -4 78 -6 39 -3 78 -9 87 -14 25 -14 120 -6 140 12 38 33 57 30
86 -13 21 -32 33 -40 59 -41 69 -3 89 -9 123 -38 19 -17 38 -31 43 -31 5 0 26
-18 47 -40 21 -22 51 -42 66 -45 28 -7 36 -23 19 -41 -5 -5 -13 -26 -16 -46
-7 -37 -7 -38 24 -38 29 0 30 -2 19 -20 -10 -15 -24 -20 -55 -20 -36 0 -44 -4
-55 -27 -9 -19 -22 -29 -42 -31 -16 -2 -35 -9 -42 -16 -15 -16 -34 -83 -28
-100 3 -7 -2 -19 -11 -26 -8 -7 -15 -18 -15 -24 0 -22 -40 -56 -65 -56 -14 0
-29 -8 -35 -21 -9 -16 -18 -19 -39 -14 -32 7 -57 -15 -47 -41 5 -12 2 -15 -10
-10 -9 4 -32 -3 -51 -14 -27 -16 -38 -18 -55 -9 -11 6 -53 9 -97 7 -75 -3 -76
-3 -73 21 4 24 -41 81 -64 81 -6 0 -23 9 -38 21 -14 11 -38 22 -53 24 -26 2
-28 6 -26 44 1 23 9 48 17 57 24 23 20 35 -25 77 -38 36 -44 38 -94 36 -30 -2
-58 0 -62 4 -3 4 -13 7 -21 7 -15 0 -76 25 -102 41 -8 5 -23 12 -32 15 -10 4
-18 9 -19 13 -4 44 -11 67 -28 107 -25 56 -28 124 -6 124 8 0 19 9 25 19 10
20 60 46 140 74 55 19 41 18 128 7z m-2310 -91 c27 -9 30 -14 22 -29 -7 -12
-7 -28 0 -45 13 -33 3 -51 -41 -73 -45 -22 -54 -68 -15 -78 40 -10 31 -30 -19
-44 -50 -14 -65 -27 -41 -36 9 -3 16 -15 16 -26 0 -17 -4 -19 -27 -13 -28 7
-45 23 -37 36 7 13 -21 26 -69 33 -55 7 -72 20 -74 56 -1 32 -6 51 -17 69 -9
13 8 31 30 31 15 0 64 46 64 60 0 5 5 10 10 10 9 0 14 -14 11 -33 -1 -4 10
-20 23 -34 l25 -26 6 26 c4 15 14 27 22 27 11 0 13 -7 9 -25 -5 -18 -2 -25 8
-25 25 0 25 44 1 102 -5 12 1 21 22 32 34 19 33 18 71 5z m-951 -52 c-2 -6 -8
-12 -13 -14 -13 -4 -33 38 -26 56 4 11 9 9 24 -9 10 -13 17 -28 15 -33z m481
-135 c3 -19 8 -23 25 -18 32 8 57 -20 57 -66 0 -33 -4 -40 -27 -49 -34 -13
-86 -4 -104 17 -7 9 -24 20 -36 25 -13 5 -28 21 -33 36 -6 16 -14 35 -19 44
-8 13 -6 16 7 12 10 -2 33 3 52 11 47 21 74 17 78 -12z m2498 -26 c-5 -24 -3
-35 6 -38 10 -4 10 -8 -1 -21 -9 -11 -12 -31 -8 -57 5 -36 3 -39 -23 -45 -16
-4 -38 -2 -49 4 -11 6 -28 11 -39 11 -15 0 -7 12 33 53 29 29 58 69 64 90 16
46 25 48 17 3z m53 -69 c9 -7 41 -21 71 -31 30 -10 59 -22 64 -27 4 -4 33 -5
62 -2 49 5 56 3 80 -21 15 -14 31 -26 35 -26 14 0 10 -22 -8 -42 -10 -12 -17
-37 -17 -68 -1 -49 -2 -50 -31 -50 -107 -1 -645 25 -645 31 0 4 5 11 10 14 19
12 51 86 45 105 -4 14 0 19 22 24 32 6 108 2 170 -8 24 -4 57 -5 74 -1 29 7
31 9 27 49 -2 22 1 46 6 53 14 16 16 16 35 0z m-2651 -90 c2 -12 -1 -15 -12
-11 -19 7 -22 38 -3 32 6 -3 13 -12 15 -21z m329 -24 c36 -21 47 -23 53 -13 7
11 11 11 24 1 28 -23 18 -39 -26 -43 -55 -5 -115 19 -121 49 -8 41 8 43 70 6z
m163 -3 c0 -4 -8 -14 -19 -24 -17 -16 -19 -15 -35 8 -24 38 -20 45 19 33 19
-6 35 -13 35 -17z m308 -116 c42 -21 47 -31 17 -38 -14 -4 -25 -11 -25 -16 0
-13 -37 -13 -45 0 -3 6 -1 10 4 10 6 0 11 14 11 30 0 35 -2 34 38 14z m-513
-4 c3 -5 -1 -10 -9 -10 -8 0 -18 5 -21 10 -3 6 1 10 9 10 8 0 18 -4 21 -10z
m3361 -71 c3 -6 0 -15 -7 -20 -22 -14 -29 -11 -29 11 0 21 24 27 36 9z m-2682
-98 c3 -5 -5 -11 -19 -13 -28 -6 -35 8 -7 15 9 3 18 5 19 6 1 0 4 -3 7 -8z
m66 -15 c0 -9 -30 -14 -35 -6 -4 6 3 10 14 10 12 0 21 -2 21 -4z m30 -31 c-1
-28 -16 -36 -46 -24 -16 7 -40 14 -53 15 -13 2 -29 8 -34 13 -7 7 13 10 61 8
40 -1 72 -6 72 -12z"/>
<path d="M7307 4473 c-12 -11 -8 -23 8 -23 8 0 15 7 15 15 0 16 -12 20 -23 8z"/>
<path d="M2535 4450 c-4 -7 -3 -16 3 -22 14 -14 45 -2 40 15 -6 16 -34 21 -43
7z"/>
<path d="M2328 4229 c-25 -14 -22 -36 4 -42 24 -7 40 8 35 32 -3 19 -18 23
-39 10z m22 -19 c0 -5 -7 -10 -16 -10 -8 0 -12 5 -9 10 3 6 10 10 16 10 5 0 9
-4 9 -10z"/>
<path d="M4805 4180 c-3 -5 1 -10 9 -10 9 0 16 5 16 10 0 6 -4 10 -9 10 -6 0
-13 -4 -16 -10z"/>
<path d="M2257 4003 c-12 -11 -7 -33 7 -33 8 0 24 9 37 20 l24 19 -31 1 c-17
0 -34 -3 -37 -7z"/>
<path d="M5280 3985 c-16 -19 3 -45 31 -45 11 0 19 7 19 15 0 9 9 15 25 15 28
0 34 15 9 24 -28 11 -71 6 -84 -9z m36 -10 c-11 -8 -22 -12 -25 -9 -6 6 19 24
34 24 6 -1 1 -7 -9 -15z"/>
<path d="M1602 3517 c-7 -8 -33 -20 -57 -26 -57 -14 -58 -31 -2 -30 83 2 109
19 84 53 -11 16 -15 16 -25 3z m18 -27 c0 -5 -10 -10 -22 -9 -22 0 -22 1 -3 9
11 5 21 9 23 9 1 1 2 -3 2 -9z"/>
<path d="M4410 3495 c0 -16 6 -25 15 -25 9 0 15 9 15 25 0 16 -6 25 -15 25 -9
0 -15 -9 -15 -25z"/>
<path d="M1408 3388 c-36 -13 -35 -24 2 -43 36 -19 45 -19 64 0 13 13 13 20 3
35 -13 22 -28 24 -69 8z m55 -13 c8 -19 -2 -24 -36 -18 l-28 6 23 12 c31 17
35 17 41 0z"/>
<path d="M4486 3223 c-11 -11 -6 -23 9 -23 8 0 15 4 15 9 0 13 -16 22 -24 14z"/>
<path d="M6695 2758 c-14 -18 -33 -41 -40 -50 -11 -13 -23 -16 -45 -12 -26 6
-30 4 -30 -15 0 -11 -8 -33 -18 -49 -14 -24 -20 -27 -34 -18 -20 12 -27 8 -30
-24 -2 -18 6 -29 37 -46 54 -31 95 -66 95 -81 0 -7 5 -13 11 -13 6 0 10 -10 9
-22 -4 -44 0 -55 25 -66 13 -6 27 -22 31 -36 3 -13 12 -27 19 -29 7 -3 16 -18
19 -34 4 -15 15 -36 23 -46 9 -9 17 -34 18 -55 1 -37 1 -37 45 -38 69 -3 83 4
77 34 -3 17 2 37 15 55 17 24 24 27 56 21 21 -3 47 -12 59 -20 46 -29 113 -5
113 40 0 12 5 27 12 34 8 8 8 15 -2 27 -7 8 -11 18 -8 20 3 3 11 -1 18 -10 11
-14 16 -11 36 19 29 42 29 48 4 64 -11 6 -17 18 -14 26 3 8 -8 29 -24 47 -16
19 -32 43 -36 55 -4 13 -36 34 -94 61 -60 29 -103 57 -137 92 -41 42 -54 49
-82 47 -21 -1 -33 2 -33 10 0 10 -51 44 -66 44 -1 0 -14 -15 -29 -32z m82 -18
c4 -16 14 -20 43 -20 44 0 61 -17 69 -68 6 -35 9 -37 43 -38 20 -1 70 -16 111
-34 65 -28 76 -37 92 -72 9 -22 23 -42 31 -45 8 -3 14 -17 14 -30 0 -14 7 -31
16 -38 13 -9 14 -16 5 -33 -9 -17 -17 -20 -43 -15 -27 5 -30 4 -25 -10 4 -10
10 -24 13 -32 3 -8 1 -15 -6 -15 -8 0 -10 -9 -6 -24 11 -44 -50 -67 -94 -35
-39 30 -106 23 -133 -13 -11 -15 -20 -39 -21 -55 -1 -16 -6 -28 -13 -27 -7 1
-25 2 -40 3 -25 1 -28 5 -30 38 -1 21 -7 39 -13 41 -6 2 -22 28 -34 56 -13 29
-39 68 -59 87 -36 35 -41 63 -15 96 5 7 5 14 -1 17 -5 4 -12 2 -15 -3 -4 -5
-24 8 -46 30 -21 21 -44 39 -49 39 -6 0 -15 9 -21 20 -12 23 6 50 35 50 12 0
15 6 10 20 -5 17 2 24 44 43 30 13 50 28 48 36 -1 9 11 18 31 23 17 5 32 13
32 18 0 18 22 10 27 -10z"/>
<path d="M6747 2653 c-12 -11 -8 -23 8 -23 8 0 15 7 15 15 0 16 -12 20 -23 8z"/>
<path d="M660 2521 c0 -12 6 -21 16 -21 9 0 14 7 12 17 -5 25 -28 28 -28 4z"/>
<path d="M690 2376 c0 -9 7 -16 16 -16 17 0 14 22 -4 28 -7 2 -12 -3 -12 -12z"/>
<path d="M4174 2295 c-4 -8 -1 -22 5 -29 8 -10 9 -16 1 -21 -5 -3 -10 -1 -10
4 0 20 -49 12 -60 -9 -13 -24 -4 -44 15 -36 8 3 19 -2 25 -10 7 -8 24 -14 38
-14 14 0 33 -7 43 -16 18 -17 55 -12 45 5 -4 5 0 11 6 14 10 3 10 9 1 24 -9
16 -9 23 0 32 9 10 7 17 -12 32 -13 10 -31 19 -42 19 -10 0 -21 5 -24 10 -9
15 -25 12 -31 -5z m85 -39 c20 -24 -8 -31 -30 -7 -19 21 -19 21 -1 21 11 0 25
-6 31 -14z m-52 -20 c-3 -7 0 -19 6 -25 8 -8 3 -11 -20 -11 -23 0 -32 5 -36
21 -4 16 -3 18 7 9 10 -7 17 -6 26 5 16 19 24 19 17 1z m53 -32 c0 -2 -7 -4
-15 -4 -8 0 -15 4 -15 10 0 5 7 7 15 4 8 -4 15 -8 15 -10z"/>
<path d="M4385 2280 c-3 -5 -1 -10 4 -10 6 0 11 -10 11 -22 0 -14 3 -19 10
-12 10 10 2 54 -11 54 -4 0 -11 -4 -14 -10z"/>
<path d="M4300 2240 c0 -11 4 -20 9 -20 11 0 22 26 14 34 -12 12 -23 5 -23
-14z"/>
<path d="M4520 2226 c0 -9 7 -16 16 -16 17 0 14 22 -4 28 -7 2 -12 -3 -12 -12z"/>
<path d="M4685 2234 c-5 -1 -36 -5 -67 -9 -40 -4 -58 -11 -58 -20 0 -19 66
-17 81 2 9 10 15 11 26 1 11 -9 17 -8 29 4 16 15 9 28 -11 22z"/>
<path d="M5827 2194 c-8 -8 3 -34 14 -34 11 0 12 27 0 34 -4 3 -11 3 -14 0z"/>
<path d="M4330 2171 c0 -11 26 -22 34 -14 12 12 5 23 -14 23 -11 0 -20 -4 -20
-9z"/>
<path d="M4285 2159 c-4 -6 -4 -13 -1 -16 8 -8 36 5 36 17 0 13 -27 13 -35 -1z"/>
<path d="M6020 2160 c0 -5 7 -10 15 -10 8 0 15 5 15 10 0 6 -7 10 -15 10 -8 0
-15 -4 -15 -10z"/>
<path d="M3955 2031 c-10 -17 12 -21 25 -6 10 12 10 15 -3 15 -9 0 -18 -4 -22
-9z"/>
<path d="M5257 2023 c-3 -5 -2 -15 2 -22 7 -10 10 -10 16 -1 4 6 3 16 -3 22
-5 5 -12 6 -15 1z"/>
<path d="M3950 1960 c0 -5 4 -10 9 -10 6 0 13 5 16 10 3 6 -1 10 -9 10 -9 0
-16 -4 -16 -10z"/>
<path d="M876 1862 c-3 -5 6 -14 19 -20 16 -8 26 -8 31 -1 7 12 5 15 -23 23
-12 4 -24 3 -27 -2z"/>
<path d="M4800 1830 c-10 -15 -26 -20 -57 -20 -44 0 -65 -16 -42 -31 8 -5 26
-9 41 -9 22 0 31 -8 47 -40 l19 -40 -26 -6 c-15 -4 -33 -11 -39 -17 -7 -5 -13
-6 -13 -2 0 5 -8 1 -18 -8 -14 -13 -21 -14 -30 -5 -19 19 -39 -6 -23 -26 11
-13 10 -18 -3 -31 -23 -23 -21 -28 19 -49 41 -22 42 -27 15 -51 -22 -20 -23
-24 -11 -44 14 -22 58 11 66 49 8 35 34 53 74 49 26 -3 121 47 121 64 0 4 14
7 31 7 23 0 30 4 26 14 -3 8 -1 16 6 19 9 3 9 10 0 30 -14 29 -52 37 -71 15
-9 -11 -40 -14 -101 -9 -11 1 -8 8 8 25 13 14 29 22 36 20 7 -3 15 2 18 10 4
9 13 13 22 10 8 -3 15 -1 15 5 0 23 -33 61 -51 61 -11 0 -22 7 -25 15 -9 21
-37 19 -54 -5z m44 -5 c3 -8 14 -15 25 -15 11 0 25 -9 31 -20 9 -16 8 -20 -5
-20 -8 0 -15 -4 -15 -10 0 -5 -6 -7 -14 -4 -8 3 -19 -3 -26 -15 -16 -30 -34
-26 -50 12 -7 17 -15 35 -18 40 -2 4 3 7 12 7 9 0 21 9 28 20 15 24 24 25 32
5z m141 -136 c10 -15 -1 -23 -20 -15 -9 3 -13 10 -10 16 8 13 22 13 30 -1z
m-58 -27 c19 -10 21 -16 12 -30 -15 -24 -90 -67 -112 -63 -23 3 -87 -18 -87
-29 0 -12 -29 -1 -52 19 -12 11 -14 18 -7 27 7 9 7 20 -2 36 -11 20 -10 21 3
11 12 -11 21 -10 47 3 17 8 31 19 31 24 0 19 133 20 167 2z m-207 -182 c-11
-20 -30 -28 -30 -12 0 11 22 32 32 32 5 0 4 -9 -2 -20z"/>
<path d="M4030 1604 c0 -8 9 -14 20 -14 11 0 20 4 20 9 0 5 -9 11 -20 14 -13
3 -20 0 -20 -9z"/>
<path d="M5130 1515 c0 -9 6 -12 15 -9 8 4 15 10 15 15 0 5 -7 9 -15 9 -8 0
-15 -7 -15 -15z"/>
<path d="M4001 1466 c-7 -8 -26 -13 -44 -12 -44 3 -79 -19 -133 -82 -41 -47
-46 -58 -41 -88 3 -18 1 -36 -4 -39 -5 -4 -2 -19 7 -37 10 -20 14 -42 9 -64
-3 -20 -2 -34 4 -34 24 0 41 14 41 35 0 23 45 65 69 65 6 0 16 12 21 26 6 14
19 28 30 31 25 7 26 20 1 28 -14 4 -18 13 -15 38 1 18 3 35 3 40 1 4 8 7 16 7
8 0 15 5 15 10 0 6 11 16 25 22 14 6 25 17 25 25 0 7 7 13 15 13 8 0 15 6 15
13 0 18 -45 20 -59 3z m-69 -37 c3 -9 9 -9 25 0 35 18 37 -6 2 -31 -29 -22
-31 -26 -27 -76 4 -44 2 -55 -14 -63 -10 -6 -16 -14 -13 -19 3 -5 -5 -14 -17
-21 -13 -6 -32 -20 -44 -31 -21 -19 -21 -19 -37 14 -9 19 -12 38 -7 47 4 8 3
25 -2 37 -9 19 -4 30 33 73 24 28 50 51 57 51 7 0 15 7 18 15 7 18 21 20 26 4z
m-102 -289 c0 -5 -4 -10 -10 -10 -5 0 -10 5 -10 10 0 6 5 10 10 10 6 0 10 -4
10 -10z"/>
<path d="M3523 1258 c-5 -7 -20 -39 -33 -71 -12 -32 -30 -63 -40 -70 -35 -25
-70 -113 -70 -177 0 -52 3 -61 17 -58 11 2 26 30 44 83 16 44 34 94 42 110 50
104 78 176 72 185 -8 14 -21 13 -32 -2z m-2 -55 c-12 -20 -14 -14 -5 12 4 9 9
14 11 11 3 -2 0 -13 -6 -23z m-32 -80 c-6 -15 -14 -32 -18 -38 -5 -5 -21 -48
-37 -95 l-28 -85 -9 39 c-8 32 -6 46 14 88 13 27 31 55 40 61 9 7 21 22 28 35
16 31 23 28 10 -5z"/>
<path d="M2123 1250 c-28 -11 -29 -21 -3 -37 16 -11 23 -9 44 11 36 33 13 48
-41 26z m17 -20 c0 -5 -2 -10 -4 -10 -3 0 -8 5 -11 10 -3 6 -1 10 4 10 6 0 11
-4 11 -10z"/>
<path d="M2257 1053 c-12 -11 -8 -23 8 -23 8 0 15 7 15 15 0 16 -12 20 -23 8z"/>
<path d="M2022 775 c0 -31 4 -45 13 -45 20 0 27 34 14 64 -18 38 -26 32 -27
-19z"/>
<path d="M2997 583 c-3 -5 -7 -21 -8 -38 -4 -26 1 -32 31 -47 50 -24 67 -22
74 8 8 31 5 34 -47 63 -42 24 -44 24 -50 14z m55 -36 c27 -16 35 -26 28 -36
-6 -11 -16 -12 -42 -5 -26 8 -34 16 -36 37 -4 33 2 33 50 4z"/>
<path d="M2101 528 c-6 -13 -22 -38 -36 -57 -19 -26 -22 -37 -14 -52 5 -11 13
-19 18 -19 9 0 61 117 61 138 0 19 -16 14 -29 -10z m-29 -100 c-7 -7 -12 -8
-12 -2 0 14 12 26 19 19 2 -3 -1 -11 -7 -17z"/>
<path d="M1946 483 c-3 -4 4 -17 16 -30 23 -25 58 -31 58 -10 -1 14 -65 49
-74 40z"/>
<path d="M1521 401 c-13 -10 -21 -23 -17 -30 10 -15 26 -14 26 2 0 8 10 13 23
13 13 -1 22 5 22 14 0 22 -27 22 -54 1z"/>
<path d="M1575 341 c-3 -5 -1 -12 5 -16 12 -7 30 2 30 16 0 12 -27 12 -35 0z"/>
<path d="M1143 53 c-18 -6 -16 -23 1 -23 17 0 30 16 19 23 -5 2 -14 2 -20 0z"/>
<path d="M1005 10 c-3 -6 5 -10 19 -10 14 0 28 5 31 10 3 6 -5 10 -19 10 -14
0 -28 -4 -31 -10z"/>
<path d="M913 3 c9 -2 25 -2 35 0 9 3 1 5 -18 5 -19 0 -27 -2 -17 -5z"/>
</g>
</svg>
