<?xml version="1.0" standalone="no"?>
<!DOCTYPE svg PUBLIC "-//W3C//DTD SVG 20010904//EN"
 "http://www.w3.org/TR/2001/REC-SVG-20010904/DTD/svg10.dtd">
<svg version="1.0" xmlns="http://www.w3.org/2000/svg"
 width="861.000000pt" height="438.000000pt" viewBox="0 0 861.000000 438.000000"
 preserveAspectRatio="xMidYMid meet">

<g transform="translate(0.000000,438.000000) scale(0.100000,-0.100000)"
fill="#000000" stroke="none">
<path d="M1655 4370 c-3 -6 -17 -7 -30 -4 -14 3 -34 -1 -49 -12 -25 -15 -25
-18 -11 -34 15 -16 6 -38 -9 -23 -12 12 -106 11 -106 -2 0 -7 -9 -10 -24 -8
-18 4 -25 0 -29 -18 -5 -19 -8 -20 -21 -9 -24 19 -130 -25 -123 -51 4 -15 0
-19 -19 -19 -17 0 -24 -6 -24 -19 0 -11 6 -21 13 -24 12 -5 6 -8 -39 -22 -9
-3 -14 -14 -12 -27 3 -21 0 -23 -39 -20 -49 4 -83 -11 -83 -38 0 -14 7 -20 23
-20 21 -1 21 -1 2 -12 -11 -7 -34 -11 -51 -9 -18 1 -35 -2 -38 -7 -3 -6 -14
-8 -25 -5 -10 2 -26 -3 -35 -13 -11 -10 -33 -17 -57 -17 -41 0 -61 -13 -36
-23 12 -4 12 -10 3 -30 -6 -13 -16 -24 -23 -24 -6 0 -15 -9 -18 -20 -7 -22
-25 -27 -25 -7 0 22 -38 39 -60 27 -23 -12 -24 -15 -10 -41 6 -10 20 -19 31
-19 24 0 37 -29 18 -41 -9 -6 -15 -4 -17 6 -2 9 -15 15 -34 15 -28 0 -29 -2
-23 -30 6 -27 4 -30 -18 -30 -13 0 -30 -7 -37 -15 -11 -13 -9 -19 10 -35 13
-11 27 -20 31 -20 5 0 6 -6 3 -14 -3 -8 -13 -12 -25 -9 -13 4 -19 0 -19 -11 0
-9 8 -16 19 -16 11 0 23 -4 26 -10 3 -5 20 -10 36 -10 26 0 28 -2 20 -18 -7
-13 -7 -22 0 -29 8 -8 2 -13 -20 -18 -38 -8 -44 -17 -32 -47 5 -14 6 -31 1
-39 -6 -9 -3 -20 8 -32 15 -17 15 -18 -12 -7 -35 13 -56 -1 -56 -37 0 -20 -3
-23 -14 -14 -10 9 -16 8 -26 -4 -11 -13 -10 -19 4 -33 16 -16 18 -16 31 2 8
10 24 19 37 20 12 0 27 10 33 22 9 18 14 20 35 11 23 -9 23 -10 5 -15 -11 -2
-26 -9 -32 -14 -20 -16 -16 -75 7 -98 l21 -21 -26 7 c-32 8 -32 -6 -1 -35 14
-13 22 -29 20 -36 -3 -7 6 -22 20 -33 31 -24 36 -48 7 -32 -11 5 -32 10 -47
10 l-28 0 27 -28 c15 -15 27 -35 27 -43 0 -9 -8 -5 -20 11 -23 30 -26 27 -33
-28 -4 -35 -2 -45 16 -57 33 -23 50 -19 45 9 -4 21 -3 23 14 13 10 -7 18 -16
18 -22 0 -5 12 -18 26 -28 23 -18 27 -18 43 -3 17 16 19 16 25 0 3 -9 12 -14
21 -10 8 3 15 1 15 -4 0 -5 -16 -12 -35 -16 -19 -3 -39 -12 -46 -20 -13 -15
-34 -20 -25 -5 3 5 -3 20 -13 32 l-20 24 -10 -25 c-7 -20 -6 -28 9 -41 23 -20
17 -77 -7 -58 -10 9 -17 9 -25 1 -7 -7 -8 -12 -4 -12 5 0 3 -7 -4 -15 -10 -12
-10 -18 0 -30 6 -8 9 -22 6 -32 -8 -25 8 -47 28 -40 12 5 15 14 10 32 -6 24
-5 26 21 19 24 -6 27 -4 22 10 -4 9 -2 16 3 16 23 0 16 -19 -19 -53 -37 -36
-39 -41 -46 -122 -4 -46 -4 -89 0 -95 9 -15 45 -12 51 5 5 13 8 12 22 -1 14
-14 16 -14 24 1 12 20 -7 46 -28 38 -8 -3 -14 0 -14 6 0 14 27 15 35 1 4 -7
12 -7 24 0 10 5 21 7 24 3 4 -3 12 -1 19 5 7 5 30 13 52 17 37 7 38 7 27 -14
-14 -25 -5 -45 15 -37 22 9 16 -3 -17 -33 l-31 -29 21 -21 c12 -12 21 -22 21
-23 0 -2 -16 -3 -35 -4 -19 0 -35 3 -35 7 0 12 -56 40 -64 32 -11 -11 -7 -41
7 -46 9 -3 9 -7 1 -18 -7 -8 -15 -29 -19 -47 -12 -58 62 -152 121 -152 7 0 15
-9 19 -19 6 -20 105 -64 172 -77 l33 -6 -21 -26 c-19 -25 -20 -27 -2 -40 12
-9 32 -12 61 -8 35 5 44 2 54 -14 13 -20 48 -28 48 -11 0 5 37 9 83 8 86 -1
169 14 175 32 2 6 16 8 31 5 22 -5 36 1 63 25 20 17 40 31 45 31 15 0 95 61
147 112 27 26 52 48 56 48 16 0 115 102 112 116 -2 8 5 14 17 14 10 0 33 13
51 30 30 28 32 29 37 10 7 -25 40 -26 73 -3 13 10 33 17 43 18 14 0 26 16 41
53 13 32 26 50 33 47 16 -6 37 31 23 40 -6 3 -7 17 -4 30 4 18 1 25 -15 30
-12 3 -21 10 -21 15 0 5 6 7 14 4 8 -3 24 0 37 6 20 11 21 10 15 -13 -6 -25
10 -87 23 -87 3 0 12 -13 19 -30 8 -16 21 -30 29 -30 12 0 13 -3 3 -15 -12
-15 -6 -35 11 -35 5 0 14 12 19 26 6 14 15 22 20 19 8 -5 7 -11 -1 -21 -13
-16 -5 -45 13 -42 7 2 12 -4 13 -12 0 -8 8 -27 18 -42 14 -20 16 -31 8 -46 -7
-13 -6 -26 4 -45 14 -27 14 -78 1 -109 -11 -24 1 -38 30 -38 13 0 23 -3 23 -7
-4 -23 3 -35 15 -30 25 10 27 -6 4 -31 l-23 -24 20 -16 c12 -10 19 -25 17 -36
-5 -26 25 -48 48 -36 15 8 16 3 15 -47 -2 -46 1 -56 16 -60 20 -6 40 -47 43
-95 2 -18 4 -36 5 -39 0 -4 15 -9 31 -12 21 -5 30 -12 30 -25 0 -38 69 -159
105 -183 19 -13 35 -28 35 -32 0 -20 43 -67 60 -67 22 0 44 -35 36 -56 -4 -10
-16 -14 -37 -12 -47 5 -59 -21 -25 -55 39 -39 32 -49 -20 -26 -52 22 -60 20
-45 -8 6 -10 17 -32 25 -49 l15 -31 -37 13 c-20 7 -47 13 -59 14 -17 0 -84
-34 -132 -67 -2 -2 2 -14 9 -28 12 -23 12 -28 -7 -46 l-20 -21 -7 28 c-4 15
-3 31 3 37 20 20 11 25 -49 26 -33 0 -68 5 -78 10 -11 6 -22 7 -26 4 -9 -10
15 -33 35 -33 31 0 31 -18 -2 -50 -26 -25 -40 -30 -79 -30 -34 0 -50 -4 -54
-16 -10 -27 -7 -31 25 -38 25 -5 30 -10 26 -26 -3 -10 1 -24 9 -31 17 -14 18
-36 3 -41 -7 -2 -4 -16 8 -40 16 -33 23 -36 73 -43 30 -4 63 -7 73 -8 20 -1
22 -8 6 -24 -15 -15 -3 -33 21 -33 10 0 22 -4 25 -10 3 -5 -3 -10 -14 -10 -11
0 -28 -11 -39 -25 -25 -31 -38 -31 -84 0 -62 42 -108 26 -114 -38 -3 -33 0
-38 24 -43 15 -4 47 -17 71 -30 31 -16 49 -20 66 -14 30 11 105 0 112 -16 10
-26 33 -15 33 14 0 20 14 44 48 80 41 45 52 52 85 52 26 0 37 4 37 15 0 17
-23 30 -67 38 -26 5 -33 3 -33 -9 0 -8 -5 -12 -11 -9 -6 4 -8 14 -5 22 4 9 1
22 -5 29 -12 14 -10 15 69 44 17 7 32 17 32 22 0 10 -37 47 -66 65 -18 12 -18
13 10 38 27 24 30 25 52 10 30 -20 70 -4 59 23 -4 9 -9 26 -12 37 -2 11 -9 39
-15 62 -8 33 -7 46 4 62 13 19 15 18 42 -25 15 -24 32 -44 37 -44 5 0 9 -11 9
-25 0 -15 6 -25 14 -25 25 0 27 -18 5 -39 -15 -14 -20 -27 -15 -44 5 -20 1
-26 -15 -30 -32 -8 -17 -32 22 -35 19 -1 54 -7 78 -13 44 -10 66 -6 127 23 21
10 73 7 139 -7 25 -5 35 -1 64 29 35 36 35 39 2 91 -30 46 -25 67 24 115 37
36 46 41 59 31 10 -8 26 -11 42 -7 26 7 26 7 7 52 -3 9 26 12 104 12 59 0 125
3 146 6 33 4 37 3 27 -9 -6 -8 -9 -19 -5 -25 11 -18 25 -11 25 13 1 20 2 20
11 5 5 -10 15 -18 22 -18 20 0 69 70 79 113 5 22 18 52 28 68 11 15 20 34 20
42 0 9 10 17 23 19 14 2 22 10 22 23 1 11 3 25 7 30 3 6 8 31 12 57 4 25 14
52 21 58 19 16 19 29 -1 51 -14 16 -14 21 1 53 10 20 21 36 26 36 19 0 30 51
16 79 -13 28 -12 61 4 61 15 0 10 26 -11 53 -26 33 -25 34 9 29 35 -5 49 13
27 36 -17 20 -12 57 12 85 12 14 13 22 4 42 -9 20 -9 25 3 25 19 0 26 14 19
35 -4 10 -14 15 -25 12 -11 -3 -19 -1 -19 4 0 5 6 9 13 9 6 0 21 7 32 16 19
14 19 15 -9 38 l-30 23 48 5 c26 3 55 13 64 21 9 9 29 19 45 22 15 4 27 11 27
16 0 5 7 9 15 9 8 0 15 7 15 15 0 8 7 15 15 15 9 0 18 7 21 15 5 11 19 15 57
13 46 -3 52 0 64 22 7 14 13 19 13 12 0 -19 44 -10 48 10 2 9 -5 18 -15 21
-13 3 -10 6 12 11 17 4 39 12 50 18 19 10 19 10 3 -9 -24 -26 -23 -43 2 -43
23 0 50 47 34 58 -15 10 -57 72 -49 72 4 0 19 -9 33 -21 l27 -20 9 20 c11 25
29 27 46 6 17 -21 34 -4 25 25 -4 11 -18 25 -31 30 -28 11 -30 22 -9 40 17 14
20 40 5 40 -5 0 7 16 26 35 23 23 42 34 53 30 9 -3 26 1 36 9 16 12 17 16 6
30 -9 11 -10 16 -2 16 22 0 10 31 -19 48 -29 17 -47 46 -53 87 -5 40 -37 64
-37 29 0 -13 -7 -15 -32 -10 -18 3 -37 11 -43 18 -7 8 -4 9 12 5 19 -4 21 -1
20 28 -2 18 -7 39 -13 46 -6 8 -14 22 -17 32 -4 9 -14 17 -23 17 -12 0 -15 -7
-12 -25 3 -14 1 -25 -4 -25 -28 0 -98 61 -98 85 0 7 -8 16 -19 20 -22 7 -71
-10 -71 -25 0 -5 -5 -10 -11 -10 -6 0 -9 9 -6 20 7 26 -10 38 -58 42 -38 3
-39 4 -41 41 0 21 -10 50 -22 67 -12 16 -18 31 -14 34 4 2 6 36 5 75 -1 60 1
71 15 71 12 0 8 7 -13 24 -27 22 -29 27 -17 46 10 16 11 25 3 33 -15 15 -14
27 4 27 8 0 15 9 15 19 0 28 21 37 36 17 17 -24 48 -16 52 12 3 17 -2 25 -18
29 -12 3 -19 11 -16 19 3 7 1 16 -4 19 -15 9 -12 51 4 64 8 6 19 31 25 56 7
29 18 46 31 50 26 8 25 23 -2 34 -32 12 -61 47 -64 76 -3 33 9 39 31 15 22
-24 65 -27 65 -4 0 11 6 15 20 11 12 -3 29 4 45 19 14 13 31 24 37 24 6 0 8 9
5 19 -3 13 1 21 14 24 11 3 19 12 19 21 0 22 36 56 59 56 11 0 31 15 45 32 21
28 23 35 11 48 -16 17 -3 50 20 50 7 0 15 3 17 8 7 16 86 40 97 29 12 -12 41
8 41 29 0 20 -17 17 -25 -3 -6 -17 -7 -17 -16 0 -14 24 -74 23 -91 -2 -7 -10
-16 -19 -20 -20 -5 0 -7 -2 -6 -3 6 -9 -62 -67 -84 -72 -31 -7 -38 -26 -10
-26 18 0 45 -34 35 -44 -4 -3 -22 -3 -40 0 -18 3 -33 2 -33 -3 0 -5 -16 -9
-35 -9 -26 0 -35 4 -35 16 0 19 -30 50 -48 50 -16 0 -15 -10 3 -30 8 -9 16
-25 18 -37 1 -12 9 -28 16 -37 8 -10 10 -23 5 -33 -4 -10 -9 -29 -10 -42 -5
-41 -12 -50 -34 -44 -12 3 -29 -2 -41 -13 -20 -18 -21 -18 -38 5 -13 17 -24
22 -39 17 -31 -10 -28 -81 5 -110 22 -18 24 -26 18 -66 -4 -24 -16 -57 -27
-73 -17 -23 -19 -38 -15 -78 6 -46 5 -50 -14 -47 -27 4 -76 -77 -59 -97 6 -7
8 -25 4 -39 -3 -15 -2 -32 4 -39 5 -6 9 -54 8 -105 -1 -78 1 -96 16 -109 21
-18 24 -69 6 -77 -9 -3 -7 -9 7 -20 11 -8 25 -19 31 -24 5 -5 24 -7 42 -4 27
4 32 1 32 -16 0 -21 24 -52 41 -52 5 0 13 8 16 18 12 32 53 45 53 17 0 -9 16
-29 35 -46 19 -17 35 -37 35 -45 0 -10 10 -13 32 -12 31 3 33 2 30 -29 -3 -29
1 -34 30 -47 18 -8 44 -17 58 -20 18 -4 32 -19 48 -52 l23 -47 -20 -21 c-26
-27 -26 -36 -3 -36 16 -1 16 -1 0 -10 -9 -6 -30 -23 -46 -38 -47 -44 -123 -86
-153 -84 -14 1 -32 -5 -39 -13 -10 -13 -10 -19 5 -35 10 -11 26 -20 37 -20 10
0 18 -6 18 -14 0 -7 7 -19 15 -26 21 -17 19 -28 -7 -35 -55 -16 -87 -37 -95
-62 -6 -17 -17 -27 -31 -28 -19 -1 -22 4 -22 32 0 43 -24 71 -45 53 -8 -7 -15
-27 -15 -45 0 -44 -9 -65 -25 -59 -8 3 -16 -4 -20 -16 -4 -13 -12 -19 -21 -16
-8 3 -14 -1 -14 -9 0 -19 -38 -29 -55 -15 -12 10 -16 9 -22 -6 -16 -43 -28
-47 -144 -39 -105 7 -111 6 -107 -11 2 -11 11 -19 20 -19 9 0 20 -4 24 -8 4
-4 13 -2 20 4 20 17 88 2 103 -23 11 -17 10 -22 -1 -29 -7 -5 -22 -7 -33 -4
-56 15 -75 17 -75 7 0 -6 15 -16 34 -23 20 -7 32 -18 29 -24 -2 -7 7 -25 21
-40 28 -31 35 -58 11 -49 -22 9 -38 -5 -25 -21 8 -10 8 -19 -1 -34 -11 -17
-10 -23 5 -40 11 -12 16 -21 12 -21 -4 0 -17 12 -30 27 -14 16 -28 23 -35 19
-9 -6 -9 -11 0 -22 9 -11 8 -14 -4 -14 -33 0 -29 -23 8 -55 l38 -31 -16 -34
c-16 -32 -16 -34 2 -51 20 -19 18 -59 -3 -59 -6 0 -20 -19 -30 -42 -17 -39
-17 -45 -3 -70 13 -23 13 -28 1 -39 -8 -6 -14 -26 -14 -43 0 -17 -7 -44 -15
-59 -8 -15 -12 -34 -9 -41 3 -8 -3 -16 -14 -18 -21 -6 -67 -88 -77 -139 -4
-19 -20 -50 -36 -69 -17 -19 -27 -28 -24 -18 5 13 -2 18 -37 24 -24 4 -47 6
-53 4 -5 -2 -64 -5 -130 -7 -65 -2 -123 -7 -129 -13 -6 -6 -5 -19 3 -36 10
-24 10 -26 -6 -19 -47 19 -54 17 -103 -32 -58 -58 -63 -85 -25 -141 l25 -37
-30 -29 c-28 -28 -32 -29 -63 -18 -47 17 -84 15 -147 -8 -48 -18 -62 -19 -107
-9 -45 10 -52 15 -57 42 -5 23 -1 36 15 53 17 18 19 26 10 43 -7 12 -16 21
-21 21 -6 0 -10 5 -10 11 0 6 -9 23 -20 37 -50 65 -100 137 -100 144 0 4 19 6
41 5 23 -1 43 3 45 8 2 6 -9 25 -25 43 -17 17 -27 32 -23 33 4 0 20 2 37 2 61
4 53 107 -9 107 -17 0 -28 10 -40 35 -9 19 -32 46 -51 61 -19 14 -35 32 -35
39 0 7 -6 18 -14 24 -15 12 -38 71 -56 139 -11 43 -32 55 -48 26 -6 -10 -9 0
-10 35 -1 36 -7 57 -22 73 -11 12 -18 28 -16 34 3 7 -2 15 -11 18 -9 4 -13 13
-10 24 34 102 46 163 38 186 -14 36 -28 40 -68 16 l-36 -21 17 26 c13 19 14
30 6 45 -13 25 -30 17 -30 -13 0 -16 -3 -18 -11 -10 -7 7 -25 9 -43 6 -26 -5
-29 -4 -19 8 6 8 9 33 7 59 -3 25 -6 68 -8 95 -2 28 -10 63 -19 79 -12 22 -13
33 -5 43 25 31 61 4 70 -52 2 -14 12 -21 35 -23 40 -4 54 16 79 116 18 72 18
73 -4 140 -12 37 -18 68 -12 70 5 2 21 13 36 24 23 18 25 26 20 60 l-6 38 38
0 c27 0 51 9 78 29 65 47 79 68 79 119 0 26 6 57 13 69 20 37 14 76 -24 139
-20 32 -40 73 -44 89 -4 17 -11 37 -14 46 -8 19 18 29 75 29 36 0 59 14 59 37
0 8 9 26 19 41 38 55 36 78 -14 131 -29 31 -57 51 -78 55 -18 4 -47 19 -64 34
l-33 28 25 127 24 127 -36 76 c-31 66 -35 80 -26 105 7 19 8 43 1 75 -9 41 -8
49 10 67 l20 20 -31 63 c-17 35 -37 64 -44 64 -9 0 -3 -20 18 -61 27 -54 29
-63 16 -77 -11 -13 -14 -40 -12 -112 2 -79 7 -104 28 -150 32 -66 33 -80 7
-212 -11 -57 -20 -108 -20 -114 0 -18 91 -84 115 -84 30 0 95 -70 95 -102 0
-14 -8 -36 -19 -49 -10 -13 -20 -33 -22 -44 -4 -16 -15 -21 -62 -26 -32 -4
-63 -11 -69 -17 -16 -16 9 -96 54 -171 42 -71 46 -95 22 -130 -11 -16 -14 -34
-10 -60 7 -44 -8 -69 -67 -112 -27 -20 -52 -29 -77 -29 -46 0 -66 -20 -51 -49
17 -31 13 -40 -24 -62 -41 -24 -42 -33 -14 -110 21 -56 21 -59 4 -126 -9 -37
-21 -76 -26 -85 -14 -25 -49 -23 -49 2 0 34 -29 80 -50 80 -10 0 -23 8 -29 17
-8 15 -11 15 -25 3 -13 -10 -20 -10 -28 -2 -7 7 -24 12 -39 12 -28 0 -42 20
-33 45 6 14 -6 20 -30 16 -4 -1 -6 13 -3 31 4 18 2 53 -4 78 -21 94 -22 106
-8 93 24 -23 39 -15 39 21 0 40 -13 47 -60 31 -29 -10 -36 -17 -38 -45 -2 -22
4 -43 18 -62 17 -23 19 -32 10 -44 -20 -23 -30 -16 -30 21 0 39 -37 72 -67 60
-16 -6 -15 -9 10 -29 28 -23 38 -60 13 -50 -8 3 -17 0 -21 -6 -7 -12 33 -60
51 -60 18 0 13 -58 -6 -63 -10 -2 -20 -16 -24 -31 -7 -27 -39 -66 -54 -66 -5
0 -17 -9 -27 -20 -23 -25 -37 -25 -53 0 -7 11 -21 20 -31 20 -10 0 -21 7 -25
15 -5 15 -46 22 -46 8 0 -4 9 -17 21 -29 27 -28 21 -37 -38 -59 -63 -23 -73
-33 -50 -50 18 -13 17 -14 -2 -20 -12 -3 -30 -4 -40 0 -27 8 -38 -15 -16 -31
17 -13 16 -15 -18 -29 -21 -8 -37 -22 -37 -29 0 -15 -103 -97 -155 -123 -16
-9 -43 -27 -59 -40 -27 -22 -29 -23 -41 -6 -12 17 -15 16 -34 -8 -24 -31 -64
-41 -164 -42 -49 -1 -71 3 -77 13 -7 11 -14 12 -34 2 -23 -10 -27 -8 -47 19
l-22 31 -22 -26 c-22 -26 -45 -34 -45 -16 0 5 7 13 16 18 11 6 15 17 11 31 -3
11 -1 24 4 27 16 10 10 24 -11 24 -12 0 -20 -7 -20 -16 0 -23 -48 -11 -157 39
-13 6 -23 17 -23 24 0 7 -8 16 -17 19 -86 28 -128 75 -117 129 9 42 20 52 62
57 28 4 45 -1 70 -20 32 -24 36 -23 33 9 -2 19 11 25 99 48 36 10 64 21 62 27
-6 18 -135 -9 -165 -34 -16 -15 -17 -14 -11 2 5 12 1 19 -15 23 -26 7 -27 20
-3 27 9 3 22 16 27 28 6 13 22 29 36 35 15 7 32 20 39 28 10 13 9 15 -11 16
-24 2 -46 4 -64 8 -5 1 2 9 18 17 15 8 27 19 27 25 0 5 16 17 35 25 34 14 40
34 10 34 -7 0 -15 7 -19 15 -8 23 -20 18 -32 -14 -15 -37 -75 -52 -105 -25
-11 9 -22 14 -26 11 -10 -11 -12 -56 -2 -62 5 -4 9 -10 9 -16 0 -13 -34 -11
-47 2 -13 13 -33 4 -33 -17 0 -8 -4 -14 -10 -14 -5 0 -10 9 -10 21 0 18 -4 20
-25 15 -20 -5 -27 -1 -39 22 -13 25 -12 29 8 53 17 20 25 23 33 13 7 -6 9 -14
6 -17 -3 -3 -2 -10 2 -16 11 -19 45 7 45 34 0 18 5 25 20 25 12 0 20 -7 20
-16 0 -9 5 -13 13 -10 6 3 20 9 30 12 20 7 23 30 5 37 -7 3 1 6 19 6 31 1 93
29 93 44 0 10 -28 9 -51 -3 -28 -16 -83 1 -87 27 -2 17 4 22 32 27 27 5 36 12
36 27 0 14 13 26 45 40 25 11 45 24 45 29 0 14 -18 21 -25 10 -8 -12 -25 -13
-25 -1 0 13 70 83 97 99 36 20 43 14 27 -23 -17 -41 -18 -78 -3 -73 6 2 17 22
25 43 7 22 27 53 45 68 26 24 37 28 64 23 38 -8 57 10 32 29 -10 7 -17 17 -17
24 0 19 -23 12 -60 -19 -28 -24 -36 -27 -42 -16 -7 13 -12 13 -36 1 -53 -27
-95 -45 -108 -45 -13 0 -30 -37 -26 -54 2 -5 -5 -5 -14 -2 -20 7 -74 -45 -74
-70 0 -25 -18 -6 -25 26 -4 17 -11 30 -17 30 -5 0 -8 12 -6 28 5 40 -19 34
-45 -12 -26 -46 -46 -56 -54 -27 -3 11 -14 23 -24 26 -21 7 -21 24 0 41 8 6
12 20 8 33 -6 26 -2 26 30 1 29 -23 76 -26 90 -7 6 6 13 38 17 69 5 47 3 59
-11 66 -20 11 -63 -5 -63 -23 0 -7 -15 -20 -34 -30 -29 -16 -37 -17 -50 -6 -9
8 -15 20 -14 27 2 7 -6 20 -17 28 -18 14 -18 14 13 3 17 -6 35 -19 38 -29 6
-22 18 -23 33 -4 14 17 4 46 -17 46 -13 0 -12 3 3 20 10 11 24 20 32 20 13 0
18 22 7 33 -4 4 -24 -3 -45 -15 -32 -18 -43 -20 -64 -10 -14 6 -25 17 -25 23
0 7 3 9 7 6 7 -8 33 11 33 24 0 5 -9 9 -20 9 -11 0 -20 5 -20 10 0 13 41 13
76 -1 19 -7 35 -7 49 0 30 14 77 24 102 22 11 -1 23 2 26 6 3 5 26 8 52 7 35
-1 50 -7 61 -23 20 -28 29 -27 74 9 41 33 94 40 104 15 3 -8 13 -15 22 -15 11
0 15 -6 11 -20 -4 -14 2 -24 16 -32 12 -6 25 -16 29 -22 5 -8 11 -7 19 1 10
10 8 18 -9 36 -12 13 -22 28 -22 34 0 13 61 26 83 17 10 -3 20 2 27 15 6 13
21 21 35 21 15 0 25 6 25 15 0 10 -10 14 -37 12 -36 -2 -38 -1 -36 27 1 16 12
39 24 52 29 31 18 41 -20 18 -39 -23 -57 -64 -41 -93 9 -18 8 -21 -10 -21 -11
0 -28 -5 -38 -11 -14 -9 -29 -7 -65 5 -26 9 -54 16 -62 16 -20 0 -19 9 4 44
19 29 19 46 1 46 -5 0 -12 -9 -15 -21 -4 -11 -18 -24 -31 -29 -14 -6 -24 -16
-23 -22 6 -51 -14 -68 -58 -46 -43 20 -224 11 -239 -13 -7 -13 -44 -11 -44 2
0 6 -8 8 -18 5 -14 -5 -18 -1 -18 16 1 18 -5 24 -26 26 -32 4 -38 22 -9 22 11
0 23 5 26 10 5 8 12 7 22 -2 12 -10 17 -9 24 5 7 12 23 17 55 17 28 0 43 4 39
10 -8 13 -116 13 -151 0 -31 -12 -37 -9 -28 15 6 14 18 16 82 14 52 -3 76 0
79 8 3 8 -13 14 -46 19 -28 4 -51 10 -51 15 0 5 7 9 15 9 18 0 20 36 3 46 -7
4 -33 6 -59 5 -43 -2 -47 -1 -42 18 4 17 9 19 24 10 25 -13 44 -2 28 17 -9 11
-8 14 5 14 9 0 28 12 41 26 20 21 29 24 59 19 25 -5 33 -11 29 -22 -5 -12 2
-13 41 -8 39 6 46 5 46 -9 0 -18 15 -21 25 -6 5 8 12 7 22 -2 12 -10 17 -9 28
5 11 16 18 16 60 5 42 -11 48 -11 60 5 7 10 25 17 44 17 33 0 42 14 15 24 -25
10 -46 7 -63 -8 -20 -18 -159 -6 -172 15 -6 10 -36 14 -113 14 -82 0 -102 3
-94 13 6 6 17 12 24 12 15 0 18 11 7 26 -5 5 0 0 10 -10 19 -20 19 -20 38 4
18 25 18 25 -6 34 -34 13 -32 28 3 19 30 -8 45 -7 84 2 24 6 26 5 21 -16 -5
-19 -3 -21 15 -17 12 3 22 2 24 -4 2 -5 29 -11 61 -12 66 -3 73 14 12 26 -50
11 -88 44 -75 68 10 19 93 47 98 32 1 -5 18 -26 36 -47 41 -45 55 -32 21 19
-29 43 -32 61 -9 52 10 -4 25 1 35 10 24 22 67 11 79 -20 5 -13 14 -27 20 -31
8 -5 10 -22 5 -52 l-6 -44 37 3 c21 2 39 9 42 17 3 10 -2 12 -20 8 -22 -6 -24
-4 -20 22 4 27 7 29 43 27 21 -1 41 -5 45 -9 12 -12 24 -8 24 8 0 20 -32 35
-74 35 -44 0 -66 9 -60 24 12 32 -97 86 -174 86 -22 0 -31 4 -26 11 4 7 24 9
54 6 29 -4 52 -1 58 5 8 8 18 8 36 0 19 -9 27 -8 36 4 18 20 23 18 45 -18 18
-31 19 -31 28 -10 13 28 18 28 72 -3 24 -13 47 -20 50 -15 3 4 19 11 35 15 43
9 37 25 -10 25 -41 0 -50 9 -27 28 18 15 123 31 139 21 20 -13 38 -11 38 4 0
8 -11 19 -24 27 -20 10 -36 10 -93 -3 -37 -9 -76 -19 -86 -23 -14 -5 -18 -3
-15 12 3 17 -2 19 -42 15 -75 -7 -79 -6 -82 4 -2 6 12 11 30 13 50 5 34 32
-19 32 -10 0 -19 7 -19 15 0 8 2 15 4 15 2 0 20 7 39 15 34 14 37 14 65 -10
35 -29 44 -30 78 -8 19 12 28 13 33 5 5 -8 17 -9 45 -1 44 12 61 3 69 -41 5
-22 14 -31 34 -36 15 -4 35 -12 43 -19 22 -19 55 -23 55 -7 0 8 -22 26 -50 41
-32 18 -49 34 -47 44 2 10 -12 26 -33 39 -36 24 -42 33 -26 42 12 8 78 -55 82
-78 2 -11 11 -20 19 -22 8 -1 22 -5 31 -9 22 -8 34 12 19 30 -10 12 -9 15 8
15 11 0 25 7 32 15 11 13 8 15 -18 15 -17 0 -34 5 -37 10 -3 6 -19 10 -36 10
-16 0 -29 5 -29 11 0 5 5 7 10 4 6 -3 13 1 16 10 5 13 15 15 52 9 39 -6 44 -5
39 10 -5 12 0 16 21 16 37 0 72 11 72 21 0 5 -22 9 -49 9 -28 0 -53 5 -56 10
-8 13 -102 13 -110 0z m81 -21 c3 -5 -6 -9 -20 -9 -14 0 -27 4 -30 9 -3 5 6 9
19 9 14 0 28 -4 31 -9z m-116 -9 c0 -5 -10 -10 -22 -10 -19 0 -20 2 -8 10 19
13 30 13 30 0z m-85 -60 c-3 -5 -12 -10 -18 -10 -7 0 -6 4 3 10 19 12 23 12
15 0z m-95 -25 c10 -12 10 -15 -4 -15 -9 0 -16 7 -16 15 0 8 2 15 4 15 2 0 9
-7 16 -15z m105 -5 c3 -5 -1 -10 -10 -10 -9 0 -13 5 -10 10 3 6 8 10 10 10 2
0 7 -4 10 -10z m160 -30 c3 -5 1 -10 -4 -10 -6 0 -11 5 -11 10 0 6 2 10 4 10
3 0 8 -4 11 -10z m2900 -70 c3 -5 1 -10 -4 -10 -6 0 -11 5 -11 10 0 6 2 10 4
10 3 0 8 -4 11 -10z m-3208 -50 c17 -26 2 -32 -49 -20 -105 27 -97 23 -63 31
61 14 100 10 112 -11z m-262 -100 c-3 -5 -14 -10 -23 -10 -15 0 -15 2 -2 10
20 13 33 13 25 0z m-162 -44 c8 -21 -22 -44 -33 -26 -10 17 -2 40 15 40 7 0
15 -6 18 -14z m67 -1 c0 -11 -31 -11 -39 -1 -9 10 -6 12 14 8 14 -2 25 -6 25
-7z m-120 -25 c0 -5 -5 -10 -11 -10 -5 0 -7 5 -4 10 3 6 8 10 11 10 2 0 4 -4
4 -10z m-26 -26 c20 -8 11 -24 -15 -24 -10 0 -19 7 -19 15 0 16 9 19 34 9z
m60 -16 c-3 -4 -12 -8 -20 -8 -8 0 -13 4 -10 8 3 5 12 9 20 9 8 0 13 -4 10 -9z
m-207 -44 c-9 -9 -28 6 -21 18 4 6 10 6 17 -1 6 -6 8 -13 4 -17z m13 -124 c0
-5 -2 -10 -4 -10 -3 0 -8 5 -11 10 -3 6 -1 10 4 10 6 0 11 -4 11 -10z m-60 -5
c0 -2 -9 -9 -19 -14 -14 -8 -20 -7 -25 4 -4 11 2 15 19 15 14 0 25 -2 25 -5z
m3740 -75 c0 -5 -4 -10 -10 -10 -5 0 -10 5 -10 10 0 6 5 10 10 10 6 0 10 -4
10 -10z m-3280 -234 c0 -3 -4 -8 -10 -11 -5 -3 -10 -1 -10 4 0 6 5 11 10 11 6
0 10 -2 10 -4z m-500 -26 c0 -5 -7 -10 -15 -10 -8 0 -15 5 -15 10 0 6 7 10 15
10 8 0 15 -4 15 -10z m130 -30 c13 -9 13 -10 0 -10 -8 0 -22 5 -30 10 -13 9
-13 10 0 10 8 0 22 -5 30 -10z m-50 -130 c0 -5 -2 -10 -4 -10 -3 0 -8 5 -11
10 -3 6 -1 10 4 10 6 0 11 -4 11 -10z m132 -96 c-9 -43 -38 -57 -61 -30 -10
12 -7 18 16 33 15 9 32 24 36 31 14 22 18 8 9 -34z m198 -98 c0 -2 -7 -7 -16
-10 -8 -3 -12 -2 -9 4 6 10 25 14 25 6z m-72 -81 c1 -19 -3 -35 -8 -35 -5 0
-16 -13 -25 -30 -9 -18 -23 -30 -35 -30 -11 0 -27 -11 -36 -25 -16 -24 -16
-27 4 -48 16 -17 18 -25 9 -37 -13 -16 -54 -15 -75 2 -9 8 -9 14 -2 24 6 7 10
21 8 31 -2 12 4 19 20 21 15 2 22 9 20 20 -2 10 4 17 12 18 37 1 60 16 60 39
0 23 30 85 41 85 3 0 6 -16 7 -35z m-68 -55 c0 -5 -8 -10 -17 -10 -15 0 -16 2
-3 10 19 12 20 12 20 0z m-60 -7 c-1 -17 -29 -45 -39 -38 -15 9 -14 32 2 38
19 8 37 8 37 0z m-62 -68 c16 -34 15 -35 -7 -35 -19 0 -31 18 -31 46 0 23 26
16 38 -11z m1543 -46 l-10 -24 0 26 c-1 14 2 29 6 33 12 12 14 -9 4 -35z
m-1601 5 c0 -2 -7 -4 -15 -4 -8 0 -15 4 -15 10 0 5 7 7 15 4 8 -4 15 -8 15
-10z m3987 -142 c-10 -10 -17 -24 -17 -30 0 -6 -7 -9 -15 -6 -22 9 -19 17 13
36 36 21 38 21 19 0z m-3757 -26 c0 -3 -4 -8 -10 -11 -5 -3 -10 -1 -10 4 0 6
5 11 10 11 6 0 10 -2 10 -4z m3779 -20 c7 -8 8 -17 3 -20 -6 -3 -12 3 -15 14
-6 24 -4 25 12 6z m-3999 -63 c0 -13 -4 -23 -10 -23 -5 0 -10 17 -10 38 0 27
3 33 10 22 5 -8 10 -25 10 -37z m1775 -62 c-3 -6 -11 -8 -17 -5 -6 4 -5 9 3
15 16 10 23 4 14 -10z m-1660 -52 c11 -17 -1 -21 -15 -4 -8 9 -8 15 -2 15 6 0
14 -5 17 -11z m1845 -350 c0 -10 -4 -19 -10 -20 -36 -3 -81 -2 -85 3 -3 2 7
10 23 17 15 8 34 17 42 21 20 10 30 3 30 -21z m-40 -84 c-12 -15 -30 -12 -30
6 0 5 10 9 21 9 18 0 19 -2 9 -15z m243 -826 c36 -10 37 -11 24 -37 -11 -22
-12 -31 -1 -52 27 -50 10 -90 -39 -97 -28 -4 -69 -50 -65 -72 2 -9 17 -22 35
-30 43 -19 49 -39 15 -47 -15 -4 -47 -16 -72 -27 l-44 -19 22 -18 c12 -10 22
-26 22 -35 0 -14 -6 -16 -32 -11 -32 6 -62 32 -53 46 7 12 -29 39 -50 39 -87
-2 -141 24 -129 64 6 20 -2 46 -44 142 -3 6 1 5 8 -2 15 -14 65 1 83 26 6 10
20 20 30 24 9 3 17 16 17 27 0 11 4 20 10 20 13 0 28 -32 23 -47 -2 -7 5 -22
16 -35 12 -12 21 -25 21 -30 0 -19 18 -5 31 24 21 47 44 50 35 5 -5 -26 -3
-36 9 -40 8 -4 19 1 24 11 12 23 -8 114 -27 126 -12 7 -7 14 24 32 44 27 54
28 107 13z m57 -193 c0 -3 -4 -8 -10 -11 -5 -3 -10 -1 -10 4 0 6 5 11 10 11 6
0 10 -2 10 -4z m-57 -263 c-7 -2 -19 -2 -25 0 -7 3 -2 5 12 5 14 0 19 -2 13
-5z m-103 -17 c0 -3 -4 -8 -10 -11 -5 -3 -10 -1 -10 4 0 6 5 11 10 11 6 0 10
-2 10 -4z m40 0 c0 -3 -4 -8 -10 -11 -5 -3 -10 -1 -10 4 0 6 5 11 10 11 6 0
10 -2 10 -4z m-278 -26 c44 -34 78 -43 98 -25 16 14 19 14 34 -9 27 -42 21
-59 -16 -53 -18 2 -42 1 -53 -3 -13 -5 -39 2 -75 19 -54 26 -60 36 -51 84 2
14 38 7 63 -13z m196 3 c21 -9 39 -18 41 -19 1 -2 -8 -14 -21 -29 l-25 -26
-26 39 c-41 58 -34 65 31 35z"/>
<path d="M5520 4369 c0 -17 40 -49 60 -49 11 0 20 4 20 8 0 4 11 9 24 10 18 1
25 -4 28 -23 3 -14 0 -26 -8 -29 -8 -3 -14 -16 -14 -28 -1 -27 -22 -58 -40
-58 -17 0 -60 -47 -60 -66 0 -9 -5 -25 -11 -36 -9 -17 -8 -24 2 -32 9 -7 13
-25 11 -48 -3 -37 20 -78 44 -78 22 0 24 -54 5 -110 l-19 -55 23 -20 c23 -20
47 -60 51 -82 1 -7 9 -27 18 -44 20 -40 20 -39 -4 -39 -24 0 -26 -13 -5 -30
11 -9 12 -17 5 -30 -7 -12 -7 -28 0 -44 6 -16 6 -27 0 -31 -6 -4 -10 -14 -10
-25 0 -13 -5 -17 -20 -13 -23 6 -28 -15 -5 -23 22 -9 18 -34 -5 -34 -13 0 -20
-7 -20 -18 0 -10 -3 -22 -7 -26 -15 -15 -9 -52 14 -75 26 -29 29 -47 11 -54
-10 -3 -10 -9 -1 -25 8 -13 9 -23 3 -27 -6 -3 -10 0 -10 8 0 17 -27 30 -35 17
-6 -10 0 -54 10 -70 10 -16 65 -12 71 5 6 14 8 13 20 -2 13 -17 15 -17 34 6
25 29 33 23 33 -28 0 -24 5 -42 14 -45 7 -3 13 -12 13 -21 0 -22 38 -18 45 5
6 20 -20 70 -38 70 -6 0 -8 3 -4 6 3 3 16 -1 29 -10 12 -9 30 -16 40 -16 27 0
31 -18 8 -37 -25 -22 -26 -43 -1 -43 10 0 21 -9 24 -20 3 -11 9 -20 14 -19 4
1 11 0 16 -1 4 -1 12 -3 19 -4 18 -2 21 -26 3 -26 -11 0 -15 -7 -13 -22 3 -21
10 -23 63 -26 47 -3 62 0 72 14 7 10 13 12 13 6 0 -7 7 -12 15 -12 8 0 15 8
15 17 0 13 3 14 12 5 7 -7 26 -12 42 -12 l30 0 -23 -16 c-17 -12 -20 -19 -12
-27 9 -9 3 -15 -21 -23 -39 -13 -52 -43 -16 -38 83 12 97 16 92 27 -7 18 51
39 114 42 32 1 86 10 121 19 45 12 67 14 74 7 22 -22 65 -12 89 19 20 26 32
31 78 34 61 5 106 19 111 35 3 7 47 12 109 14 102 3 105 3 103 25 -2 14 3 22
12 22 8 0 15 -4 15 -10 0 -13 27 -13 35 0 4 6 2 16 -3 23 -8 9 5 12 54 11 35
0 67 -3 70 -7 3 -3 14 -2 23 2 36 19 68 30 99 36 17 4 32 11 32 16 0 13 38 10
82 -5 44 -16 138 -10 138 9 0 9 16 11 63 8 57 -5 65 -2 102 24 52 38 76 47 68
27 -3 -9 4 -24 16 -35 11 -11 21 -22 21 -25 0 -9 -38 16 -42 28 -3 7 -12 9
-22 5 -15 -6 -14 -12 15 -53 l31 -46 -32 7 c-46 10 -36 -13 19 -44 l42 -23 6
21 c8 29 22 26 57 -13 27 -29 39 -34 91 -38 33 -3 72 -1 88 4 46 17 95 2 113
-35 20 -39 31 -47 67 -47 20 0 27 -5 27 -20 0 -24 -22 -26 -82 -6 -24 8 -82
22 -130 31 -79 14 -91 14 -117 0 -17 -8 -31 -24 -33 -37 -2 -13 -15 -29 -31
-36 -24 -12 -34 -11 -72 4 -51 19 -75 9 -75 -33 0 -36 -29 -41 -52 -10 -22 30
-49 35 -68 12 -11 -13 -10 -23 0 -55 11 -33 11 -45 0 -65 -17 -33 -27 -35
-106 -25 -38 5 -103 10 -144 10 -60 0 -82 5 -110 22 -19 12 -53 23 -75 24 -22
1 -65 7 -95 13 -83 18 -109 20 -116 9 -3 -5 -13 0 -21 11 -18 27 -33 27 -33 1
0 -24 -13 -26 -30 -5 -21 25 -43 19 -37 -10 6 -34 -19 -48 -63 -35 -20 6 -38
6 -44 1 -7 -6 -27 -4 -51 5 -54 19 -58 18 -53 -11 4 -21 3 -23 -9 -13 -11 9
-16 9 -22 -1 -6 -9 -22 -11 -54 -6 -34 5 -47 3 -53 -8 -5 -8 -27 -18 -49 -24
-29 -7 -39 -14 -37 -26 2 -14 -5 -17 -36 -17 -21 0 -42 -3 -46 -7 -4 -5 -24
-13 -44 -19 -32 -9 -37 -14 -35 -38 3 -40 -14 -54 -63 -48 -44 5 -58 -5 -48
-33 6 -14 16 -16 56 -13 39 4 46 3 37 -8 -9 -11 -8 -18 1 -29 6 -8 9 -23 5
-35 -5 -15 -2 -20 11 -20 12 0 14 -3 6 -12 -16 -21 -3 -75 23 -86 13 -6 25
-23 29 -42 4 -21 13 -34 27 -37 12 -4 41 -17 65 -29 49 -26 84 -21 104 16 11
21 27 25 48 12 10 -7 9 -15 -4 -40 -8 -17 -12 -37 -9 -43 4 -6 -8 -40 -25 -76
l-33 -66 16 -51 c20 -64 30 -182 17 -207 -14 -25 -137 -96 -181 -104 -26 -5
-40 -2 -52 9 -8 9 -23 16 -32 16 -34 0 -55 22 -72 76 -11 37 -26 62 -43 73
-14 9 -51 35 -82 59 -48 36 -58 49 -58 73 0 39 -17 38 -120 -6 -45 -19 -97
-35 -115 -35 -26 0 -39 -8 -67 -42 -57 -71 -67 -90 -72 -152 -4 -51 -9 -62
-38 -87 -18 -15 -40 -31 -49 -34 -16 -5 -24 -40 -34 -150 -2 -22 -6 -60 -8
-84 -3 -25 1 -58 8 -75 7 -17 16 -87 19 -156 l7 -125 -36 -60 c-74 -122 -136
-165 -232 -160 -73 3 -88 -8 -79 -58 5 -27 1 -41 -24 -75 -62 -86 -133 -117
-261 -115 -60 0 -109 24 -109 52 0 9 -9 33 -20 54 -11 20 -20 39 -20 42 0 10
56 -19 73 -38 13 -14 21 -17 29 -9 17 17 -1 33 -78 68 -85 40 -91 40 -252 13
-125 -20 -193 -41 -223 -66 -9 -8 -44 -19 -79 -25 -58 -11 -66 -16 -113 -70
-37 -42 -59 -58 -77 -58 -44 0 -469 -115 -484 -130 -21 -21 -75 -10 -109 20
-19 17 -39 30 -45 30 -6 0 -20 9 -30 20 -14 16 -27 19 -56 16 -20 -3 -41 -8
-46 -11 -6 -3 -20 1 -32 9 -12 9 -17 16 -10 16 6 0 12 7 12 15 0 20 40 35 62
24 26 -14 38 -11 38 10 0 10 -10 25 -22 33 -20 13 -21 18 -9 32 21 25 6 46
-34 46 -32 0 -36 2 -30 21 6 18 3 20 -27 17 -25 -2 -34 -8 -36 -25 -4 -25 -17
-30 -26 -10 -3 8 -9 6 -20 -7 -22 -28 -21 -49 3 -41 14 4 20 0 23 -19 5 -26
-9 -29 -36 -7 -9 7 -22 11 -31 8 -8 -4 -17 -2 -20 3 -4 6 -32 10 -64 10 -55 0
-60 -2 -82 -35 -13 -19 -27 -35 -31 -35 -3 0 -19 -11 -35 -24 -21 -18 -46 -26
-96 -31 -59 -6 -70 -11 -79 -31 -7 -14 -20 -24 -31 -24 -11 0 -28 -7 -38 -16
-16 -14 -20 -14 -41 0 -19 12 -32 14 -58 6 -51 -15 -99 7 -52 24 53 20 72 38
72 68 0 35 25 69 45 62 23 -9 25 13 4 40 -23 29 -60 34 -80 10 -11 -14 -10
-18 6 -30 18 -13 18 -14 -4 -14 -12 0 -35 -7 -52 -16 -28 -14 -33 -14 -86 11
-34 17 -64 24 -78 21 -15 -4 -25 -1 -29 9 -3 8 -16 15 -28 15 -21 0 -23 4 -20
40 5 50 -18 91 -48 83 -13 -3 -22 1 -26 11 -9 23 2 32 21 16 18 -15 65 -5 65
13 0 23 -30 56 -67 73 -29 14 -39 15 -55 5 -17 -10 -22 -10 -29 1 -15 23 -10
38 15 38 31 0 37 17 18 57 -16 33 -10 67 11 60 6 -2 12 -11 12 -19 0 -8 5 -22
11 -29 6 -8 14 -22 17 -32 4 -9 22 -25 42 -34 23 -11 31 -19 23 -24 -20 -12
-4 -20 69 -34 117 -23 164 5 161 95 0 19 -7 43 -15 52 -9 10 -13 24 -9 33 7
19 -21 65 -40 65 -8 0 -14 -10 -14 -24 0 -14 -4 -28 -10 -31 -5 -3 -10 1 -10
9 0 9 -11 23 -25 32 -29 19 -74 15 -129 -11 -39 -19 -65 -12 -46 10 7 8 9 18
6 24 -4 5 4 11 16 13 28 4 52 46 36 65 -8 10 -6 13 5 13 9 0 19 -4 22 -10 20
-32 49 30 46 101 -1 27 1 49 4 49 11 0 50 -25 58 -37 12 -18 39 -4 32 17 -3
10 -1 21 5 25 5 3 10 0 10 -8 0 -22 30 -30 37 -9 3 9 16 28 28 42 13 14 26 39
29 56 10 45 -28 74 -84 67 -65 -9 -87 1 -94 44 -18 114 -19 132 -2 148 9 9 16
25 16 36 0 10 9 28 21 40 25 25 34 122 13 140 -20 17 -17 53 6 74 21 19 27 45
9 45 -6 0 -31 -14 -56 -31 -25 -17 -63 -33 -86 -36 -49 -6 -83 -34 -138 -114
-21 -31 -46 -60 -56 -65 -18 -8 -142 -23 -221 -27 -35 -2 -48 -8 -74 -37 -52
-59 -78 -96 -78 -110 0 -8 18 -30 41 -51 l41 -37 -34 7 c-24 5 -34 13 -36 29
-5 32 -21 27 -38 -13 -17 -41 -20 -275 -4 -275 6 0 10 7 10 15 0 21 29 19 36
-3 3 -9 10 -25 16 -36 7 -14 6 -21 -4 -27 -20 -13 -24 -11 -36 17 -18 39 -31
20 -19 -30 8 -36 7 -54 -5 -85 -18 -46 -15 -54 33 -71 24 -9 39 -22 46 -41 14
-36 33 -38 33 -3 0 19 5 25 18 22 13 -2 18 -16 22 -56 5 -48 -2 -69 -13 -39
-6 17 -40 -4 -47 -29 -3 -10 -13 -30 -22 -44 -25 -37 -27 -73 -5 -78 10 -2 26
-1 35 3 16 6 15 8 -2 21 -17 12 -18 17 -7 36 6 13 23 28 36 35 23 10 25 9 26
-15 4 -121 3 -117 43 -157 35 -35 37 -39 21 -51 -9 -7 -15 -19 -13 -26 3 -8
-8 -17 -26 -23 -23 -7 -32 -17 -34 -38 -3 -28 2 -31 46 -27 19 1 22 -2 17 -23
-7 -25 6 -41 34 -42 8 0 16 -5 18 -11 2 -6 -6 -10 -18 -10 -33 1 -33 -17 -2
-54 l28 -33 -40 7 c-79 16 -88 14 -107 -24 -10 -20 -16 -47 -13 -62 3 -20 0
-28 -10 -28 -8 0 -15 5 -15 10 0 16 -40 11 -47 -6 -5 -13 -9 -12 -29 7 -13 12
-24 28 -24 35 0 18 -24 20 -113 10 -55 -7 -87 -6 -109 2 -34 12 -62 6 -54 -14
3 -7 -2 -18 -10 -25 -8 -6 -13 -17 -11 -23 2 -6 -2 -17 -10 -24 -7 -7 -13 -27
-13 -43 0 -33 -16 -39 -25 -9 -11 34 -38 42 -107 30 -35 -5 -74 -10 -88 -9
-23 1 -21 2 19 15 10 3 11 8 3 16 -14 14 -62 1 -62 -17 0 -8 -12 -17 -28 -21
-61 -13 -126 -38 -109 -42 9 -2 39 4 66 13 27 9 69 15 93 15 23 -1 72 4 107
11 64 12 65 12 86 -15 18 -23 28 -26 83 -26 40 0 61 4 57 10 -3 5 -22 10 -41
10 -29 0 -34 3 -34 24 0 13 6 26 14 29 8 3 16 16 18 29 4 28 25 34 145 45 l92
8 24 -31 c23 -28 23 -31 8 -42 -14 -10 -14 -13 8 -32 32 -27 59 -25 73 6 10
20 9 27 -2 34 -8 5 -11 12 -7 16 4 4 13 2 19 -4 12 -12 68 -17 68 -6 0 3 -5
15 -11 26 -8 16 -8 31 2 60 12 38 14 39 43 32 17 -4 63 -7 102 -5 l71 2 39
-50 c26 -35 51 -56 81 -67 24 -9 46 -14 49 -11 11 11 -6 25 -37 32 -19 4 -34
16 -39 31 -6 14 -17 27 -25 30 -8 4 -15 12 -15 19 0 21 -42 42 -98 50 -36 5
-55 13 -62 26 -9 16 -7 19 12 16 15 -1 23 4 26 16 5 23 -15 47 -39 47 -25 0
-24 12 1 35 29 26 11 38 -38 26 -23 -5 -42 -6 -42 -2 0 13 24 31 42 31 27 0
78 28 78 43 0 6 -25 38 -55 70 -74 78 -73 91 5 84 34 -3 72 -13 86 -22 20 -13
34 -14 68 -7 46 10 103 5 112 -9 3 -5 15 -9 27 -9 47 0 58 -68 15 -98 -28 -20
-13 -31 33 -25 41 6 42 5 35 -20 -8 -34 11 -45 30 -18 20 27 34 27 100 -6 53
-26 56 -26 84 -10 36 22 47 21 60 -2 15 -29 4 -45 -44 -70 -55 -27 -63 -46
-30 -67 21 -15 31 -15 66 -4 35 10 44 10 52 -2 6 -8 27 -18 47 -22 33 -6 37
-3 68 38 32 43 37 45 97 51 42 5 68 13 79 26 10 10 31 21 49 25 17 3 46 15 64
26 24 15 43 19 70 15 26 -5 41 -2 54 10 17 15 19 14 33 -19 9 -23 23 -38 38
-42 14 -3 39 -19 57 -36 21 -20 36 -27 44 -21 30 25 77 13 69 -17 -2 -10 3
-24 11 -31 9 -8 14 -22 11 -35 -7 -26 50 -68 94 -70 26 -1 30 -5 35 -41 9 -55
32 -119 45 -123 14 -5 14 -2 -3 50 -8 24 -17 56 -20 71 -6 26 -5 28 16 22 13
-4 34 -14 47 -22 29 -18 52 -3 31 22 -8 10 -9 19 -2 27 15 19 -4 58 -28 58
-11 0 -20 4 -20 9 0 11 62 35 155 60 39 10 123 32 188 50 65 17 133 31 150 31
32 0 60 21 82 64 16 30 57 56 100 62 22 4 72 21 110 40 50 24 105 39 191 54
188 31 186 32 223 -41 17 -33 31 -69 31 -79 0 -10 16 -28 36 -40 45 -28 165
-31 234 -5 25 9 50 16 55 16 6 0 217 -9 470 -21 332 -16 465 -19 477 -11 26
16 56 13 67 -7 5 -9 29 -23 54 -30 61 -18 86 -47 85 -97 0 -74 69 -285 93
-285 13 0 11 9 -12 57 -12 24 -29 74 -38 111 l-18 67 31 1 c17 0 64 4 104 7
39 3 72 2 72 -2 0 -18 44 -19 74 -3 17 9 49 19 71 22 37 5 40 8 40 35 1 29 3
30 44 30 34 1 47 6 59 23 8 12 23 22 34 22 11 0 28 5 39 10 17 9 19 7 19 -18
0 -21 6 -31 19 -35 32 -8 70 4 77 25 9 30 -15 68 -42 68 -22 0 -23 2 -12 28 7
15 20 36 30 47 13 15 16 30 12 56 -9 55 21 100 76 113 33 8 50 19 65 43 18 30
24 32 73 33 47 0 54 3 62 25 5 14 16 25 24 25 24 0 30 22 11 37 -11 7 -34 13
-53 13 -29 0 -33 3 -27 18 4 9 10 27 12 40 3 12 9 25 14 28 5 3 9 16 9 30 0
20 5 24 28 24 18 0 36 10 54 30 25 29 65 40 82 23 4 -4 34 -9 67 -10 56 -3 60
-1 70 24 12 31 91 109 120 118 14 5 28 0 45 -16 22 -20 27 -21 63 -11 47 15
69 8 77 -24 7 -26 51 -44 63 -26 15 25 59 31 103 15 24 -9 45 -18 47 -19 2 -2
-1 -16 -7 -32 -11 -31 -9 -37 25 -66 22 -18 23 -18 49 3 15 12 37 21 49 21 12
0 28 7 35 15 11 13 21 14 143 6 9 -1 33 -17 51 -36 19 -19 39 -35 44 -35 6 0
12 -5 14 -11 2 -6 15 -12 28 -13 23 -1 25 -5 22 -40 -2 -22 -10 -46 -18 -53
-19 -19 -18 -19 14 -62 15 -20 27 -40 26 -46 -6 -33 -18 -55 -30 -55 -8 0 -14
-9 -14 -19 0 -11 -4 -23 -10 -26 -20 -13 -9 -36 25 -52 19 -9 35 -20 35 -25 0
-4 8 -8 18 -8 29 0 33 -10 16 -41 -14 -28 -13 -30 10 -40 14 -7 33 -31 44 -58
18 -41 20 -43 21 -18 1 36 -25 87 -45 87 -12 0 -14 5 -9 17 17 41 10 56 -40
84 -58 33 -61 50 -16 99 32 36 31 57 -6 106 -26 34 -29 50 -11 56 13 5 20 70
11 101 -2 9 -13 17 -24 17 -26 0 -58 19 -85 51 -27 31 -79 46 -156 48 -38 0
-60 -4 -68 -14 -7 -8 -20 -15 -29 -15 -9 0 -29 -7 -44 -15 -38 -20 -61 -10
-53 24 14 59 18 54 -62 87 -41 17 -44 17 -80 -2 -20 -10 -40 -20 -44 -22 -4
-2 -14 10 -23 27 -18 37 -54 48 -96 31 -26 -11 -33 -11 -46 3 -14 13 -14 21
-5 42 8 16 8 33 2 48 -8 21 -23 74 -24 90 -1 5 -9 14 -18 21 -10 7 -18 20 -18
29 0 9 -8 22 -17 29 -10 7 -18 24 -18 38 0 19 -7 27 -32 35 -26 9 -30 13 -21
29 5 10 8 28 6 41 -3 14 2 26 14 34 12 7 18 23 18 46 0 31 -5 39 -45 63 -32
19 -45 33 -45 49 0 19 -6 23 -29 23 -25 0 -28 3 -23 26 3 15 13 29 23 31 10 3
19 15 21 26 2 15 13 23 36 28 50 10 62 26 35 47 -13 9 -26 33 -29 52 -4 19
-15 46 -26 59 -19 25 -24 67 -9 89 5 8 -1 45 -14 91 -25 91 -20 120 30 151 30
19 68 79 89 143 3 9 13 17 23 17 19 1 63 33 63 46 0 4 -8 16 -17 26 -10 11
-18 36 -19 56 -1 20 -5 49 -9 65 -10 36 16 37 39 2 11 -17 26 -25 46 -25 27 0
30 4 36 40 7 44 15 47 59 24 50 -26 125 2 125 47 0 35 33 41 127 24 49 -9 108
-23 132 -31 68 -22 87 -19 99 15 13 36 0 51 -46 51 -28 0 -35 5 -47 35 -19 43
-76 64 -129 48 -18 -6 -58 -8 -87 -5 -46 4 -59 10 -88 40 -18 20 -42 37 -53
37 -10 1 -29 12 -41 24 l-22 22 29 -7 28 -7 -7 41 c-4 26 -2 47 7 61 10 16 10
23 0 33 -10 10 -18 9 -41 -5 -16 -9 -34 -17 -41 -17 -6 0 -26 -12 -45 -26 -39
-30 -103 -50 -117 -36 -5 5 8 23 34 46 111 96 150 126 161 126 8 0 26 14 43
31 16 17 55 46 87 65 31 18 84 61 117 94 32 33 63 60 68 60 4 0 77 71 160 159
84 87 171 171 194 187 75 51 158 142 158 172 l-1 27 -14 -26 c-16 -30 -100
-112 -170 -167 -27 -22 -113 -105 -190 -186 -77 -80 -144 -146 -148 -146 -5 0
-37 -28 -70 -62 -34 -33 -86 -76 -117 -94 -30 -17 -68 -45 -85 -61 -16 -15
-40 -32 -53 -38 -21 -9 -46 -30 -146 -117 -23 -20 -54 -42 -69 -47 -15 -6 -27
-18 -27 -27 0 -13 -7 -16 -35 -11 -19 3 -35 2 -35 -3 0 -12 -30 -2 -52 17 -18
16 -77 9 -89 -9 -4 -6 -20 -11 -37 -12 -17 -1 -36 -6 -42 -12 -11 -11 -60 -7
-60 5 1 20 30 42 49 36 26 -8 29 16 5 36 -11 9 -20 10 -32 2 -26 -16 -61 -73
-55 -89 7 -18 -28 -19 -46 -1 -11 9 -15 9 -18 0 -3 -8 -15 -10 -34 -6 -22 4
-29 2 -29 -11 0 -9 -8 -16 -19 -16 -11 0 -21 -5 -23 -12 -5 -13 -58 -18 -58
-6 0 4 -11 8 -25 8 -18 0 -25 -5 -25 -19 0 -16 -7 -19 -46 -18 -34 0 -51 -5
-60 -17 -7 -10 -21 -16 -31 -15 -10 2 -24 0 -31 -5 -7 -4 -19 -3 -27 4 -12 10
-16 9 -21 -4 -3 -9 -18 -16 -33 -16 -19 0 -31 -9 -44 -31 -17 -30 -19 -31 -36
-15 -17 16 -23 16 -87 1 -38 -9 -77 -21 -86 -26 -10 -5 -31 -9 -48 -9 -24 0
-33 6 -41 28 l-11 27 -22 -28 c-20 -24 -24 -26 -30 -12 -3 9 -10 13 -16 10 -5
-3 -10 -1 -10 4 0 6 -16 11 -35 11 -20 0 -35 5 -35 11 0 7 -8 18 -17 24 -17
13 -17 14 0 32 21 24 22 53 1 53 -8 0 -32 -10 -53 -22 -33 -19 -41 -20 -55 -9
-15 13 -15 15 0 32 23 25 16 29 -47 33 -30 1 -65 9 -79 16 -14 8 -30 14 -36
15 -6 0 -18 8 -28 18 -10 9 -22 17 -27 17 -5 0 -9 9 -9 20 0 11 -2 20 -5 20
-16 0 -65 -32 -65 -42 0 -7 -13 1 -29 16 -20 19 -27 34 -23 52 2 13 0 30 -6
37 -5 6 -8 25 -7 41 2 17 -1 38 -6 49 -9 15 -7 20 10 24 15 4 21 13 21 33 0
15 6 30 13 33 8 3 12 25 11 66 -1 34 3 64 7 67 5 3 6 10 3 16 -5 7 -1 9 9 5
18 -7 33 8 18 17 -13 8 -61 103 -55 109 5 4 -24 53 -61 104 -7 9 -4 24 10 51
17 31 18 44 11 80 -6 23 -16 42 -23 42 -7 0 -20 11 -28 24 -12 18 -13 29 -5
50 12 31 6 46 -17 46 -14 0 -14 2 1 19 9 10 16 22 14 27 -4 16 26 54 43 54 20
0 53 46 45 65 -7 20 4 26 26 14 11 -6 27 -8 35 -4 14 5 12 10 -10 33 -33 34
-34 57 -4 58 12 1 32 5 45 9 16 6 22 3 22 -8 0 -9 9 -21 20 -27 19 -10 24 -6
21 13 -1 8 7 12 52 21 40 9 33 26 -12 26 -27 0 -41 -5 -45 -17 -6 -15 -8 -14
-20 2 -10 13 -20 16 -42 11 -50 -12 -94 -15 -94 -6 0 4 -27 8 -60 8 -33 0 -60
-4 -60 -9z m260 -1330 c0 -6 -4 -7 -10 -4 -5 3 -10 11 -10 16 0 6 5 7 10 4 6
-3 10 -11 10 -16z m164 -63 l27 -14 -24 -4 c-13 -2 -28 1 -35 8 -25 27 -9 32
32 10z m96 -38 c-1 -33 -21 -53 -57 -56 -27 -3 -33 0 -33 15 0 34 30 60 73 62
11 1 17 -6 17 -21z m840 -257 c0 -16 29 -20 44 -6 10 10 16 11 18 3 3 -8 12
-8 38 0 19 7 38 8 44 3 12 -9 89 -22 146 -25 19 0 51 -11 71 -23 30 -19 51
-23 115 -23 44 -1 110 -5 148 -10 43 -5 78 -5 94 1 41 16 46 -6 7 -27 -19 -10
-38 -28 -41 -39 -21 -69 -49 -117 -81 -136 -20 -12 -42 -37 -49 -56 -13 -30
-12 -41 7 -105 18 -61 19 -78 10 -110 -10 -31 -9 -43 4 -67 8 -16 19 -32 24
-35 5 -3 12 -26 15 -51 4 -25 11 -45 17 -45 5 0 9 -4 9 -10 0 -5 -13 -10 -29
-10 -22 0 -32 -6 -37 -22 -4 -13 -15 -29 -25 -36 -9 -6 -20 -26 -24 -42 -6
-27 -10 -29 -33 -23 -15 3 -44 15 -65 26 -31 16 -40 17 -53 6 -9 -7 -32 -19
-51 -25 -28 -10 -40 -9 -66 4 -35 17 -117 95 -117 110 0 6 -18 13 -39 17 -22
4 -42 13 -45 22 -4 9 -13 13 -22 9 -9 -3 -29 4 -47 18 -60 44 -124 55 -163 29
-13 -8 -36 -16 -52 -18 -27 -2 -64 -15 -114 -40 -27 -13 -27 -13 -15 13 6 15
18 37 25 49 8 13 12 33 8 47 -4 15 0 28 9 36 20 17 19 33 -4 54 -25 23 -63 17
-76 -11 -10 -24 -48 -36 -65 -19 -5 5 -29 17 -53 26 -33 12 -43 21 -45 42 -2
15 -14 33 -26 42 -51 33 -34 84 24 71 22 -5 30 -3 30 7 0 22 -22 38 -50 38
-46 0 -71 46 -28 52 13 2 24 11 26 22 3 15 0 18 -21 12 -29 -7 -46 8 -21 18
12 5 15 14 10 36 -6 31 -6 30 42 34 7 1 17 7 21 14 5 9 25 13 57 11 44 -3 49
-1 48 18 0 15 5 19 18 15 10 -2 20 2 24 12 3 9 12 16 20 16 8 0 14 4 14 8 0 5
29 8 64 6 66 -4 96 11 80 38 -6 10 -5 10 7 2 19 -16 89 -27 89 -15 0 6 13 6
36 -1 25 -7 40 -6 47 1 6 6 19 11 29 11 21 0 23 11 6 28 -9 9 -9 12 0 12 7 0
12 -4 12 -9z m-687 -258 c-7 -2 -21 -2 -30 0 -10 3 -4 5 12 5 17 0 24 -2 18
-5z m562 -444 c5 -14 12 -18 23 -14 38 16 48 14 76 -10 16 -14 36 -25 45 -25
9 0 25 -7 35 -15 11 -8 28 -15 38 -15 11 0 42 -24 71 -54 29 -29 69 -61 90
-71 38 -18 54 -16 125 18 18 8 29 7 52 -6 15 -9 56 -20 89 -24 50 -5 61 -9 56
-22 -3 -11 10 -24 45 -43 40 -23 50 -33 50 -54 0 -18 -6 -28 -21 -31 -17 -5
-20 -11 -15 -35 3 -18 0 -41 -9 -58 -23 -44 -19 -51 23 -48 35 3 37 1 34 -24
-2 -19 4 -30 18 -38 11 -6 20 -20 20 -31 0 -11 6 -22 14 -25 16 -6 49 -105 44
-131 -2 -10 -21 -26 -43 -37 -46 -21 -135 -109 -135 -132 0 -13 -6 -15 -27
-10 -16 4 -34 7 -40 6 -29 -1 -40 0 -73 6 -31 5 -40 1 -65 -24 -55 -55 -150
-50 -194 9 -12 17 -46 45 -74 64 -29 18 -63 44 -77 57 -19 18 -42 25 -109 33
l-85 10 -23 45 c-35 70 -37 71 -79 50 -20 -11 -45 -27 -55 -36 -24 -22 -132
-26 -178 -7 -19 8 -71 16 -117 18 -45 1 -87 5 -92 8 -4 3 -21 -1 -37 -9 -27
-14 -30 -14 -46 7 -13 18 -22 20 -45 14 -16 -4 -40 -6 -54 -6 -99 5 -150 10
-158 15 -9 5 -125 -30 -197 -59 -16 -7 -42 -17 -58 -24 -15 -6 -32 -22 -37
-36 -14 -36 -35 -31 -48 13 -15 53 -14 84 5 104 14 15 14 22 4 42 -10 18 -10
29 -2 44 6 11 11 36 11 56 0 24 5 36 18 40 26 9 82 65 83 84 4 83 12 109 53
162 36 46 50 56 82 61 22 3 72 20 113 37 40 18 77 32 82 32 5 0 9 -11 9 -24 0
-18 16 -37 61 -71 34 -25 72 -51 85 -57 16 -8 28 -27 39 -64 15 -53 51 -94 84
-94 9 0 25 -7 35 -15 41 -31 146 8 228 86 l38 36 -6 84 c-4 46 -13 97 -20 113
-18 38 -18 52 4 60 9 3 24 10 32 15 8 5 44 17 80 27 36 10 74 24 85 31 26 18
33 17 40 -8z m-4433 -151 c-15 -15 -16 -50 -1 -65 20 -20 14 -108 -9 -138 -12
-15 -22 -36 -22 -45 0 -10 -7 -24 -16 -31 -12 -10 -15 -26 -12 -66 5 -52 4
-53 -21 -51 -33 2 -77 -20 -64 -33 6 -6 19 -6 33 -1 13 5 34 7 47 4 24 -5 24
-5 4 -26 -24 -26 -30 -57 -13 -63 6 -3 12 2 12 9 0 28 21 38 47 21 17 -11 37
-14 73 -10 58 7 85 -10 74 -47 -9 -32 -46 -67 -62 -61 -8 3 -24 -3 -34 -12
-20 -17 -20 -17 -17 7 6 39 -33 39 -68 0 -23 -26 -27 -40 -28 -88 l0 -56 -43
-1 c-52 -1 -73 -18 -43 -34 47 -26 3 -57 -61 -44 -32 6 -35 -2 -12 -28 19 -21
11 -39 -17 -39 -24 0 -37 -29 -18 -41 8 -5 11 -9 6 -9 -4 0 0 -16 8 -36 20
-48 20 -48 -16 -61 -26 -10 -29 -15 -20 -31 8 -15 7 -21 -4 -26 -26 -9 -16
-26 14 -26 42 0 61 -10 61 -31 0 -21 -11 -24 -27 -8 -9 9 -19 6 -40 -8 -41
-30 -68 -36 -82 -19 -12 14 -98 31 -138 27 -19 -2 -21 2 -19 46 3 74 -11 175
-26 184 -7 5 -23 9 -34 9 -12 0 -29 11 -38 25 -16 25 -46 34 -46 15 0 -5 -6
-10 -13 -10 -24 0 16 102 47 120 31 18 31 22 9 72 -11 24 -26 41 -40 44 -22 6
-23 10 -23 104 0 91 9 126 25 100 3 -5 17 -10 29 -10 13 0 41 -12 62 -26 45
-31 68 -23 70 23 1 40 42 93 70 93 32 0 38 -15 18 -45 -9 -14 -13 -32 -10 -41
5 -14 8 -14 27 0 20 14 23 13 39 -6 9 -12 21 -18 27 -15 14 9 4 68 -15 90 -9
10 -17 34 -19 53 -2 43 23 59 83 50 30 -4 45 -1 54 9 7 8 28 15 46 15 37 0 44
14 15 29 -14 8 -43 5 -106 -11 -69 -17 -92 -19 -106 -10 -15 9 -28 9 -61 -4
-24 -8 -52 -18 -63 -21 -25 -7 -55 -33 -55 -47 0 -6 -9 -17 -20 -24 -25 -15
-26 -48 -3 -61 10 -5 15 -13 11 -16 -10 -11 -78 50 -78 69 0 6 22 36 49 66 41
47 54 55 87 57 113 5 202 20 227 36 15 10 40 35 56 57 60 83 89 110 119 110
16 0 49 11 73 24 51 28 58 31 41 14z m-377 -287 c3 -5 1 -13 -5 -16 -6 -4 -10
-16 -8 -28 3 -19 -3 -23 -39 -28 -31 -4 -43 -2 -43 7 0 7 5 16 11 20 6 3 9 15
6 25 -3 10 0 20 7 23 20 8 65 6 71 -3z m-115 -64 c0 -13 -9 -32 -20 -42 -16
-15 -22 -16 -35 -5 -13 11 -13 15 -3 21 7 5 13 13 13 19 0 11 24 30 38 30 4 0
7 -11 7 -23z m-43 -83 c-3 -4 -2 -16 4 -26 7 -14 8 -23 1 -30 -7 -7 -14 -3
-21 10 -12 22 -5 52 12 52 6 0 7 -3 4 -6z m4197 -129 c17 -5 43 -3 63 5 32 11
36 10 49 -9 16 -22 48 -28 59 -11 8 14 211 2 243 -14 17 -8 54 -13 98 -12 61
2 76 6 103 29 34 28 81 36 81 14 0 -7 11 -29 25 -49 24 -36 26 -36 110 -43 47
-4 85 -11 85 -15 0 -4 34 -31 74 -59 41 -28 85 -65 96 -82 15 -20 36 -33 66
-41 46 -13 50 -17 35 -46 -48 -95 -46 -116 9 -114 35 1 35 -1 14 -33 -13 -21
-21 -23 -64 -19 -49 4 -50 4 -67 -33 -15 -31 -25 -39 -55 -44 -20 -3 -44 -12
-53 -19 -27 -22 -48 -78 -42 -114 4 -25 0 -37 -14 -49 -10 -9 -19 -25 -19 -34
-1 -38 -63 -86 -99 -76 -16 4 -23 -1 -31 -21 -8 -23 -15 -26 -54 -26 -50 0
-71 -18 -61 -51 6 -18 4 -20 -14 -14 -14 4 -36 -1 -62 -14 -43 -23 -79 -27
-79 -10 0 10 -153 5 -171 -7 -5 -3 -18 -2 -29 1 -15 5 -20 15 -20 44 0 28 -7
44 -28 64 -15 15 -32 27 -36 27 -5 0 -32 14 -60 31 -28 17 -64 32 -81 33 -30
2 -30 3 -29 55 1 39 7 58 24 76 29 31 21 63 -21 90 -17 11 -34 30 -39 41 -8
19 -15 21 -79 19 -39 -2 -74 -6 -80 -9 -5 -3 -11 -3 -13 1 -3 7 -28 18 -135
57 -18 7 -41 20 -51 29 -10 9 -24 17 -30 17 -7 0 -13 3 -13 8 -1 4 -3 20 -5
35 -4 38 -23 97 -39 123 -24 38 -24 144 0 144 8 0 21 12 29 28 15 27 54 47
181 89 61 21 165 24 229 8z m-3675 -339 c9 -10 9 -16 1 -21 -8 -5 -8 -11 1
-21 9 -11 15 -11 39 1 16 8 30 20 33 27 2 7 3 4 1 -7 -2 -10 4 -27 12 -36 16
-18 27 -82 18 -111 -3 -10 -20 -21 -38 -27 -43 -11 -136 6 -136 25 0 8 -18 21
-40 30 -31 13 -40 22 -40 40 0 13 -4 24 -10 24 -5 0 -10 9 -10 20 0 11 -7 23
-15 26 -8 4 -15 10 -15 15 0 5 10 4 23 -2 17 -8 32 -6 67 10 53 24 93 27 109
7z m3251 -60 c-13 -13 -13 -39 0 -31 6 4 10 -5 10 -19 0 -14 -5 -26 -11 -26
-8 0 -10 -17 -5 -55 6 -54 5 -56 -21 -66 -16 -6 -39 -7 -53 -4 -14 4 -41 9
-61 12 l-36 5 63 63 c63 64 85 97 99 150 l7 30 9 -24 c6 -16 6 -28 -1 -35z
m70 -81 c7 -8 18 -15 25 -15 11 0 107 -39 145 -59 9 -5 50 -6 92 -3 71 4 76 3
83 -17 3 -11 12 -21 19 -21 7 0 23 -12 37 -26 l24 -26 -24 -19 c-22 -18 -25
-28 -25 -95 l-1 -75 -90 5 c-49 4 -202 11 -340 16 -137 5 -298 13 -358 16
l-107 6 30 34 c45 52 60 87 53 126 l-5 35 119 -2 c66 -1 137 -8 158 -15 30
-10 45 -10 77 1 l39 13 -6 47 c-10 69 23 113 55 74z m-3893 -37 c-3 -8 -6 -5
-6 6 -1 11 2 17 5 13 3 -3 4 -12 1 -19z m448 -76 c7 -20 1 -25 -23 -18 -11 4
-22 17 -24 30 -4 22 -3 23 18 14 13 -6 26 -17 29 -26z m1080 -182 c-16 -18
-16 -20 11 -46 17 -16 21 -23 10 -17 -23 13 -65 1 -83 -24 -11 -14 -15 -14
-40 3 -23 15 -25 19 -10 22 15 3 22 25 18 60 -2 16 11 15 35 -3 27 -20 33 -19
44 11 6 14 15 22 21 19 7 -5 5 -13 -6 -25z m-720 -9 c10 -17 -12 -21 -25 -6
-10 12 -10 15 3 15 9 0 18 -4 22 -9z m4373 -94 c22 -17 14 -37 -15 -37 -23 0
-28 5 -28 23 0 25 21 32 43 14z m-3481 -134 c2 -6 -10 -13 -27 -15 -20 -3 -30
0 -30 8 0 8 6 11 15 8 8 -4 15 -1 15 6 0 14 22 8 27 -7z m78 -23 c-3 -5 -15
-10 -26 -10 -10 0 -19 5 -19 10 0 6 12 10 26 10 14 0 23 -4 19 -10z m-48 -21
c8 -8 20 -8 40 -2 40 14 54 6 47 -25 -9 -36 -7 -36 -54 -13 -23 11 -47 18 -54
15 -7 -3 -26 0 -41 6 -23 9 -26 13 -15 20 21 13 64 12 77 -1z m-1797 -139 c0
-14 -17 -21 -34 -14 -12 5 -14 10 -6 20 12 13 40 9 40 -6z"/>
<path d="M8536 4361 c17 -11 36 -33 42 -50 6 -17 16 -31 21 -31 14 0 14 4 -3
45 -15 35 -42 55 -73 55 -13 0 -9 -5 13 -19z"/>
<path d="M5547 4253 c-13 -12 -7 -33 8 -33 8 0 15 9 15 20 0 20 -11 26 -23 13z"/>
<path d="M8411 3638 c-17 -23 -31 -48 -31 -55 0 -13 -22 -17 -77 -14 -30 2
-32 0 -31 -30 1 -18 -4 -35 -10 -37 -7 -2 -12 -8 -12 -14 0 -5 -7 -16 -16 -25
-11 -12 -18 -13 -27 -4 -18 18 -33 13 -46 -15 -15 -33 -7 -43 63 -84 57 -33
106 -74 106 -88 0 -5 7 -15 15 -22 9 -7 15 -25 14 -39 -4 -49 1 -61 31 -76 16
-8 33 -27 36 -40 3 -14 15 -30 25 -35 10 -6 23 -29 29 -51 6 -23 22 -52 35
-65 14 -13 22 -30 19 -38 -3 -8 0 -17 6 -21 8 -5 8 -11 -1 -21 -25 -30 11 -55
55 -38 30 11 17 26 -16 18 -29 -6 -31 -5 -19 10 8 9 10 23 6 33 -5 10 -7 25
-6 34 1 9 -9 23 -23 32 -13 9 -30 33 -36 54 -18 56 -66 128 -95 141 -21 10
-25 18 -25 57 0 33 4 45 15 45 8 0 15 7 15 15 0 18 -27 20 -32 3 -3 -7 -21 6
-42 30 -21 23 -53 51 -71 62 -19 12 -35 28 -37 38 -4 19 25 52 46 52 20 0 30
18 17 33 -12 16 1 39 20 35 8 -2 13 3 12 10 -2 6 5 12 15 12 31 0 72 24 67 39
-8 20 13 40 35 34 11 -3 20 0 20 6 0 5 7 8 15 5 10 -4 15 0 15 11 0 23 22 14
37 -15 9 -18 21 -25 47 -26 20 0 36 2 36 6 0 15 -27 29 -47 24 -15 -4 -22 0
-26 15 -5 21 -43 41 -77 41 -10 0 -32 -19 -49 -42z"/>
<path d="M8481 3511 c-18 -12 -5 -31 20 -31 14 0 19 6 17 17 -4 20 -18 26 -37
14z"/>
<path d="M610 3287 c0 -13 39 -41 47 -33 3 2 2 14 -2 25 -7 23 -45 29 -45 8z"/>
<path d="M607 3150 c-4 -15 0 -20 14 -20 12 0 19 7 19 20 0 11 -6 20 -14 20
-7 0 -16 -9 -19 -20z"/>
<path d="M5140 3045 c-10 -12 -10 -18 0 -30 7 -8 17 -12 22 -9 5 3 4 -4 -4
-15 -10 -17 -14 -18 -16 -6 -7 30 -86 10 -94 -23 -8 -30 5 -44 35 -37 20 5 26
2 32 -13 5 -17 12 -20 40 -15 28 4 38 1 58 -21 26 -28 57 -27 57 1 0 9 7 21
17 28 18 13 10 35 -14 35 -14 0 -13 3 1 25 16 25 16 27 -6 45 -13 11 -34 22
-48 26 -14 3 -33 9 -42 15 -23 12 -23 12 -38 -6z m106 -46 c13 -14 14 -23 7
-30 -14 -14 -33 -3 -33 17 0 8 -6 14 -14 14 -8 0 -17 4 -20 9 -11 17 44 8 60
-10z m-102 -49 c8 0 16 7 20 15 3 8 11 15 18 15 9 0 9 -3 0 -12 -9 -9 -8 -16
5 -30 15 -17 14 -18 -21 -18 -30 0 -38 5 -46 26 -13 33 -12 44 1 22 5 -10 16
-18 23 -18z m106 -21 c0 -14 -27 -10 -33 5 -4 10 0 12 14 9 10 -3 19 -9 19
-14z"/>
<path d="M5415 3029 c-10 -15 1 -23 20 -15 9 3 13 10 10 16 -8 13 -22 13 -30
-1z"/>
<path d="M5308 2995 c-3 -4 -3 -15 -1 -26 7 -24 28 -20 28 6 0 18 -16 30 -27
20z"/>
<path d="M5432 2984 c4 -21 22 -23 26 -1 2 10 -3 17 -13 17 -10 0 -15 -6 -13
-16z"/>
<path d="M5585 2961 c-3 -6 3 -15 14 -21 21 -11 37 2 26 20 -8 13 -32 13 -40
1z"/>
<path d="M5700 2955 c-44 -9 -55 -15 -55 -31 0 -13 6 -18 20 -16 11 1 33 3 49
5 28 2 66 41 49 49 -4 2 -33 -1 -63 -7z"/>
<path d="M5786 2957 c-17 -12 -17 -14 -1 -27 15 -12 19 -12 31 5 8 10 14 22
14 27 0 12 -24 10 -44 -5z"/>
<path d="M7288 2914 c-3 -3 -4 -14 -1 -25 6 -22 33 -26 33 -5 0 16 -24 39 -32
30z"/>
<path d="M5355 2891 c-6 -5 -23 -11 -39 -13 -36 -4 -48 -28 -13 -28 13 0 27 3
31 8 4 4 17 7 29 7 13 0 23 7 25 18 4 18 -17 23 -33 8z"/>
<path d="M7547 2875 c-8 -18 11 -31 25 -17 11 11 3 32 -12 32 -4 0 -10 -7 -13
-15z"/>
<path d="M4860 2705 c-10 -12 -10 -19 -2 -27 9 -9 15 -7 26 7 23 32 0 49 -24
20z"/>
<path d="M6545 2680 c-3 -6 1 -13 10 -16 19 -8 30 0 20 15 -8 14 -22 14 -30 1z"/>
<path d="M4860 2620 c-12 -7 -12 -12 -3 -21 10 -10 14 -9 19 5 8 22 2 27 -16
16z"/>
<path d="M850 2481 c0 -6 14 -18 30 -26 28 -14 31 -14 36 0 8 20 6 21 -33 30
-21 4 -33 3 -33 -4z"/>
<path d="M5954 2442 c-18 -22 -32 -28 -80 -32 -31 -3 -59 -10 -61 -16 -5 -14
51 -38 71 -31 22 9 47 -15 50 -48 3 -27 7 -30 40 -33 31 -3 38 0 43 18 4 15
11 20 25 17 10 -3 25 1 32 9 8 8 22 14 30 14 22 0 20 26 -5 61 -13 18 -29 29
-44 29 -14 0 -29 9 -35 20 -15 27 -41 24 -66 -8z m54 -12 c7 -12 23 -20 40
-20 19 0 30 -7 39 -25 10 -22 9 -25 -8 -25 -11 0 -19 -7 -20 -17 0 -11 -3 -13
-6 -5 -8 21 -32 13 -48 -18 -21 -41 -38 -38 -55 13 -14 40 -18 42 -60 47 l-45
6 56 7 c45 7 59 13 69 33 16 29 22 30 38 4z"/>
<path d="M4655 2400 c-3 -5 -3 -15 0 -20 7 -12 45 5 45 20 0 13 -37 13 -45 0z"/>
<path d="M6137 2273 c-18 -18 -143 -28 -153 -11 -3 4 -14 4 -24 -2 -10 -5 -28
-10 -39 -10 -11 0 -26 -6 -33 -13 -7 -8 -18 -12 -25 -10 -6 2 -17 -5 -25 -15
-12 -17 -16 -18 -32 -6 -14 9 -24 10 -38 3 -18 -10 -18 -11 2 -37 l21 -26 -21
-8 c-27 -10 -23 -50 5 -58 11 -3 31 -13 44 -22 l24 -17 -27 -31 c-28 -34 -31
-47 -17 -69 14 -22 56 10 76 56 9 21 20 45 24 52 10 19 59 33 93 25 26 -5 81
23 143 76 11 9 31 17 44 18 31 1 37 8 21 27 -10 13 -9 15 9 15 11 0 21 3 21 8
-1 27 -15 51 -36 61 -33 14 -37 14 -57 -6z m47 -9 c23 -9 20 -34 -3 -34 -22 0
-35 15 -26 30 7 12 8 12 29 4z m-60 -43 c9 -8 16 -18 16 -24 0 -15 -72 -77
-97 -83 -13 -4 -23 -9 -23 -13 0 -3 -23 -6 -50 -7 -34 0 -59 -7 -78 -21 -29
-22 -48 -18 -80 14 -7 7 -18 13 -24 13 -6 0 -4 8 5 18 21 23 21 36 2 52 -22
18 -11 24 15 8 18 -11 22 -11 31 5 7 11 17 16 29 12 13 -4 20 0 25 14 7 23 29
27 137 26 47 -1 83 -6 92 -14z m-267 -224 c-12 -27 -35 -42 -46 -32 -5 5 51
65 56 61 2 -2 -3 -14 -10 -29z"/>
<path d="M4952 2143 c4 -20 18 -26 37 -14 18 12 5 31 -20 31 -14 0 -19 -6 -17
-17z"/>
<path d="M6383 2044 c-9 -23 11 -38 26 -20 13 16 7 36 -10 36 -5 0 -12 -7 -16
-16z"/>
<path d="M4913 1965 c-7 -11 -25 -16 -67 -16 -37 -1 -59 -6 -62 -14 -3 -7 -16
-16 -29 -19 -13 -3 -33 -22 -45 -41 -12 -19 -35 -44 -51 -55 -34 -25 -44 -55
-29 -94 8 -21 7 -32 -1 -43 -9 -10 -9 -20 -1 -36 26 -54 30 -83 15 -110 -12
-24 -12 -28 2 -33 26 -10 63 22 67 58 3 29 10 36 56 58 40 19 52 30 50 45 -2
14 6 24 29 35 37 17 42 36 14 45 -17 5 -20 14 -18 53 2 40 5 47 25 50 12 2 22
10 22 17 0 8 13 22 29 31 16 10 32 26 34 36 3 10 14 18 27 18 36 0 17 25 -22
28 -25 2 -39 -2 -45 -13z m20 -20 c-3 -9 -8 -14 -10 -11 -3 3 -2 9 2 15 9 16
15 13 8 -4z m-109 -31 c6 -15 8 -15 26 1 11 10 26 15 35 11 14 -5 14 -8 -2
-31 -10 -13 -26 -25 -35 -25 -10 0 -19 -6 -19 -12 -9 -84 -7 -114 5 -123 12
-9 9 -15 -15 -30 -18 -12 -28 -26 -26 -36 3 -11 -7 -20 -31 -29 -19 -7 -46
-24 -58 -38 l-24 -25 -19 44 c-13 31 -16 49 -9 62 6 11 5 30 -4 54 -13 35 -12
36 23 67 19 17 45 46 58 64 12 17 31 32 41 32 10 0 20 7 24 15 7 20 22 19 30
-1z m-145 -385 c-19 -12 -24 -2 -8 17 9 11 14 13 17 4 3 -7 -2 -16 -9 -21z"/>
<path d="M4293 1698 c-5 -7 -17 -33 -27 -58 -34 -82 -61 -130 -77 -135 -9 -3
-33 -41 -53 -83 -35 -75 -36 -81 -29 -147 5 -39 13 -70 20 -72 14 -5 43 54 68
137 9 30 29 82 45 115 69 149 80 177 80 193 0 10 5 23 11 29 13 13 4 33 -15
33 -8 0 -18 -6 -23 -12z m-8 -91 c-8 -20 -17 -37 -19 -37 -4 0 -1 13 22 85 5
15 7 16 9 5 2 -9 -3 -33 -12 -53z m-35 -77 c-5 -17 -20 -54 -33 -83 -14 -28
-33 -77 -42 -107 -9 -30 -22 -68 -29 -85 -13 -29 -13 -29 -20 30 -6 53 -4 65
28 132 19 40 41 73 49 73 7 0 21 16 30 35 20 43 29 45 17 5z"/>
<path d="M2494 1691 c-60 -15 -68 -30 -29 -55 25 -17 27 -16 55 14 17 18 27
36 24 41 -6 10 -6 10 -50 0z m6 -31 c0 -5 -4 -10 -9 -10 -6 0 -13 5 -16 10 -3
6 1 10 9 10 9 0 16 -4 16 -10z"/>
<path d="M2635 1420 c-8 -12 20 -24 35 -15 5 3 10 10 10 16 0 12 -37 12 -45
-1z"/>
<path d="M2334 1109 c-3 -6 -2 -15 4 -21 7 -7 7 -16 0 -28 -14 -22 -4 -50 17
-50 26 0 37 47 20 81 -16 30 -29 36 -41 18z m29 -64 c-3 -9 -8 -14 -10 -11 -3
3 -2 9 2 15 9 16 15 13 8 -4z"/>
<path d="M3603 814 c-3 -9 -6 -32 -7 -52 -1 -30 4 -38 28 -50 15 -8 46 -17 67
-19 35 -5 40 -3 49 21 5 15 10 30 10 34 -1 8 -68 52 -79 52 -5 0 -14 7 -21 15
-16 20 -39 19 -47 -1z m115 -90 c-10 -21 -12 -22 -55 -7 -49 17 -58 30 -49 68
l6 24 54 -32 c48 -28 52 -34 44 -53z"/>
<path d="M2452 758 c-7 -7 -12 -17 -12 -23 0 -6 -11 -22 -24 -34 -36 -33 -50
-74 -36 -100 6 -12 15 -21 20 -21 11 0 69 121 77 163 6 28 -5 35 -25 15z m-34
-116 c-13 -33 -28 -43 -28 -17 0 8 4 15 9 15 5 0 11 10 14 22 4 12 9 20 11 17
3 -3 0 -20 -6 -37z"/>
<path d="M2241 678 c0 -19 56 -60 76 -56 10 2 19 11 21 21 3 12 -3 17 -21 17
-14 0 -30 7 -37 15 -15 18 -40 20 -39 3z"/>
<path d="M1686 577 c-25 -20 -26 -24 -12 -36 17 -14 38 -7 30 12 -3 8 7 12 28
12 23 0 33 5 33 15 0 24 -47 23 -79 -3z"/>
<path d="M1765 507 c-13 -10 -15 -16 -6 -21 17 -11 41 0 41 19 0 19 -11 19
-35 2z"/>
<path d="M1175 121 c-3 -5 -1 -12 5 -16 13 -8 50 3 50 16 0 12 -47 12 -55 0z"/>
<path d="M877 64 c-11 -12 3 -24 28 -24 30 0 55 10 55 21 0 10 -73 12 -83 3z"/>
<path d="M766 46 c-58 -18 -61 -41 -5 -32 24 4 48 11 54 17 5 5 17 9 27 9 10
0 18 5 18 10 0 13 -45 11 -94 -4z"/>
</g>
</svg>
