<?xml version="1.0" standalone="no"?>
<!DOCTYPE svg PUBLIC "-//W3C//DTD SVG 20010904//EN"
 "http://www.w3.org/TR/2001/REC-SVG-20010904/DTD/svg10.dtd">
<svg version="1.0" xmlns="http://www.w3.org/2000/svg"
 width="1082.000000pt" height="597.000000pt" viewBox="0 0 1082.000000 597.000000"
 preserveAspectRatio="xMidYMid meet">

<g transform="translate(0.000000,597.000000) scale(0.100000,-0.100000)"
fill="#000000" stroke="none">
<path d="M130 5959 c0 -23 33 -79 47 -79 42 0 63 33 47 74 -7 19 -94 23 -94 5z"/>
<path d="M277 5945 c-12 -14 -38 -42 -57 -62 -33 -35 -35 -40 -36 -112 -1 -42
-4 -119 -7 -171 -8 -104 1 -137 40 -151 28 -10 68 20 78 58 6 26 7 27 17 8 28
-53 73 -60 82 -13 5 24 1 37 -16 55 -12 13 -28 21 -35 18 -7 -3 -19 -8 -27
-11 -8 -3 -15 3 -18 18 -3 13 -9 31 -13 41 -4 9 -3 17 3 17 5 0 12 -9 15 -20
3 -13 14 -20 28 -20 12 0 30 -7 39 -15 18 -16 61 -8 74 14 5 7 13 7 25 -1 15
-9 26 -7 55 10 21 12 55 25 77 28 22 4 42 10 44 14 6 10 45 1 63 -13 11 -9 10
-12 -7 -19 -12 -4 -26 -19 -31 -34 -14 -36 4 -57 46 -52 l32 4 -21 -38 c-12
-21 -29 -38 -37 -38 -29 0 -60 -30 -60 -59 0 -28 35 -71 58 -71 7 0 12 -9 12
-21 0 -16 -4 -19 -17 -14 -38 17 -79 17 -92 1 -18 -22 -29 -20 -33 6 -2 14
-23 32 -63 54 -65 36 -79 34 -90 -17 -5 -23 -1 -33 22 -53 l28 -24 -22 -24
c-15 -15 -23 -37 -23 -58 0 -20 -8 -42 -21 -56 l-21 -22 37 -74 c48 -97 92
-157 124 -170 14 -6 35 -15 46 -21 11 -6 40 -14 64 -17 39 -4 45 -9 55 -39 12
-39 76 -82 148 -101 24 -7 58 -21 77 -31 19 -11 53 -24 75 -29 86 -17 146 -35
146 -42 0 -5 -9 -8 -20 -8 -11 0 -24 -8 -27 -17 -4 -10 -15 -29 -25 -43 l-19
-24 33 -28 c28 -23 42 -28 95 -28 34 0 65 5 68 10 15 24 102 -20 107 -55 2
-16 10 -19 38 -17 21 1 41 11 51 23 13 18 23 20 60 16 24 -3 62 -10 84 -16 72
-19 160 -14 214 13 26 14 76 28 110 32 49 5 66 12 81 31 20 25 20 25 61 9 38
-15 43 -15 59 -1 9 8 24 13 33 9 11 -4 20 4 30 23 29 55 102 102 160 103 9 0
22 11 29 25 6 13 26 31 44 40 19 9 34 20 34 25 0 5 10 12 22 16 12 4 36 20 53
36 16 16 53 49 82 74 34 30 53 55 55 72 2 18 9 27 20 26 32 -3 122 59 140 96
12 24 28 38 52 45 22 7 47 27 71 59 34 45 36 51 21 62 -21 15 -14 20 54 40 27
8 50 19 50 23 0 5 11 11 24 15 13 3 35 24 50 47 22 32 30 38 41 29 8 -6 15
-24 17 -38 3 -25 6 -27 60 -30 56 -3 59 -2 98 38 39 40 40 40 65 24 25 -16 27
-16 55 11 17 16 30 37 30 47 0 15 19 61 51 120 5 10 9 25 9 33 0 13 7 15 34
10 32 -6 35 -4 51 29 17 36 17 38 -3 59 -15 16 -18 27 -12 37 23 36 5 90 -30
90 -28 0 -54 25 -46 45 6 16 8 17 24 1 10 -9 26 -16 36 -16 26 0 73 27 81 47
6 16 8 16 16 -5 7 -18 4 -30 -11 -49 -23 -30 -26 -71 -6 -79 7 -3 16 -23 20
-44 7 -44 31 -74 53 -65 11 3 13 1 9 -10 -3 -8 -9 -21 -12 -29 -3 -9 3 -19 15
-26 11 -6 28 -24 37 -41 13 -25 20 -30 40 -25 17 5 24 2 24 -8 0 -8 -10 -16
-22 -18 -46 -6 -29 -68 18 -68 17 0 28 8 35 28 7 15 16 37 22 49 l10 22 29
-24 c34 -29 46 -30 75 -10 35 24 37 -8 2 -41 -28 -27 -29 -27 -29 -6 0 27 -38
39 -70 22 -31 -17 -25 -72 10 -81 15 -3 31 0 41 8 15 13 16 10 14 -31 -3 -38
0 -47 21 -61 13 -8 24 -20 24 -26 0 -6 7 -26 16 -44 14 -30 14 -35 -4 -64 -16
-27 -18 -37 -8 -65 6 -19 18 -41 26 -51 22 -27 21 -174 -2 -204 -23 -30 -23
-46 2 -71 13 -13 33 -20 60 -20 l40 0 0 -40 c0 -44 19 -61 49 -43 12 7 21 4
33 -8 15 -16 14 -19 -18 -41 -41 -28 -62 -71 -45 -92 6 -8 25 -19 41 -26 25
-10 28 -15 19 -31 -17 -32 6 -96 42 -114 28 -15 32 -15 59 5 17 12 30 26 30
31 0 5 5 9 10 9 17 0 11 -39 -10 -60 -27 -27 -25 -62 6 -100 25 -29 25 -32 10
-49 -9 -10 -16 -27 -16 -39 0 -19 6 -22 38 -22 37 0 40 -2 51 -41 7 -22 19
-43 27 -46 12 -4 14 -14 10 -39 -4 -18 -2 -35 3 -39 6 -3 7 -15 2 -27 -9 -26
5 -109 20 -119 19 -11 64 6 67 27 6 38 12 48 23 37 8 -8 6 -18 -6 -36 -18 -27
-13 -47 10 -47 22 0 33 -30 28 -71 -4 -30 -2 -39 16 -48 11 -7 21 -20 21 -29
0 -10 7 -27 15 -38 8 -10 19 -35 25 -55 6 -23 19 -40 36 -47 15 -8 24 -19 22
-30 -5 -32 23 -80 53 -91 38 -13 109 -72 109 -90 0 -19 60 -112 84 -132 14
-11 32 -15 57 -12 34 5 39 2 53 -25 20 -40 21 -96 0 -116 -19 -19 -13 -19 -64
-1 -37 13 -45 13 -71 0 -29 -16 -47 -54 -34 -75 4 -7 20 -19 36 -29 24 -15 79
-82 79 -96 0 -9 -56 -5 -66 5 -15 15 -144 61 -155 55 -15 -10 -10 -29 15 -53
14 -12 28 -37 32 -55 7 -35 49 -101 83 -131 11 -11 21 -25 21 -31 0 -7 7 -18
15 -25 9 -7 27 -37 41 -67 14 -29 41 -65 60 -79 29 -23 34 -32 32 -62 -3 -31
0 -36 27 -43 64 -18 64 -59 0 -99 -28 -17 -35 -28 -35 -54 0 -18 7 -41 15 -52
23 -31 18 -44 -18 -44 -26 0 -37 -6 -47 -25 -20 -37 -6 -44 96 -49 49 -2 112
-11 139 -20 67 -21 124 -20 176 4 24 11 55 20 69 20 14 0 34 7 44 15 27 20
201 20 236 0 14 -8 49 -14 78 -15 53 0 54 1 112 62 68 72 75 102 35 154 -14
18 -25 38 -25 45 0 7 -12 25 -26 40 -23 24 -25 32 -18 75 6 43 15 57 84 125
42 42 87 82 100 89 21 11 26 10 38 -9 20 -29 101 -30 126 -2 17 19 17 21 -8
64 -14 24 -26 47 -26 50 0 12 35 8 48 -5 9 -9 17 -9 34 -1 38 18 69 22 95 12
15 -6 38 -6 58 0 19 5 39 5 49 -1 11 -6 28 -6 49 1 25 9 33 9 39 -4 11 -19 37
-19 59 1 14 13 22 13 39 4 18 -10 25 -8 42 10 19 20 21 20 33 3 12 -16 16 -16
39 -3 20 10 29 11 38 2 7 -7 22 -12 35 -12 18 0 22 -5 20 -22 -1 -16 6 -26 27
-36 28 -14 31 -14 50 12 12 15 42 51 67 80 39 45 49 65 64 132 16 71 63 175
86 190 5 3 9 18 9 35 0 38 31 69 61 62 29 -8 49 20 49 68 0 20 6 42 14 48 8 7
17 40 21 74 4 34 11 70 16 80 6 11 6 25 -2 39 -10 19 -9 24 6 33 60 34 72 85
30 125 -22 20 -25 31 -23 77 3 47 6 54 31 64 19 8 27 19 27 35 0 15 6 24 15
24 19 0 49 46 40 60 -4 6 1 17 10 24 17 12 17 15 0 60 -10 27 -27 53 -36 59
-17 10 -17 13 -2 29 8 10 13 26 10 38 -4 17 0 20 24 20 24 0 29 4 29 23 0 37
-27 83 -71 120 -21 19 -36 37 -32 40 9 10 76 8 92 -2 23 -15 51 6 51 36 0 16
-11 39 -27 55 -25 26 -25 29 -10 46 12 13 16 31 13 60 -2 23 -1 41 2 40 21 -2
31 6 46 37 15 31 15 38 2 70 -8 19 -20 35 -25 35 -13 0 -14 10 -2 29 6 10 13
10 28 2 15 -7 25 -7 39 3 16 12 17 18 6 37 -6 13 -11 33 -9 44 3 26 -35 32
-67 11 -22 -14 -36 -12 -36 5 0 4 15 11 33 14 17 4 39 13 47 20 8 8 27 18 43
24 15 6 27 15 27 20 0 5 -22 27 -49 48 -69 53 -71 63 -12 63 54 0 111 17 111
32 0 6 7 7 16 4 21 -8 77 32 70 50 -4 11 5 14 39 14 25 0 45 5 45 10 0 6 11
10 24 10 16 0 27 7 31 20 5 15 12 19 31 14 24 -6 28 -1 25 36 -2 29 15 43 37
31 17 -9 23 -6 43 24 22 32 51 44 84 34 6 -1 39 -4 75 -5 69 -3 100 12 100 47
0 23 31 89 42 89 13 0 9 -17 -7 -30 -22 -18 -18 -35 10 -48 37 -17 47 -15 79
18 23 24 27 32 17 44 -7 8 -27 16 -44 18 l-32 3 33 21 c25 16 44 21 72 17 31
-4 41 -2 52 16 7 11 22 21 33 21 17 0 16 -3 -7 -17 -57 -36 -60 -104 -6 -111
20 -2 32 6 57 39 36 50 39 72 10 93 -12 8 -18 19 -15 25 4 5 -16 34 -44 63
-51 53 -63 75 -34 64 9 -3 19 -6 24 -6 5 0 11 -8 15 -19 3 -10 24 -26 46 -37
40 -18 42 -18 56 1 8 11 12 28 10 37 -3 11 3 18 17 22 33 8 66 -4 66 -24 0
-17 19 -30 44 -30 6 0 20 13 29 30 17 28 17 30 -3 42 -11 7 -20 20 -20 29 0
23 -33 49 -62 49 -52 0 -58 7 -38 48 10 20 30 48 44 61 33 31 33 40 -5 53
l-30 10 29 18 c16 10 39 31 51 46 l23 29 -23 3 c-14 3 -30 -4 -39 -15 -16 -20
-116 -83 -130 -83 -5 0 -24 -12 -42 -27 -18 -16 -54 -39 -80 -52 -27 -13 -48
-29 -48 -35 0 -6 -7 -1 -15 11 -15 21 -57 26 -82 10 -11 -7 -43 -63 -43 -76 0
-4 22 -24 49 -44 48 -37 95 -48 105 -24 3 6 3 -4 0 -25 -5 -31 -2 -39 19 -52
13 -9 29 -28 35 -41 10 -22 9 -27 -6 -32 -9 -3 -23 -11 -30 -16 -7 -5 -28 -11
-47 -12 -20 -1 -45 -11 -58 -23 -13 -12 -30 -22 -38 -22 -34 0 -69 -51 -83
-120 -2 -11 -16 -15 -52 -15 l-49 1 4 78 3 79 -26 -5 c-23 -5 -25 -3 -20 18 8
30 -14 32 -57 7 -27 -16 -29 -22 -29 -73 0 -30 -3 -75 -8 -100 -7 -44 -8 -45
-44 -42 -34 2 -36 1 -45 -35 -8 -35 -12 -38 -43 -38 -28 0 -35 -4 -35 -20 0
-39 -92 -60 -126 -29 -24 22 -39 10 -39 -32 0 -29 -3 -34 -24 -34 -18 0 -25
-6 -28 -22 -4 -32 -43 -33 -282 -9 -109 12 -203 18 -208 15 -11 -7 -2 -52 15
-72 6 -8 22 -12 37 -8 17 3 36 -1 50 -11 22 -15 24 -15 41 6 14 17 23 20 36
13 10 -5 47 -12 83 -16 60 -6 68 -9 103 -47 34 -36 37 -43 24 -56 -23 -24 -90
-27 -149 -8 -56 17 -114 17 -112 0 1 -11 23 -23 109 -62 44 -19 55 -27 40 -30
-11 -3 -24 -8 -28 -13 -10 -9 42 -60 61 -60 9 0 11 -7 7 -19 -4 -14 1 -25 20
-37 17 -11 25 -25 25 -44 0 -27 -1 -27 -44 -23 -55 7 -64 -7 -33 -49 26 -36
26 -58 -2 -58 -9 0 -22 -5 -29 -12 -15 -15 0 -42 44 -85 19 -18 34 -35 34 -37
0 -2 -11 -1 -25 2 -14 2 -25 10 -25 17 0 7 -21 29 -46 50 -45 37 -46 38 -65
18 -20 -19 -20 -20 1 -46 l21 -26 -28 -7 c-48 -10 -53 -13 -53 -29 0 -18 18
-36 108 -110 57 -47 59 -50 38 -60 -13 -7 -21 -20 -21 -37 0 -15 -12 -39 -27
-55 -31 -32 -26 -48 15 -58 32 -8 55 -51 37 -69 -5 -5 -10 -23 -10 -39 0 -17
-4 -26 -11 -22 -15 10 -61 -36 -54 -53 3 -8 -6 -22 -19 -33 -20 -15 -24 -28
-25 -80 -1 -52 3 -67 24 -95 32 -42 32 -48 -9 -72 -32 -19 -33 -21 -33 -89 0
-75 -17 -143 -40 -156 -10 -6 -12 -20 -7 -54 5 -34 4 -44 -5 -38 -7 4 -25 2
-40 -5 -28 -11 -44 -33 -57 -80 -4 -14 -9 -27 -13 -30 -18 -15 -72 -145 -87
-208 -13 -59 -24 -81 -53 -110 -20 -21 -44 -48 -53 -62 l-17 -25 2 30 c2 27
-1 30 -32 33 -19 2 -44 10 -57 18 -12 9 -31 14 -41 12 -10 -1 -23 1 -30 5 -7
4 -25 1 -41 -7 -16 -8 -43 -14 -60 -14 -17 1 -38 -5 -47 -12 -12 -10 -16 -9
-21 4 -8 20 -33 20 -58 1 -14 -10 -24 -12 -38 -4 -11 6 -26 8 -34 5 -8 -3 -14
-1 -14 3 0 15 -24 19 -50 9 -26 -10 -111 -21 -145 -19 -54 4 -67 2 -80 -9 -21
-17 -19 -49 5 -88 11 -18 20 -35 20 -37 0 -13 -44 -3 -69 16 -42 31 -80 14
-177 -79 -94 -89 -100 -97 -109 -173 -6 -50 -4 -58 18 -85 13 -16 27 -39 31
-50 4 -12 15 -29 26 -39 29 -26 25 -41 -26 -101 -42 -48 -51 -54 -86 -54 -21
0 -53 7 -70 16 -38 20 -259 17 -266 -4 -2 -6 -16 -12 -30 -12 -15 0 -47 -9
-71 -20 -53 -24 -83 -25 -169 -4 -104 26 -112 30 -112 62 0 15 -7 37 -15 48
-23 30 -18 51 18 73 32 19 57 58 57 84 -1 17 -31 52 -58 66 -14 7 -22 21 -22
37 0 24 -39 74 -59 74 -5 0 -22 26 -37 57 -31 67 -56 104 -101 153 -37 41 -79
130 -60 130 7 0 27 -9 45 -20 33 -20 96 -26 119 -12 7 4 15 22 19 38 5 25 1
33 -19 47 -14 9 -28 25 -32 36 -3 11 -22 29 -41 40 -46 27 -36 46 20 36 69
-12 89 -8 113 20 30 35 30 96 1 155 -21 41 -26 45 -63 47 -22 1 -45 2 -51 2
-15 1 -74 95 -74 118 0 22 -91 100 -127 109 -14 4 -25 16 -28 30 -3 13 -7 35
-10 49 -3 14 -17 31 -30 37 -14 6 -25 16 -25 22 0 6 -8 27 -19 46 -10 19 -22
50 -26 68 -4 18 -14 36 -22 39 -10 4 -13 13 -8 30 4 16 -1 37 -14 58 -11 19
-17 42 -14 53 5 22 -22 82 -38 82 -23 0 -50 -23 -63 -53 l-14 -32 -1 36 c-1
19 4 40 10 46 8 8 8 17 0 31 -6 11 -11 43 -11 71 0 44 -3 50 -22 53 -17 2 -24
11 -26 31 -2 15 -6 27 -10 27 -4 0 -16 7 -26 15 -18 14 -18 16 -3 33 16 18 15
20 -23 51 -47 37 -49 49 -14 82 14 13 23 31 21 41 -3 9 2 26 10 38 8 11 15 35
15 53 0 41 26 123 43 137 11 9 10 19 -6 57 -10 24 -19 53 -19 63 0 22 -28 40
-62 40 -23 0 -48 -14 -107 -58 -44 -33 -42 -4 4 47 l35 39 -27 41 c-14 22 -30
41 -34 41 -13 0 -29 -36 -29 -64 0 -13 -3 -32 -7 -42 -5 -14 -10 -12 -34 17
-22 27 -30 32 -40 22 -17 -17 -89 -17 -89 -1 0 7 12 24 27 40 23 24 24 29 12
44 -9 11 -14 42 -15 85 0 37 -6 74 -13 82 -24 29 -31 78 -16 101 19 27 19 70
0 86 -8 7 -15 23 -15 36 0 13 -8 28 -18 33 -12 6 -18 22 -19 49 -2 52 25 82
73 82 28 0 36 -5 44 -26 6 -15 19 -38 30 -52 12 -15 20 -40 20 -64 0 -32 4
-40 26 -48 73 -28 142 2 163 71 7 24 19 62 27 84 8 23 14 53 14 68 0 15 9 50
20 79 28 74 25 104 -20 235 -52 152 -52 155 10 181 27 12 50 26 50 31 0 19
-64 11 -105 -12 -54 -31 -55 -53 -6 -188 51 -139 58 -177 37 -216 -8 -17 -18
-50 -21 -74 -4 -24 -12 -62 -19 -84 -8 -22 -19 -59 -25 -82 -13 -47 -38 -66
-79 -61 -22 2 -28 9 -33 38 -3 19 -18 64 -34 98 -29 65 -50 82 -101 82 -18 0
-27 9 -38 35 -16 38 -41 46 -51 16 -12 -39 -31 -43 -64 -16 -17 15 -41 26 -53
25 -63 -5 -83 0 -98 28 -12 21 -13 34 -6 55 9 24 7 31 -9 43 -10 8 -29 14 -41
14 -20 0 -23 5 -21 40 1 22 4 40 8 40 16 0 19 51 4 74 -9 13 -15 39 -13 58 1
19 -4 49 -11 66 -12 28 -18 32 -54 32 -38 0 -39 -1 -24 -18 25 -28 21 -67 -9
-91 -15 -12 -30 -21 -35 -21 -4 0 -11 29 -14 65 l-7 65 -52 -1 c-28 0 -44 -3
-36 -6 23 -9 30 -24 30 -66 0 -34 -2 -37 -19 -27 -29 15 -49 12 -60 -8 -8 -14
0 -28 38 -70 26 -29 54 -52 62 -52 33 -1 43 -16 29 -49 -11 -28 -10 -34 5 -51
10 -11 15 -26 12 -35 -5 -12 -11 -13 -31 -3 -26 11 -56 -2 -56 -24 0 -6 -7
-34 -16 -64 -12 -42 -20 -54 -36 -54 -13 0 -24 -10 -31 -30 -6 -16 -17 -30
-24 -30 -21 0 -81 -40 -97 -66 -23 -33 -81 -35 -91 -1 -12 37 -43 64 -77 65
-35 1 -44 8 -50 37 -2 16 -12 21 -47 23 -71 5 -72 -11 -7 -73 61 -59 63 -76
11 -89 -14 -4 -25 -10 -25 -15 0 -5 -21 -14 -47 -21 -27 -7 -55 -19 -64 -27
-8 -7 -30 -13 -48 -13 -24 0 -34 -6 -43 -25 -14 -32 -2 -46 40 -47 30 -1 30
-1 14 -26 -15 -23 -20 -24 -94 -20 -71 4 -81 3 -93 -15 -19 -27 -5 -43 43 -52
l37 -7 -28 -24 c-15 -13 -40 -26 -55 -29 -53 -11 -77 -29 -80 -61 -2 -22 -15
-39 -49 -64 -25 -19 -61 -50 -79 -67 -18 -18 -38 -33 -45 -33 -13 0 -19 -5
-82 -64 -22 -20 -43 -34 -47 -31 -14 9 -90 -36 -134 -79 -23 -22 -45 -39 -50
-37 -5 1 -17 -6 -27 -15 -16 -15 -17 -15 -12 4 6 26 -47 58 -66 39 -6 -6 -11
-14 -11 -18 0 -4 -13 -21 -30 -37 -22 -23 -43 -32 -82 -37 -29 -4 -79 -18
-110 -32 -50 -22 -68 -25 -132 -21 -43 3 -85 12 -98 20 -15 10 -35 14 -53 10
-22 -4 -27 -2 -22 10 14 39 -42 39 -98 1 -28 -19 -40 -16 -53 11 -15 34 -72
96 -87 96 -8 0 -15 -12 -17 -27 -2 -20 -9 -29 -25 -31 -12 -2 -25 -12 -28 -23
-6 -19 -31 -25 -52 -11 -18 11 -4 52 18 52 35 0 47 49 25 102 -5 11 -1 18 13
23 29 9 27 43 -3 51 -43 10 -66 -4 -66 -40 l0 -32 -72 18 c-39 10 -94 29 -122
43 -27 14 -59 25 -70 26 -38 1 -109 52 -118 84 -10 39 -33 55 -80 55 -25 0
-41 5 -44 15 -4 8 -18 15 -33 15 -34 0 -90 65 -125 144 -23 51 -24 58 -10 83
7 16 14 43 14 60 0 24 7 37 25 49 33 22 32 38 -7 74 -36 32 -25 39 23 14 25
-13 30 -20 27 -47 -3 -31 -2 -32 32 -29 19 1 48 9 64 17 28 14 31 14 55 -9 93
-86 153 -102 127 -35 -10 28 -9 33 17 55 29 25 38 28 220 69 99 23 117 30 117
46 0 23 -41 25 -145 5 -159 -31 -199 -45 -227 -78 -15 -17 -31 -29 -34 -25 -4
4 0 15 9 25 15 16 15 20 2 39 -9 13 -29 23 -48 25 -44 4 -46 39 -1 48 44 9 54
18 54 45 0 28 69 91 109 100 14 3 42 19 61 35 33 27 34 30 18 46 -14 14 -20
15 -33 4 -13 -11 -19 -10 -35 5 -16 15 -25 16 -44 7 -28 -12 -68 -5 -63 12 1
6 23 21 47 34 28 14 51 35 62 56 14 28 29 38 75 53 71 24 85 52 26 54 -21 1
-41 1 -45 0 -5 0 -8 17 -8 40 0 36 -2 40 -22 37 -15 -2 -25 -13 -31 -33 -21
-73 -40 -98 -77 -101 -19 -2 -54 -6 -77 -10 -38 -5 -46 -3 -74 25 -34 34 -46
37 -73 18 -16 -11 -17 -17 -7 -36 10 -19 9 -24 -11 -41 l-23 -18 40 -35 40
-35 -27 -6 c-74 -16 -73 -16 -90 14 -9 17 -21 30 -27 30 -17 0 -41 -31 -41
-53 0 -32 -15 -51 -34 -44 -11 5 -16 19 -16 52 0 50 -2 51 -53 30 -49 -20 -53
-19 -67 15 -7 17 -16 30 -21 30 -4 0 -11 16 -15 35 -6 32 -2 40 37 83 50 54
59 60 59 37 0 -13 6 -16 25 -13 29 6 30 1 10 -38 -12 -24 -12 -31 -1 -42 11
-12 18 -11 44 2 39 20 43 28 47 79 2 23 4 46 4 50 1 5 18 7 39 5 30 -2 37 -7
37 -25 0 -11 3 -24 7 -28 12 -12 58 4 58 20 0 9 9 15 24 15 35 0 56 10 56 26
0 11 -28 14 -145 14 -131 0 -145 -2 -145 -17 -1 -17 -1 -17 -11 0 -15 26 -65
22 -92 -8z m8529 -134 c-10 -11 -15 -24 -12 -30 4 -5 -6 -11 -21 -13 -25 -3
-28 -7 -27 -35 2 -37 -10 -41 -44 -17 -32 22 -28 33 21 54 24 11 52 28 62 40
10 11 23 20 28 20 6 0 2 -9 -7 -19z m64 -6 c-13 -14 -26 -22 -29 -19 -3 3 5
14 18 25 33 27 39 24 11 -6z m-8238 -55 c-11 -28 -23 -12 -15 19 3 13 9 19 15
13 5 -5 5 -19 0 -32z m103 -26 c-36 -24 -65 -26 -65 -5 0 6 12 13 28 17 15 3
32 7 37 9 33 11 33 2 0 -21z m7845 0 c0 -8 -4 -12 -10 -9 -5 3 -10 10 -10 16
0 5 5 9 10 9 6 0 10 -7 10 -16z m243 -28 c38 -38 41 -56 9 -56 -21 0 -27 5
-28 23 0 12 -4 30 -8 40 -11 24 -1 21 27 -7z m-89 -35 c17 -6 17 -8 4 -14 -9
-3 -24 1 -35 8 -14 11 -15 14 -3 14 8 0 24 -4 34 -8z m-8494 -41 c0 -10 5 -22
10 -25 12 -8 13 -75 1 -94 -14 -23 -41 -5 -41 27 0 53 13 122 21 116 5 -3 9
-14 9 -24z m500 -40 c0 -5 -7 -10 -16 -10 -8 0 -12 5 -9 10 3 6 10 10 16 10 5
0 9 -4 9 -10z m7996 -208 c-18 -16 -18 -16 -6 6 6 13 14 21 18 18 3 -4 -2 -14
-12 -24z m-469 -74 c-3 -8 -6 -5 -6 6 -1 11 2 17 5 13 3 -3 4 -12 1 -19z
m-4017 -612 c0 -3 -4 -8 -10 -11 -5 -3 -10 -1 -10 4 0 6 5 11 10 11 6 0 10 -2
10 -4z m217 -26 c-1 -11 -2 -20 -2 -20 0 0 -8 9 -18 20 -16 19 -16 20 2 20 14
0 19 -6 18 -20z m-7 -106 c0 -50 -49 -66 -114 -39 -12 5 -29 3 -45 -7 -29 -16
-51 -13 -51 6 0 20 70 64 112 71 25 5 39 14 44 27 6 19 6 19 30 -3 16 -15 24
-34 24 -55z m-114 -83 c5 -5 20 -11 34 -14 14 -2 5 -5 -22 -6 -45 -1 -58 6
-41 22 9 9 17 9 29 -2z m69 -61 c-3 -5 -12 -10 -19 -10 -8 0 -21 -12 -30 -26
-21 -31 -47 -28 -57 8 -7 27 -6 27 49 31 32 2 58 4 60 5 2 1 0 -2 -3 -8z"/>
<path d="M9048 5941 c-32 -29 -33 -29 -14 -50 25 -28 33 -27 67 10 34 37 36
45 10 59 -27 14 -26 14 -63 -19z"/>
<path d="M9035 5756 c-21 -15 -15 -43 11 -53 11 -4 24 2 35 16 33 40 -3 69
-46 37z"/>
<path d="M448 5469 c-10 -5 -18 -14 -18 -20 0 -11 123 -69 146 -69 19 0 28 24
20 54 -5 19 -14 24 -53 29 -27 3 -55 8 -63 11 -8 3 -23 1 -32 -5z"/>
<path d="M8645 5306 c-38 -16 -59 -41 -51 -61 9 -25 52 -17 86 16 47 47 27 73
-35 45z"/>
<path d="M9233 4763 c-9 -23 14 -62 41 -69 25 -6 86 19 86 36 0 13 -30 28 -79
39 -34 7 -43 6 -48 -6z"/>
<path d="M9189 4379 c-14 -5 -31 -21 -37 -34 -10 -23 -16 -24 -72 -22 -48 1
-64 -2 -74 -15 -11 -15 -13 -15 -24 3 -18 29 -59 24 -93 -12 -16 -17 -29 -35
-29 -40 0 -5 -12 -9 -26 -9 -40 0 -56 -13 -112 -92 -28 -40 -77 -93 -107 -118
-74 -61 -88 -92 -74 -162 6 -29 15 -57 20 -63 15 -16 10 -51 -11 -70 -25 -23
-26 -57 -1 -79 10 -9 21 -31 25 -48 3 -17 11 -37 18 -45 12 -15 16 -79 5 -90
-4 -3 -7 -13 -7 -21 0 -7 -9 -27 -21 -43 -25 -36 -13 -59 33 -59 35 0 63 14
101 48 25 23 27 31 21 69 -8 57 13 88 81 118 29 13 56 28 59 33 3 6 21 13 40
16 44 8 60 28 53 65 -5 21 -1 33 16 48 31 29 62 43 90 43 30 0 40 21 27 55 -8
20 -16 25 -45 25 -45 0 -51 16 -36 86 10 43 10 58 1 69 -10 12 -10 21 0 44 10
25 18 30 53 33 36 3 42 7 45 28 5 34 30 60 59 60 13 0 26 7 29 15 4 8 12 15
20 15 18 0 36 34 28 54 -7 17 39 41 62 32 17 -6 34 14 34 41 0 18 -6 23 -27
23 -16 0 -44 2 -63 5 -19 2 -47 0 -61 -6z m33 -45 c-13 -9 -22 -26 -22 -40 0
-14 -4 -22 -10 -19 -27 16 3 75 38 75 13 0 12 -3 -6 -16z m-260 -82 c10 -39
35 -42 67 -8 29 31 71 39 93 19 16 -15 16 -17 -7 -35 -14 -11 -32 -33 -41 -50
-12 -22 -21 -29 -42 -28 -45 3 -52 1 -52 -20 0 -11 -7 -37 -15 -57 -14 -32
-14 -39 -1 -51 12 -12 12 -21 2 -56 -17 -56 -4 -103 32 -117 l27 -11 -35 -18
c-19 -10 -50 -34 -69 -54 -33 -34 -34 -37 -18 -54 20 -22 13 -32 -23 -32 -15
0 -34 -7 -41 -16 -7 -9 -37 -28 -66 -41 -63 -30 -95 -75 -93 -130 3 -59 2 -62
-30 -78 -16 -8 -31 -15 -34 -15 -11 0 22 63 38 72 18 10 23 78 6 78 -5 0 -10
7 -10 15 0 8 -8 22 -19 32 -10 10 -21 32 -25 48 -4 17 -15 38 -23 48 -15 16
-15 19 -1 30 9 6 20 27 26 45 9 27 8 38 -9 66 -11 19 -21 53 -22 76 -1 40 2
45 71 108 39 37 92 95 117 130 39 54 49 62 77 62 27 1 38 8 61 41 32 46 48 46
59 1z"/>
<path d="M3635 4154 c-16 -9 -49 -32 -72 -51 -67 -54 -118 -73 -201 -73 -70 0
-75 -2 -100 -31 -15 -17 -42 -46 -61 -63 -18 -17 -63 -74 -99 -126 -128 -186
-144 -195 -332 -195 -112 0 -139 -3 -161 -17 -29 -20 -105 -27 -161 -14 -34 7
-40 5 -65 -22 -15 -16 -44 -47 -65 -68 -20 -22 -64 -75 -97 -119 -46 -60 -61
-87 -61 -112 0 -21 5 -33 13 -33 8 0 25 -17 38 -37 13 -21 38 -45 56 -54 17
-9 44 -31 60 -50 27 -32 27 -32 3 -16 -13 9 -39 17 -58 17 -58 0 -95 28 -86
65 3 11 -2 29 -10 40 -14 19 -15 19 -35 1 -11 -10 -29 -46 -41 -81 -17 -53
-21 -88 -22 -241 0 -98 -1 -213 -2 -254 -1 -74 -1 -75 24 -75 21 0 26 5 28 33
3 29 6 32 25 26 33 -10 47 -24 47 -48 0 -12 11 -38 25 -58 14 -20 25 -39 25
-42 0 -6 -76 -56 -85 -56 -3 0 -5 8 -5 18 -1 30 -39 102 -55 102 -19 0 -19
-13 1 -118 18 -96 15 -120 -22 -202 -30 -66 -24 -93 23 -104 16 -4 45 -18 65
-32 21 -13 44 -24 52 -24 7 0 16 -12 19 -27 9 -42 60 -98 82 -90 14 6 16 15
12 45 -9 51 3 67 39 55 33 -11 41 -34 43 -113 1 -30 5 -72 10 -93 8 -33 7 -38
-7 -35 -10 2 -17 12 -17 23 0 16 -8 21 -36 23 -49 4 -69 -17 -69 -73 0 -34 -4
-44 -20 -48 -14 -3 -33 -33 -59 -88 -50 -105 -46 -121 30 -125 61 -3 84 9 69
36 -6 10 -19 22 -30 25 -27 9 -27 56 0 73 11 7 20 21 20 32 0 15 7 20 28 20
29 0 62 26 62 48 0 7 7 12 16 12 12 0 13 -5 7 -22 -4 -13 -7 -39 -5 -58 1 -19
4 -73 6 -120 6 -127 12 -147 57 -176 21 -13 46 -36 56 -51 9 -16 28 -40 42
-55 19 -21 21 -28 9 -28 -8 0 -27 -9 -42 -21 -25 -19 -26 -23 -13 -42 8 -12
25 -25 38 -28 18 -5 13 -7 -20 -8 -46 -1 -120 -19 -135 -33 -6 -4 -11 -13 -12
-20 -1 -7 -6 -27 -9 -44 -6 -26 -3 -34 21 -53 19 -15 35 -20 49 -16 11 4 33 9
49 12 l29 6 -7 -51 c-6 -44 -3 -54 17 -77 21 -25 25 -26 44 -14 18 10 24 11
37 0 9 -8 16 -21 16 -31 0 -15 -6 -17 -37 -13 -24 3 -45 -1 -57 -10 -19 -14
-18 -16 13 -71 22 -37 45 -63 68 -75 l36 -18 -53 -7 c-45 -6 -60 -3 -105 18
-94 46 -126 32 -167 -74 -38 -97 -38 -96 -23 -141 19 -52 19 -49 -4 -49 -11 0
-33 11 -49 25 -55 46 -104 26 -117 -47 -7 -34 -5 -38 19 -44 16 -4 26 -13 26
-25 0 -31 -28 -38 -71 -16 -21 10 -39 21 -39 23 0 3 11 9 25 14 37 14 32 49
-15 103 -24 27 -40 55 -40 71 0 42 -46 47 -205 26 -143 -19 -240 -17 -292 6
-37 17 -50 17 -92 3 -38 -13 -40 -36 -4 -45 l27 -7 -44 -38 c-40 -35 -44 -41
-32 -59 10 -17 10 -20 -3 -20 -25 0 -47 -68 -43 -131 4 -50 2 -56 -14 -51 -23
6 -33 19 -48 65 -14 45 -41 58 -115 58 -55 0 -182 -18 -199 -29 -6 -3 -74 -9
-151 -13 -121 -5 -153 -10 -235 -39 -52 -17 -99 -36 -104 -41 -6 -5 -19 -9
-29 -9 -35 0 -134 -85 -143 -123 -5 -23 -3 -27 15 -27 14 0 23 8 27 24 3 14
19 31 39 40 18 9 38 22 45 31 7 8 20 15 29 15 9 0 21 4 27 10 5 5 59 26 119
45 99 33 120 36 205 34 52 -1 113 3 135 9 66 19 218 38 255 32 30 -4 37 -10
48 -44 17 -53 27 -64 74 -78 21 -6 43 -19 48 -29 5 -9 26 -20 46 -23 34 -7 36
-9 30 -37 -5 -27 -3 -30 17 -27 16 2 23 11 25 33 2 17 8 34 13 40 5 5 9 17 9
27 0 11 11 23 26 28 47 18 21 35 -69 44 l-87 9 0 39 c0 49 15 78 39 78 22 0
37 46 21 65 -8 9 -2 19 22 37 50 38 102 51 172 45 38 -4 112 1 196 13 120 17
171 15 163 -4 -7 -15 -1 -27 32 -66 42 -50 43 -56 10 -64 -14 -4 -25 -13 -25
-21 0 -27 23 -65 40 -65 10 0 29 -9 43 -20 14 -11 33 -20 44 -20 27 1 63 35
73 70 11 38 5 57 -21 65 -23 8 -25 33 -3 42 9 3 23 -3 35 -16 19 -21 30 -24
102 -36 48 -8 58 13 28 65 -11 21 -21 51 -21 68 0 28 34 124 53 149 11 15 53
17 62 4 3 -5 28 -17 55 -26 47 -15 56 -16 129 -1 43 9 101 16 129 16 47 0 53
-3 79 -38 15 -20 43 -56 63 -79 19 -23 46 -56 59 -73 41 -54 196 -115 220 -86
15 17 -24 52 -68 61 -78 17 -100 32 -107 76 -6 33 -13 44 -40 57 -22 10 -37
27 -44 48 -8 23 -25 41 -57 60 -42 24 -68 30 -215 49 -36 4 -43 9 -67 50 -21
37 -18 41 22 26 17 -7 30 -6 41 2 22 17 23 77 1 110 -15 24 -24 28 -56 26 -21
-2 -41 0 -45 4 -11 11 17 65 37 70 21 6 44 56 31 69 -8 8 -159 -13 -180 -26
-5 -3 -15 1 -22 8 -9 12 -7 17 9 26 12 6 21 17 21 24 0 16 31 26 83 26 21 0
52 7 70 16 87 44 90 82 13 151 -29 26 -61 62 -70 80 -9 17 -28 39 -44 48 -24
15 -62 82 -62 111 0 12 53 24 105 24 51 0 209 -43 225 -62 21 -25 162 -24 209
1 16 9 30 10 49 3 15 -6 44 -13 65 -17 20 -3 46 -15 57 -27 15 -17 27 -20 59
-15 38 5 41 3 62 -31 26 -44 23 -138 -4 -153 -9 -5 -30 -21 -47 -36 -26 -21
-29 -28 -18 -39 11 -11 27 -10 88 2 41 8 81 12 88 9 14 -5 16 -61 2 -70 -17
-10 -11 -39 10 -52 15 -10 22 -10 35 3 8 8 15 22 15 29 0 16 50 45 77 45 10 0
27 -6 38 -13 11 -7 43 -22 70 -32 28 -10 64 -29 81 -42 41 -31 74 -29 139 8
44 25 62 30 90 25 31 -6 34 -10 40 -50 10 -63 -1 -85 -50 -107 -24 -10 -45
-25 -48 -33 -3 -7 -22 -17 -43 -20 -38 -8 -73 -39 -74 -67 0 -20 41 -59 62
-59 9 0 18 -7 22 -15 7 -19 39 -19 77 0 16 9 49 19 73 24 45 8 75 -5 89 -41 4
-13 17 -17 52 -16 29 0 52 -5 64 -16 26 -23 47 -11 68 39 10 25 28 50 40 56
13 7 32 32 44 56 21 44 50 60 87 51 10 -3 66 3 125 12 93 15 110 21 128 43 25
33 98 66 130 60 15 -3 37 5 59 21 65 47 140 77 177 70 18 -3 36 -10 39 -15 12
-19 55 -8 81 21 14 17 31 30 37 30 18 0 44 -35 59 -82 14 -39 21 -45 73 -66
32 -13 64 -32 72 -43 7 -10 19 -19 27 -19 7 0 29 -19 48 -42 33 -39 37 -41 54
-27 10 8 42 21 71 28 46 11 56 11 78 -4 25 -16 26 -26 10 -66 -5 -11 6 -30 35
-59 l43 -43 -22 -15 c-25 -16 -31 -72 -9 -72 8 0 33 -14 57 -31 71 -51 127
-72 176 -65 l43 6 -5 -30 c-4 -17 0 -46 10 -70 9 -22 16 -52 16 -66 0 -14 7
-38 15 -55 9 -16 26 -70 38 -119 19 -74 21 -92 10 -106 -19 -26 -16 -54 5 -54
10 0 26 17 39 41 20 36 21 43 8 62 -7 12 -20 54 -28 94 -8 39 -22 82 -31 94
-9 13 -16 38 -16 55 0 17 -7 48 -15 67 -8 20 -15 39 -15 42 0 22 136 -25 156
-54 19 -27 46 -27 69 -1 18 20 18 21 -8 46 -36 33 -34 62 5 77 15 5 15 9 -1
52 -10 26 -24 51 -32 56 -22 14 -94 11 -125 -6 -40 -21 -57 -19 -82 8 l-22 24
54 -5 c45 -4 65 1 132 31 75 34 240 87 271 87 7 0 69 18 136 40 67 21 174 50
238 64 63 14 140 35 170 47 38 15 83 23 154 26 111 5 155 17 155 42 0 10 16
25 36 35 30 14 35 21 32 41 -4 19 7 35 51 78 69 67 80 73 156 82 105 12 178
35 210 65 47 45 199 96 355 120 74 11 160 26 190 34 30 8 107 17 171 21 93 5
123 4 152 -9 33 -13 36 -17 28 -39 -8 -20 -5 -29 15 -48 14 -13 24 -34 24 -51
0 -15 5 -28 10 -28 18 0 50 -64 50 -100 0 -58 10 -78 43 -89 17 -6 38 -18 46
-25 24 -21 119 -44 188 -45 136 -2 331 35 390 74 18 12 32 13 65 5 24 -5 282
-19 573 -30 292 -11 565 -23 608 -27 73 -5 77 -5 77 15 0 28 7 28 -625 52
-297 11 -559 23 -583 26 l-43 5 63 62 c42 42 76 87 101 138 l39 76 -15 55
c-22 85 -21 86 146 85 95 0 150 4 165 12 19 10 28 10 47 -3 16 -11 48 -16 95
-16 49 0 79 -5 96 -16 37 -25 155 -31 198 -10 19 9 39 16 45 16 6 0 19 8 30
19 17 17 18 23 6 67 -7 27 -16 73 -20 101 -6 48 -5 54 15 61 11 4 27 19 33 32
20 39 44 36 86 -9 33 -35 44 -41 79 -41 38 0 42 2 42 25 0 22 -4 25 -37 25
-29 0 -43 7 -73 40 -24 27 -46 40 -62 40 -21 0 -29 8 -41 39 -9 21 -14 47 -11
57 10 38 -57 239 -98 294 -21 29 -23 42 -23 158 l0 127 35 3 c45 5 54 13 69
61 12 40 60 81 95 81 30 0 146 74 146 93 0 25 -19 21 -84 -18 -32 -19 -68 -35
-79 -35 -37 0 -95 -49 -113 -96 -14 -38 -21 -44 -46 -44 -18 0 -31 6 -34 18
-3 9 -14 37 -24 62 -15 34 -18 63 -16 120 4 87 11 107 37 115 25 8 25 45 -1
78 -24 31 -24 38 0 107 11 30 19 82 20 116 l0 61 49 23 c27 12 63 38 81 56 17
19 35 34 40 34 5 0 18 15 29 34 17 27 22 56 27 147 4 91 9 118 24 134 10 11
24 34 33 50 8 17 24 39 36 49 14 13 21 31 21 55 l0 36 -25 -30 c-14 -16 -38
-48 -52 -70 -15 -22 -37 -51 -49 -65 -20 -22 -23 -39 -28 -140 -3 -64 -8 -122
-11 -131 -10 -26 -106 -104 -163 -133 -31 -16 -52 -33 -53 -44 0 -9 0 -39 1
-67 0 -28 -8 -76 -20 -110 -16 -46 -20 -73 -15 -115 4 -34 2 -66 -6 -85 -6
-17 -13 -66 -15 -109 -2 -67 1 -89 23 -140 23 -55 26 -76 28 -206 2 -85 8
-159 15 -178 8 -23 11 -66 8 -130 -6 -104 -30 -177 -80 -237 -13 -16 -37 -50
-53 -75 -35 -56 -178 -189 -241 -226 -44 -26 -53 -28 -165 -27 -64 1 -127 4
-139 8 -26 8 -49 -9 -66 -51 -11 -26 -11 -39 2 -80 14 -48 14 -50 -18 -114
-41 -81 -84 -129 -173 -195 -79 -58 -142 -79 -280 -95 -141 -16 -251 -5 -305
30 -14 8 -34 21 -45 26 -14 8 -22 26 -26 60 -7 51 -37 124 -51 124 -4 0 -8 8
-8 19 0 10 -9 30 -20 44 -11 14 -20 27 -20 30 0 3 32 -10 70 -29 39 -19 74
-34 78 -34 4 0 18 -16 31 -35 25 -38 47 -42 65 -13 19 31 -36 72 -192 143
l-145 67 -121 -7 c-67 -3 -157 -15 -201 -25 -44 -10 -132 -26 -195 -35 -134
-20 -286 -72 -345 -120 -41 -33 -93 -49 -200 -61 -33 -4 -70 -12 -82 -18 -43
-22 -163 -144 -163 -166 0 -13 -9 -24 -25 -30 -13 -5 -27 -20 -30 -33 -6 -23
-11 -24 -118 -30 -81 -4 -127 -11 -167 -27 -30 -12 -120 -37 -200 -55 -80 -18
-175 -44 -211 -58 -36 -14 -92 -30 -125 -37 -79 -15 -272 -79 -309 -102 -18
-10 -49 -18 -76 -18 -49 0 -63 8 -150 85 -26 23 -66 47 -89 55 -30 10 -49 24
-63 47 -14 25 -26 33 -48 33 -16 0 -29 -5 -29 -10 0 -7 -7 -7 -21 1 -17 8 -30
8 -58 -4 -63 -27 -97 -28 -117 -5 -11 11 -28 24 -39 29 -16 6 -14 8 13 8 30 1
33 4 32 29 -3 44 -1 48 25 60 38 17 70 15 117 -9 43 -22 52 -19 61 22 8 33
-16 67 -59 85 -42 18 -43 36 -3 72 27 24 29 30 20 55 -14 36 -46 47 -114 40
-61 -6 -80 7 -53 36 37 41 -2 61 -84 41 -55 -13 -67 -24 -51 -44 17 -20 -6
-63 -36 -69 -17 -3 -21 -1 -14 6 20 20 12 37 -18 37 -26 0 -31 -5 -46 -51 -20
-58 -11 -78 24 -60 12 7 21 16 21 21 0 6 5 10 10 10 6 0 10 -7 10 -15 0 -9 7
-18 15 -21 14 -6 13 -8 -2 -19 -17 -13 -17 -14 0 -32 24 -27 22 -30 -18 -31
-35 -1 -67 19 -77 49 -4 12 -11 12 -38 2 -27 -10 -35 -10 -44 2 -8 9 -42 15
-116 18 -58 3 -116 8 -130 12 -21 5 -28 1 -44 -27 -47 -81 -98 -137 -142 -154
-25 -9 -53 -29 -64 -43 -16 -23 -31 -29 -112 -41 -51 -8 -106 -14 -123 -12
-58 5 -86 -11 -114 -63 -22 -42 -31 -50 -56 -51 -17 -1 -38 -2 -47 -3 -10 0
-33 -17 -53 -36 -34 -35 -35 -35 -54 -16 -43 43 -63 50 -119 41 -29 -5 -67
-16 -83 -24 -27 -14 -33 -14 -46 -1 -8 8 -23 15 -33 15 -47 0 -31 32 25 50 22
7 44 19 48 27 5 7 26 21 48 30 52 20 73 60 66 122 -4 38 -1 51 18 76 20 25 31
29 71 30 26 0 49 5 51 10 1 6 -14 32 -35 60 -64 85 -133 93 -185 23 -20 -27
-20 -28 -2 -48 10 -11 26 -20 37 -20 10 0 18 -4 18 -10 0 -5 -23 -10 -52 -10
-39 0 -64 -7 -105 -30 -64 -36 -75 -37 -116 -7 -18 13 -60 34 -95 47 -34 12
-65 27 -68 31 -7 12 -81 11 -89 -1 -11 -17 -33 -11 -28 8 6 26 -58 55 -103 46
l-34 -6 15 28 c24 47 18 131 -13 183 -36 58 -54 69 -86 52 -21 -12 -27 -11
-48 5 -48 39 -25 94 25 61 38 -25 82 -29 121 -13 41 17 44 31 17 84 -23 44
-55 74 -98 91 -17 7 -39 21 -49 32 -24 27 -75 25 -103 -5 -24 -26 -61 -25 -61
2 0 8 -8 24 -17 35 -17 18 -17 19 1 33 11 7 29 11 42 8 16 -4 30 1 48 20 33
32 32 44 -2 108 -33 60 -44 98 -31 98 5 0 14 11 21 25 11 24 12 24 39 8 34
-20 43 -39 23 -47 -23 -9 -16 -34 14 -53 35 -23 42 -32 42 -63 0 -14 6 -32 13
-41 16 -20 98 -59 125 -59 27 0 29 -21 2 -38 -34 -21 -24 -40 23 -46 73 -9
101 -14 142 -25 98 -27 136 -31 158 -17 12 8 43 17 69 20 39 6 51 13 67 39 27
43 41 112 31 147 -5 17 -4 32 2 38 16 16 2 53 -36 99 -31 35 -34 43 -21 53 22
18 19 38 -15 90 -28 44 -71 76 -84 63 -3 -4 -6 -28 -6 -53 0 -47 -8 -61 -43
-73 -15 -6 -17 -3 -12 16 11 36 11 38 -10 50 -11 7 -23 17 -28 24 -4 6 -26 19
-50 28 -41 15 -44 15 -133 -14 -50 -16 -105 -36 -122 -45 -39 -20 -61 -20 -84
0 -17 16 -17 18 8 40 32 31 24 44 -29 45 l-42 1 51 9 c123 20 154 45 154 122
0 26 -4 37 -15 37 -8 0 -15 5 -15 10 0 18 43 11 65 -10 18 -17 27 -19 48 -11
16 6 27 18 27 30 0 10 6 24 14 30 26 22 35 162 14 215 -10 25 -9 30 13 47 31
24 34 24 48 -7 9 -20 17 -25 35 -22 17 4 25 -2 35 -23 14 -33 36 -43 62 -28
16 8 18 17 14 42 -5 25 -2 37 14 51 21 19 21 19 21 -12 0 -25 5 -33 25 -38 36
-9 55 2 55 31 0 18 17 42 55 80 30 31 55 62 55 70 0 8 7 35 16 60 l15 46 -32
37 c-48 55 -80 65 -161 52 -99 -15 -131 -13 -169 13 -25 17 -33 30 -32 48 2
25 -11 86 -32 154 -13 39 -18 84 -16 137 1 15 12 37 25 50 13 13 31 45 40 71
23 70 40 98 75 130 22 19 30 34 27 50 -15 69 -16 101 -5 135 12 42 4 66 -42
123 -19 24 -20 28 -6 62 9 19 34 54 57 76 46 45 50 75 10 78 -14 2 -38 -5 -55
-13z m-25 -84 c-48 -67 -45 -112 10 -181 17 -21 19 -30 10 -53 -6 -16 -7 -56
-4 -96 6 -62 5 -69 -15 -79 -22 -12 -63 -86 -75 -136 -4 -16 -18 -41 -31 -55
-33 -36 -44 -86 -34 -156 5 -32 14 -70 19 -83 11 -23 10 -24 -41 -19 -66 7
-159 -30 -159 -61 0 -29 15 -34 49 -16 41 21 181 21 181 0 0 -8 -12 -21 -28
-29 -43 -22 -61 -49 -68 -98 -7 -49 3 -64 36 -53 13 4 20 17 22 42 4 52 26 61
73 29 54 -37 78 -41 177 -28 102 12 119 9 146 -27 17 -24 19 -34 11 -77 -7
-41 -18 -57 -63 -100 -48 -44 -56 -49 -72 -37 -27 20 -45 16 -82 -19 l-34 -33
4 30 c3 17 8 38 13 47 5 13 -1 21 -28 34 -29 14 -37 14 -60 3 -23 -13 -137
-133 -137 -145 0 -2 8 -16 17 -30 14 -22 15 -31 4 -61 -9 -24 -10 -38 -3 -42
13 -8 2 -59 -20 -90 -14 -20 -20 -22 -32 -12 -31 26 -171 -12 -171 -46 0 -13
11 -21 43 -27 34 -8 42 -14 42 -32 0 -31 -20 -43 -90 -56 -47 -9 -66 -9 -81 0
-25 16 -41 15 -65 -2 -18 -14 -17 -17 31 -60 44 -40 47 -46 30 -52 -11 -4 -25
-14 -31 -22 -5 -8 -26 -15 -44 -17 -23 -2 -41 -11 -54 -28 -24 -32 -13 -50 25
-42 33 7 38 -4 11 -22 -21 -13 -19 -66 3 -93 6 -8 22 -32 34 -53 19 -31 21
-40 11 -53 -7 -8 -21 -12 -31 -9 -16 5 -99 -29 -99 -41 0 -2 7 -21 15 -41 19
-44 20 -40 -10 -47 -19 -5 -25 -13 -25 -32 0 -25 1 -26 50 -19 38 5 59 3 90
-12 43 -20 55 -41 46 -79 -8 -32 -22 -30 -53 6 l-25 30 -37 -30 c-20 -17 -46
-40 -59 -50 -13 -11 -45 -22 -72 -26 -43 -6 -52 -4 -67 14 -23 27 -196 66
-280 64 -60 -1 -63 0 -63 23 0 13 -5 36 -10 51 -8 20 -7 39 6 76 13 39 14 57
5 99 -6 27 -11 71 -11 97 -1 66 -16 124 -36 139 -10 7 -40 16 -68 19 -43 6
-57 14 -88 48 -21 23 -38 44 -38 47 0 4 -7 10 -16 13 -20 8 -54 -11 -54 -29 0
-15 -40 -21 -52 -9 -4 3 5 30 18 59 14 29 27 76 31 105 6 48 9 52 52 77 90 52
100 74 56 133 -14 19 -25 46 -25 60 0 37 -58 80 -108 80 -16 0 -17 17 -14 192
3 220 7 258 27 258 8 0 15 -4 15 -9 0 -16 61 -41 99 -41 20 0 47 -7 59 -16 12
-8 32 -14 44 -12 16 2 24 -3 26 -17 7 -34 23 -45 67 -45 50 0 60 10 69 66 4
31 2 45 -10 54 -8 7 -11 16 -7 19 5 3 30 33 55 66 57 75 64 81 109 88 32 5 39
2 57 -23 l21 -28 -35 -45 c-27 -35 -35 -53 -32 -79 4 -44 33 -48 75 -8 39 37
66 40 57 6 -4 -18 2 -29 26 -49 17 -14 37 -24 44 -21 23 9 28 35 11 54 -11 12
-13 29 -9 62 6 40 4 47 -20 65 -14 12 -26 27 -26 34 0 7 -10 23 -22 36 -17 18
-19 26 -10 35 16 16 15 51 0 66 -10 10 -6 19 18 43 55 55 167 66 216 22 16
-15 21 -13 61 24 40 37 49 40 102 42 76 1 90 15 50 46 -41 33 -78 40 -109 20
-14 -9 -30 -14 -35 -10 -6 3 -24 -1 -40 -10 -17 -8 -40 -15 -53 -15 -13 0 -62
-10 -110 -22 l-86 -22 -42 29 c-39 27 -43 28 -55 12 -7 -9 -25 -17 -41 -17
-16 0 -56 -12 -89 -26 -33 -14 -78 -29 -99 -34 -42 -8 -95 -60 -96 -91 0 -9
-20 -33 -45 -53 -58 -48 -61 -82 -10 -123 19 -15 35 -36 35 -45 0 -25 -12 -22
-44 11 -16 16 -38 32 -51 35 -13 3 -30 21 -40 41 -9 20 -23 39 -31 42 -8 3
-14 10 -14 15 0 14 95 136 168 216 l58 64 41 -11 c46 -13 131 0 166 24 18 12
41 14 127 9 177 -11 241 21 347 174 37 54 98 131 134 170 l67 72 68 0 c78 0
127 19 200 74 26 20 49 36 51 36 2 0 -5 -13 -17 -30z m-532 -589 c-6 -10 -18
-17 -26 -13 -11 4 -8 8 9 18 31 17 31 17 17 -5z m-294 -26 c18 -13 18 -16 4
-32 -34 -39 -41 -63 -23 -83 14 -15 14 -22 4 -38 -10 -16 -17 -18 -37 -11 -16
6 -45 6 -80 -1 -30 -5 -56 -9 -57 -7 -2 1 -6 12 -9 24 -6 18 -4 22 8 17 30
-11 48 73 22 99 -12 12 -9 15 19 26 18 6 39 9 48 5 9 -3 24 -1 34 5 25 14 44
13 67 -4z m-264 -65 c-36 -11 -52 -11 -45 0 3 6 21 10 38 9 31 -1 31 -1 7 -9z
m27 -85 c10 -45 10 -47 -23 -78 -53 -49 -69 -51 -98 -14 l-26 32 25 8 c18 6
25 16 25 35 0 34 10 48 35 55 46 11 51 8 62 -38z m238 -75 l20 -25 -22 19
c-13 11 -23 24 -23 29 0 6 1 8 3 6 1 -2 11 -15 22 -29z m-410 -20 l20 -25 -22
19 c-13 11 -23 24 -23 29 0 6 1 8 3 6 1 -2 11 -15 22 -29z m400 -60 c3 -5 1
-10 -4 -10 -6 0 -11 5 -11 10 0 6 2 10 4 10 3 0 8 -4 11 -10z m75 -4 c0 -9 -7
-12 -21 -9 -16 4 -17 8 -7 14 19 13 28 11 28 -5z m-373 -9 c-25 -10 -28 -15
-23 -41 4 -17 12 -34 20 -38 22 -12 8 -58 -19 -58 -17 0 -26 10 -39 42 -15 38
-15 43 0 51 10 6 14 17 10 30 -4 20 -1 22 37 23 41 2 41 1 14 -9z m1123 -365
c0 -4 -14 -13 -31 -19 -31 -12 -31 -12 -14 7 18 20 45 27 45 12z m-62 -616
c15 -8 35 -23 45 -33 17 -19 16 -21 -4 -47 -18 -23 -20 -30 -8 -41 22 -22 41
-21 97 5 44 21 53 30 58 59 l7 34 18 -24 c18 -24 17 -24 -7 -37 -13 -7 -24
-17 -24 -22 0 -5 20 -30 44 -56 39 -40 44 -50 39 -79 -3 -19 -1 -46 4 -62 11
-31 -8 -116 -29 -129 -11 -7 -55 -17 -137 -31 -33 -5 -86 6 -147 32 -18 8 -41
11 -52 8 -16 -4 -20 -1 -16 14 8 29 -32 73 -66 73 -15 0 -33 6 -40 14 -6 8
-21 16 -33 18 -17 2 -23 13 -30 53 -4 28 -14 55 -22 60 -7 6 -16 27 -20 46 -5
25 -16 41 -36 53 -16 9 -29 21 -29 26 0 17 22 22 38 7 31 -26 53 -27 100 -6
50 22 202 78 215 79 4 0 20 -6 35 -14z m7017 -104 c5 -24 1 -41 -14 -66 -28
-44 -26 -54 7 -58 15 -2 27 -9 26 -15 -1 -7 -2 -28 -2 -47 -2 -27 -7 -35 -27
-40 -30 -8 -31 -25 -10 -145 8 -47 14 -85 12 -86 -1 -1 -24 -10 -51 -20 -56
-20 -142 -16 -178 9 -15 11 -45 16 -96 16 l-74 0 49 39 c26 21 73 64 103 96
30 31 72 75 93 96 40 42 106 158 113 199 17 109 15 106 29 79 7 -13 16 -39 20
-57z m-8193 -287 c3 -14 -1 -30 -8 -36 -11 -9 -14 -5 -14 25 0 41 15 49 22 11z
m813 -85 c4 -6 -5 -10 -20 -10 -15 0 -24 4 -20 10 3 6 12 10 20 10 8 0 17 -4
20 -10z m126 -85 c11 -16 19 -35 19 -42 0 -21 -38 -25 -74 -8 -32 15 -34 19
-29 51 4 22 2 34 -6 34 -6 0 -11 6 -11 14 0 25 80 -13 101 -49z m-241 -86 c0
-6 -4 -7 -10 -4 -5 3 -10 11 -10 16 0 6 5 7 10 4 6 -3 10 -11 10 -16z m2406
-217 c-14 -14 -16 -14 -16 -1 0 20 23 44 29 28 2 -6 -4 -18 -13 -27z m190 -53
c3 -6 -8 -24 -25 -39 -36 -33 -35 -30 -17 -75 10 -22 24 -37 40 -41 14 -3 31
-13 38 -22 11 -14 10 -15 -7 -7 -39 17 -102 17 -134 1 -35 -19 -66 -60 -56
-76 16 -26 -90 16 -118 48 -18 20 -18 20 13 27 37 8 46 25 30 56 -10 18 -9 24
4 31 12 7 14 14 6 28 -5 10 -10 23 -10 27 0 18 44 11 75 -13 55 -42 113 -25
103 30 -4 17 0 26 11 29 29 8 40 7 47 -4z m-101 -30 c16 -16 -19 -9 -40 7 -19
16 -19 16 5 9 14 -4 29 -11 35 -16z m-1499 -19 c16 -6 35 -19 41 -29 10 -17 8
-19 -20 -25 -22 -5 -33 -2 -40 9 -4 8 -17 15 -27 15 -25 0 -26 16 -2 29 9 6
17 11 18 11 1 0 14 -5 30 -10z m-1406 -20 c0 -5 -5 -10 -11 -10 -5 0 -7 5 -4
10 3 6 8 10 11 10 2 0 4 -4 4 -10z m2324 -49 c7 -10 -23 -20 -42 -14 -6 3 -10
9 -6 14 7 12 41 12 48 0z m-69 -71 c-10 -11 -20 -18 -23 -15 -7 6 18 35 31 35
5 0 2 -9 -8 -20z m909 -236 c23 -9 20 -23 -4 -17 -11 3 -20 9 -20 14 0 11 3
11 24 3z m66 -54 c0 -5 -4 -10 -10 -10 -5 0 -10 5 -10 10 0 6 5 10 10 10 6 0
10 -4 10 -10z m-70 -10 c0 -5 -2 -10 -4 -10 -3 0 -8 5 -11 10 -3 6 -1 10 4 10
6 0 11 -4 11 -10z m190 -82 c0 -15 -8 -18 -49 -18 -28 0 -53 -4 -56 -10 -3 -5
-13 -10 -20 -10 -12 0 -12 5 -3 25 8 19 8 28 -3 42 -13 16 -13 16 11 0 34 -24
49 -21 61 9 l10 27 24 -23 c14 -13 25 -32 25 -42z m54 -79 c15 -18 24 -20 59
-15 23 4 46 11 52 17 5 5 26 9 46 9 47 0 54 -18 32 -81 -20 -56 -33 -60 -94
-29 -22 12 -44 18 -49 15 -6 -3 -10 1 -10 9 0 26 -38 39 -71 25 -33 -13 -91
-1 -137 29 l-24 15 34 13 c18 6 58 12 88 13 45 1 59 -3 74 -20z m-4554 -469
c0 -23 -38 -28 -58 -8 -20 20 -14 28 23 28 28 0 35 -4 35 -20z"/>
<path d="M7816 3769 c-14 -17 -26 -43 -26 -58 0 -15 -8 -36 -19 -45 -10 -9
-21 -34 -24 -56 -3 -22 -27 -83 -55 -137 -39 -77 -55 -99 -73 -101 -37 -6 -47
-19 -99 -122 -99 -197 -101 -205 -94 -362 8 -152 16 -175 57 -164 43 10 94
121 127 275 6 24 15 50 21 57 6 7 26 57 45 111 19 54 39 100 45 102 15 5 61
112 54 129 -3 8 3 26 13 40 10 15 24 41 31 57 7 17 27 59 46 95 23 45 31 74
28 93 -4 20 1 32 18 46 21 16 22 22 11 45 -17 39 -71 37 -106 -5z m47 -31
c-15 -16 -20 -31 -16 -51 6 -30 -52 -161 -76 -171 -9 -5 -11 -1 -6 11 4 10 12
36 18 58 5 22 18 49 28 61 11 11 19 33 19 49 0 29 24 65 43 65 6 0 1 -10 -10
-22z m-117 -287 c-12 -13 -17 -30 -14 -46 3 -14 1 -28 -3 -31 -5 -3 -9 -14 -9
-25 0 -11 -10 -30 -23 -42 -13 -12 -38 -65 -56 -117 -19 -52 -38 -101 -44
-108 -5 -7 -16 -36 -23 -65 -30 -120 -47 -173 -67 -209 -12 -21 -25 -38 -28
-38 -3 0 -9 57 -12 126 -7 124 -6 127 23 198 17 39 50 107 73 151 35 67 46 81
69 83 23 3 34 17 70 83 27 52 45 76 52 69 6 -6 3 -16 -8 -29z"/>
<path d="M3981 3769 c-61 -10 -144 -54 -139 -72 2 -7 22 -21 44 -31 21 -11 45
-26 52 -33 27 -27 59 -9 83 46 10 22 21 31 44 33 36 4 47 35 19 55 -20 14 -26
15 -103 2z m4 -59 c3 -5 0 -18 -6 -29 -12 -19 -13 -19 -41 2 -20 15 -25 23
-16 29 18 11 56 10 63 -2z"/>
<path d="M4274 3195 c-9 -24 3 -44 31 -51 30 -7 65 18 65 48 0 15 -8 18 -45
18 -31 0 -47 -5 -51 -15z"/>
<path d="M4726 2660 c-21 -11 -59 -32 -85 -48 -25 -16 -67 -41 -93 -56 -55
-31 -70 -62 -40 -85 37 -30 54 -81 27 -81 -20 0 -56 -60 -49 -82 2 -9 0 -19
-6 -23 -5 -3 -10 2 -10 11 0 22 -18 81 -36 117 -13 26 -12 29 17 55 21 19 28
32 23 45 -5 15 -12 17 -38 10 -53 -14 -190 -5 -250 16 -44 15 -57 17 -66 6
-17 -21 19 -53 75 -67 51 -12 75 -25 75 -38 0 -4 -20 -20 -45 -36 -27 -17 -45
-35 -45 -47 0 -29 -55 -45 -159 -45 -95 0 -126 -11 -103 -34 17 -17 15 -25 -9
-31 -34 -9 -16 -30 39 -47 70 -20 89 -41 74 -75 -11 -24 -9 -29 18 -55 32 -29
42 -80 16 -80 -7 0 -19 -6 -25 -14 -14 -17 5 -57 43 -87 17 -13 26 -30 26 -48
0 -26 3 -29 50 -35 28 -4 55 -4 61 -1 5 4 39 -1 76 -10 37 -9 80 -14 96 -11
28 6 29 5 22 -22 -4 -15 -13 -31 -21 -35 -17 -10 -19 -46 -1 -52 6 -2 29 -6
49 -10 40 -6 72 -30 62 -46 -3 -5 -20 -7 -38 -4 -36 7 -63 -13 -52 -40 4 -12
2 -13 -13 -6 -21 12 -31 5 -31 -20 0 -10 -13 -24 -29 -32 -27 -14 -34 -13 -79
8 -28 13 -54 29 -58 37 -5 8 -25 24 -45 36 -47 28 -127 21 -170 -15 -33 -28
-36 -48 -13 -75 16 -16 15 -19 -7 -37 -20 -16 -22 -22 -12 -44 9 -19 24 -28
65 -37 29 -7 78 -26 108 -42 126 -69 123 -68 168 -53 28 10 70 13 133 11 87
-4 93 -6 106 -30 15 -29 48 -50 63 -41 6 3 10 31 10 61 0 50 4 60 40 103 22
26 52 54 66 62 19 10 24 19 21 36 -3 16 1 23 11 23 9 0 29 12 45 28 25 24 36
27 95 27 83 0 107 12 98 48 -8 33 -33 46 -99 54 -29 3 -60 12 -69 20 -21 19
-58 8 -58 -17 0 -10 5 -22 10 -25 12 -7 4 -25 -11 -25 -5 0 -15 15 -23 33 -11
27 -11 34 1 48 16 20 7 48 -19 58 -19 7 -19 8 -1 28 12 14 44 27 91 37 94 21
122 39 122 78 0 37 -53 94 -96 103 -48 11 -54 14 -60 30 -19 49 52 119 123
121 28 1 43 -3 43 -10 0 -7 6 -21 14 -31 12 -17 17 -17 45 -5 17 7 40 24 51
37 19 25 19 25 -7 76 -15 30 -25 67 -25 86 2 36 -22 116 -39 138 -11 13 -1 39
32 82 11 13 19 30 19 37 0 18 -98 74 -130 74 -14 1 -36 7 -50 15 -34 19 -68
18 -114 -5z m104 -35 c14 -8 35 -14 48 -15 18 0 75 -22 90 -35 2 -2 -9 -26
-25 -54 -24 -43 -26 -53 -15 -71 25 -41 42 -108 37 -151 -3 -34 -11 -50 -36
-71 -17 -14 -37 -24 -45 -21 -26 10 -83 -19 -124 -64 -39 -41 -42 -48 -37 -86
6 -45 35 -77 69 -77 31 0 76 -28 84 -52 9 -30 -11 -42 -95 -57 -45 -8 -78 -20
-93 -34 -13 -12 -31 -21 -39 -19 -9 1 -27 -6 -40 -17 -23 -19 -23 -20 -5 -39
10 -12 30 -24 45 -27 23 -5 26 -11 28 -50 2 -41 0 -44 -28 -50 -20 -5 -38 -1
-54 9 -13 9 -34 16 -45 16 -35 0 -81 63 -61 83 17 17 14 22 -35 62 -40 33 -48
36 -68 26 -18 -10 -36 -9 -92 4 -38 9 -80 13 -92 10 -34 -8 -62 3 -62 25 0 10
-11 27 -25 38 -24 19 -35 62 -16 62 27 0 4 114 -27 134 -5 3 -7 17 -4 31 2 14
-3 36 -12 50 -9 14 -16 27 -15 30 0 4 -7 17 -16 31 -21 32 -12 43 15 19 16
-14 23 -16 32 -7 7 7 20 12 29 12 39 0 108 39 115 64 3 15 19 31 40 41 35 17
59 56 51 85 -3 12 3 15 30 12 19 -3 32 -7 29 -10 -3 -3 4 -20 15 -39 11 -18
17 -33 12 -33 -44 -1 -33 -70 11 -70 18 0 24 -4 20 -14 -6 -16 31 -72 53 -80
18 -7 53 50 53 86 0 18 8 31 23 39 12 7 25 17 30 23 11 17 27 -13 27 -51 0
-17 -4 -35 -10 -38 -16 -10 -12 -62 6 -69 48 -19 81 21 71 86 -3 18 -10 62
-15 98 -13 88 -19 97 -58 112 l-34 12 49 26 c27 15 62 37 79 48 59 43 93 49
132 27z m180 -441 c0 -16 -31 -27 -43 -15 -7 7 -4 17 8 31 14 16 20 17 27 8 4
-7 8 -18 8 -24z m-102 -550 c41 -11 23 -21 -38 -20 -41 1 -60 5 -60 14 0 13
57 16 98 6z m-338 -24 c0 -5 -5 -10 -11 -10 -5 0 -7 5 -4 10 3 6 8 10 11 10 2
0 4 -4 4 -10z m96 -26 c-3 -9 -6 -18 -6 -20 0 -10 -39 -2 -49 10 -10 12 -7 15
16 19 15 2 32 5 37 6 4 0 5 -6 2 -15z m91 -8 c-6 -17 -47 -20 -47 -3 0 9 6 17
13 20 18 6 38 -4 34 -17z m-624 -14 c15 -10 33 -26 40 -35 15 -20 158 -85 175
-79 6 2 12 11 12 20 0 10 12 22 25 29 24 11 27 9 50 -28 14 -21 30 -39 36 -39
6 0 9 -18 7 -42 l-3 -43 -65 3 c-36 2 -89 -2 -119 -9 -48 -12 -57 -11 -85 6
-85 51 -135 74 -170 81 -30 5 -35 9 -22 16 23 13 20 47 -6 75 -27 28 -16 43
39 53 56 11 56 11 86 -8z m411 -9 c11 4 30 -3 51 -19 19 -14 39 -23 45 -19 6
4 18 1 26 -6 13 -10 10 -16 -18 -44 -18 -17 -42 -44 -52 -60 l-19 -28 -33 39
c-42 48 -84 118 -84 138 0 19 42 25 56 7 6 -8 18 -11 28 -8z m16 -220 c-1 -24
-2 -26 -11 -10 -5 9 -7 22 -4 27 10 17 15 11 15 -17z"/>
<path d="M6949 2643 c-8 -23 -7 -30 8 -41 10 -7 27 -11 38 -10 27 4 33 47 9
65 -27 20 -43 16 -55 -14z"/>
<path d="M3642 2538 c-17 -17 -15 -53 3 -68 8 -7 15 -18 15 -25 0 -7 -7 -18
-15 -25 -8 -7 -15 -29 -15 -50 0 -83 86 -95 103 -15 10 49 1 119 -18 135 -7 6
-16 22 -19 35 -7 27 -34 33 -54 13z m54 -163 c-7 -37 -26 -48 -26 -15 0 21 21
62 28 55 3 -2 1 -20 -2 -40z"/>
<path d="M6350 1878 c-13 -29 -20 -66 -20 -109 0 -79 3 -82 131 -129 116 -42
169 -38 169 12 0 10 7 30 16 43 26 39 15 67 -38 95 -25 14 -55 33 -65 43 -11
9 -27 17 -36 17 -8 0 -36 16 -61 35 -26 19 -53 35 -62 35 -8 0 -24 -19 -34
-42z m141 -65 c16 -3 29 -9 29 -13 0 -4 23 -19 50 -34 55 -30 56 -32 35 -60
-8 -11 -15 -28 -15 -38 0 -25 -22 -23 -111 8 -111 39 -109 37 -109 99 0 30 5
65 11 79 l12 25 34 -30 c19 -16 48 -32 64 -36z"/>
<path d="M3886 1769 c-14 -17 -29 -43 -32 -57 -4 -15 -31 -53 -62 -84 -31 -32
-53 -60 -50 -64 4 -3 -5 -22 -18 -41 -25 -38 -30 -58 -15 -68 5 -3 12 -19 16
-36 6 -28 10 -30 43 -27 36 3 37 4 69 91 18 48 44 105 57 126 34 54 61 158 45
177 -17 20 -24 18 -53 -17z m-50 -186 c-13 -27 -32 -72 -42 -100 -20 -58 -28
-65 -38 -30 -10 38 -7 47 20 57 22 9 25 14 19 39 -5 24 -1 33 27 55 18 14 34
26 35 26 1 0 -8 -21 -21 -47z"/>
<path d="M3432 1617 c-5 -7 -6 -21 -2 -33 10 -26 120 -124 140 -124 23 0 80
38 80 53 0 23 -33 44 -69 45 -18 0 -43 9 -55 20 -37 34 -83 53 -94 39z"/>
<path d="M2313 1433 c-13 -2 -32 -16 -43 -31 l-21 -26 22 -17 c13 -9 43 -20
68 -23 39 -6 49 -3 64 15 9 12 17 27 17 34 0 31 -60 58 -107 48z m56 -42 c19
-12 1 -20 -34 -13 -26 4 -27 6 -10 13 26 10 28 10 44 0z"/>
<path d="M2213 1365 c-30 -21 -29 -33 3 -67 21 -21 31 -25 45 -17 25 13 24 42
-3 74 -22 24 -24 25 -45 10z"/>
<path d="M2433 1245 c-44 -19 -58 -47 -34 -69 35 -32 91 0 91 52 0 27 -20 32
-57 17z"/>
<path d="M1163 410 c-24 -10 -29 -26 -14 -49 19 -30 120 10 108 43 -7 18 -56
21 -94 6z"/>
<path d="M841 321 c-35 -9 -50 -37 -31 -56 13 -13 22 -13 75 1 33 9 63 21 67
27 19 30 -46 47 -111 28z"/>
<path d="M567 293 l-68 -4 3 -32 3 -32 60 3 c65 4 125 27 125 47 0 14 -24 26
-43 23 -7 -1 -43 -3 -80 -5z"/>
<path d="M400 269 c-25 -5 -83 -19 -130 -31 -79 -21 -85 -25 -88 -51 -2 -17 2
-29 11 -33 17 -6 184 42 192 57 4 5 19 9 34 9 30 0 67 32 56 49 -7 12 -11 12
-75 0z"/>
<path d="M27 102 c-19 -20 -27 -39 -27 -65 0 -20 5 -37 11 -37 6 0 9 7 5 15
-3 8 0 15 6 15 18 0 98 70 98 86 0 26 -63 17 -93 -14z"/>
</g>
</svg>
